  0
SECTION
  2
HEADER
  9
$ANGBASE
  50
0.0
  9
$ANGDIR
  70
1
  9
$MEASUREMENT
  70
1
  0
ENDSEC
  0
SECTION
  2
TABLES
  0
TABLE
  2
LTYPE
  70
4
  0
LTYPE
  5
40F
  2
CONTINUOUS
  70
0
  3
Solid line
  72
65
  73
0
  40
0.0
  0
LTYPE
  5
410
  2
DASHDOT
 70
0
  3
Dash Dot ____ _ ____ _
 72
65
 73
4
 40
2.0
 49
1.25
 49
-0.25
 49
0.25
 49
-0.25
  0
LTYPE
  5
411
  2
DASHED
 70
0
  3
Dashed __ __ __ __ __
 72
65
 73
2
 40
0.75
 49
0.5
 49
-0.25
  0
LTYPE
  5
43B
  2
DOTTED
 70
0
  3
Dotted .  .  .  .
 72
65
 73
2
 40
0.2
 49
0.0
 49
-0.2
  0
ENDTAB
  0
TABLE
  2
STYLE
  70
4
  0
STYLE
  2
KICAD
  70
0
  40
0
  41
1
  42
1
  50
0
  71
0
  3
isocp.shx
  0
STYLE
  2
KICADB
  70
0
  40
0
  41
1
  42
1
  50
0
  71
0
  3
isocp.shx
  0
STYLE
  2
KICADI
  70
0
  40
0
  41
1
  42
1
  50
15
  71
0
  3
isocp.shx
  0
STYLE
  2
KICADBI
  70
0
  40
0
  41
1
  42
1
  50
15
  71
0
  3
isocp.shx
  0
ENDTAB
  0
TABLE
  2
LAYER
  70
1
  0
LAYER
  2
BLACK
  70
0
  62
7
  6
CONTINUOUS
  0
ENDTAB
  0
ENDSEC
  0
SECTION
  2
ENTITIES
0
LINE
8
BLACK
6
CONTINUOUS
10
127.191
20
-114.272
11
127.194
21
-114.273
0
LINE
8
BLACK
6
CONTINUOUS
10
127.194
20
-114.273
11
127.196
21
-114.273
0
LINE
8
BLACK
6
CONTINUOUS
10
127.196
20
-114.273
11
127.201
21
-114.273
0
LINE
8
BLACK
6
CONTINUOUS
10
127.201
20
-114.273
11
127.206
21
-114.274
0
LINE
8
BLACK
6
CONTINUOUS
10
127.206
20
-114.274
11
127.208
21
-114.275
0
LINE
8
BLACK
6
CONTINUOUS
10
127.208
20
-114.275
11
127.21
21
-114.275
0
LINE
8
BLACK
6
CONTINUOUS
10
127.21
20
-114.275
11
127.215
21
-114.277
0
LINE
8
BLACK
6
CONTINUOUS
10
127.215
20
-114.277
11
127.22
21
-114.278
0
LINE
8
BLACK
6
CONTINUOUS
10
127.22
20
-114.278
11
127.222
21
-114.28
0
LINE
8
BLACK
6
CONTINUOUS
10
127.222
20
-114.28
11
127.224
21
-114.28
0
LINE
8
BLACK
6
CONTINUOUS
10
127.224
20
-114.28
11
127.319
21
-114.328
0
LINE
8
BLACK
6
CONTINUOUS
10
127.319
20
-114.328
11
127.32
21
-114.328
0
LINE
8
BLACK
6
CONTINUOUS
10
127.32
20
-114.328
11
127.324
21
-114.331
0
LINE
8
BLACK
6
CONTINUOUS
10
127.324
20
-114.331
11
127.327
21
-114.333
0
LINE
8
BLACK
6
CONTINUOUS
10
127.327
20
-114.333
11
127.33
21
-114.335
0
LINE
8
BLACK
6
CONTINUOUS
10
127.33
20
-114.335
11
127.332
21
-114.336
0
LINE
8
BLACK
6
CONTINUOUS
10
127.332
20
-114.336
11
127.335
21
-114.339
0
LINE
8
BLACK
6
CONTINUOUS
10
127.335
20
-114.339
11
127.339
21
-114.342
0
LINE
8
BLACK
6
CONTINUOUS
10
127.339
20
-114.342
11
127.434
21
-114.437
0
LINE
8
BLACK
6
CONTINUOUS
10
127.434
20
-114.437
11
127.435
21
-114.438
0
LINE
8
BLACK
6
CONTINUOUS
10
127.435
20
-114.438
11
127.438
21
-114.442
0
LINE
8
BLACK
6
CONTINUOUS
10
127.438
20
-114.442
11
127.441
21
-114.446
0
LINE
8
BLACK
6
CONTINUOUS
10
127.441
20
-114.446
11
127.442
21
-114.448
0
LINE
8
BLACK
6
CONTINUOUS
10
127.442
20
-114.448
11
127.444
21
-114.449
0
LINE
8
BLACK
6
CONTINUOUS
10
127.444
20
-114.449
11
127.446
21
-114.454
0
LINE
8
BLACK
6
CONTINUOUS
10
127.446
20
-114.454
11
127.449
21
-114.458
0
LINE
8
BLACK
6
CONTINUOUS
10
127.449
20
-114.458
11
127.45
21
-114.46
0
LINE
8
BLACK
6
CONTINUOUS
10
127.45
20
-114.46
11
127.451
21
-114.462
0
LINE
8
BLACK
6
CONTINUOUS
10
127.451
20
-114.462
11
127.452
21
-114.467
0
LINE
8
BLACK
6
CONTINUOUS
10
127.452
20
-114.467
11
127.454
21
-114.472
0
LINE
8
BLACK
6
CONTINUOUS
10
127.454
20
-114.472
11
127.501
21
-114.663
0
LINE
8
BLACK
6
CONTINUOUS
10
127.501
20
-114.663
11
127.502
21
-114.664
0
LINE
8
BLACK
6
CONTINUOUS
10
127.502
20
-114.664
11
127.502
21
-114.665
0
LINE
8
BLACK
6
CONTINUOUS
10
127.502
20
-114.665
11
127.502
21
-114.666
0
LINE
8
BLACK
6
CONTINUOUS
10
127.502
20
-114.666
11
127.503
21
-114.672
0
LINE
8
BLACK
6
CONTINUOUS
10
127.503
20
-114.672
11
127.503
21
-114.678
0
LINE
8
BLACK
6
CONTINUOUS
10
127.503
20
-114.678
11
127.503
21
-114.679
0
LINE
8
BLACK
6
CONTINUOUS
10
127.503
20
-114.679
11
127.504
21
-114.681
0
LINE
8
BLACK
6
CONTINUOUS
10
127.504
20
-114.681
11
127.504
21
-115.014
0
LINE
8
BLACK
6
CONTINUOUS
10
127.504
20
-115.014
11
127.504
21
-115.015
0
LINE
8
BLACK
6
CONTINUOUS
10
127.504
20
-115.015
11
127.503
21
-115.016
0
LINE
8
BLACK
6
CONTINUOUS
10
127.503
20
-115.016
11
127.503
21
-115.018
0
LINE
8
BLACK
6
CONTINUOUS
10
127.503
20
-115.018
11
127.503
21
-115.024
0
LINE
8
BLACK
6
CONTINUOUS
10
127.503
20
-115.024
11
127.502
21
-115.03
0
LINE
8
BLACK
6
CONTINUOUS
10
127.502
20
-115.03
11
127.501
21
-115.031
0
LINE
8
BLACK
6
CONTINUOUS
10
127.501
20
-115.031
11
127.501
21
-115.032
0
LINE
8
BLACK
6
CONTINUOUS
10
127.501
20
-115.032
11
127.454
21
-115.223
0
LINE
8
BLACK
6
CONTINUOUS
10
127.454
20
-115.223
11
127.453
21
-115.224
0
LINE
8
BLACK
6
CONTINUOUS
10
127.453
20
-115.224
11
127.452
21
-115.228
0
LINE
8
BLACK
6
CONTINUOUS
10
127.452
20
-115.228
11
127.45
21
-115.233
0
LINE
8
BLACK
6
CONTINUOUS
10
127.45
20
-115.233
11
127.449
21
-115.235
0
LINE
8
BLACK
6
CONTINUOUS
10
127.449
20
-115.235
11
127.448
21
-115.237
0
LINE
8
BLACK
6
CONTINUOUS
10
127.448
20
-115.237
11
127.446
21
-115.242
0
LINE
8
BLACK
6
CONTINUOUS
10
127.446
20
-115.242
11
127.443
21
-115.246
0
LINE
8
BLACK
6
CONTINUOUS
10
127.443
20
-115.246
11
127.442
21
-115.248
0
LINE
8
BLACK
6
CONTINUOUS
10
127.442
20
-115.248
11
127.441
21
-115.25
0
LINE
8
BLACK
6
CONTINUOUS
10
127.441
20
-115.25
11
127.437
21
-115.254
0
LINE
8
BLACK
6
CONTINUOUS
10
127.437
20
-115.254
11
127.434
21
-115.258
0
LINE
8
BLACK
6
CONTINUOUS
10
127.434
20
-115.258
11
127.339
21
-115.353
0
LINE
8
BLACK
6
CONTINUOUS
10
127.339
20
-115.353
11
127.338
21
-115.354
0
LINE
8
BLACK
6
CONTINUOUS
10
127.338
20
-115.354
11
127.335
21
-115.356
0
LINE
8
BLACK
6
CONTINUOUS
10
127.335
20
-115.356
11
127.332
21
-115.359
0
LINE
8
BLACK
6
CONTINUOUS
10
127.332
20
-115.359
11
127.329
21
-115.361
0
LINE
8
BLACK
6
CONTINUOUS
10
127.329
20
-115.361
11
127.327
21
-115.363
0
LINE
8
BLACK
6
CONTINUOUS
10
127.327
20
-115.363
11
127.323
21
-115.365
0
LINE
8
BLACK
6
CONTINUOUS
10
127.323
20
-115.365
11
127.319
21
-115.367
0
LINE
8
BLACK
6
CONTINUOUS
10
127.319
20
-115.367
11
127.224
21
-115.414
0
LINE
8
BLACK
6
CONTINUOUS
10
127.224
20
-115.414
11
127.223
21
-115.415
0
LINE
8
BLACK
6
CONTINUOUS
10
127.223
20
-115.415
11
127.221
21
-115.416
0
LINE
8
BLACK
6
CONTINUOUS
10
127.221
20
-115.416
11
127.219
21
-115.417
0
LINE
8
BLACK
6
CONTINUOUS
10
127.219
20
-115.417
11
127.214
21
-115.418
0
LINE
8
BLACK
6
CONTINUOUS
10
127.214
20
-115.418
11
127.209
21
-115.42
0
LINE
8
BLACK
6
CONTINUOUS
10
127.209
20
-115.42
11
127.207
21
-115.42
0
LINE
8
BLACK
6
CONTINUOUS
10
127.207
20
-115.42
11
127.205
21
-115.421
0
LINE
8
BLACK
6
CONTINUOUS
10
127.205
20
-115.421
11
127.2
21
-115.421
0
LINE
8
BLACK
6
CONTINUOUS
10
127.2
20
-115.421
11
127.195
21
-115.422
0
LINE
8
BLACK
6
CONTINUOUS
10
127.195
20
-115.422
11
127.193
21
-115.422
0
LINE
8
BLACK
6
CONTINUOUS
10
127.193
20
-115.422
11
127.19
21
-115.422
0
LINE
8
BLACK
6
CONTINUOUS
10
127.19
20
-115.422
11
127
21
-115.422
0
LINE
8
BLACK
6
CONTINUOUS
10
127
20
-115.422
11
126.999
21
-115.422
0
LINE
8
BLACK
6
CONTINUOUS
10
126.999
20
-115.422
11
126.997
21
-115.422
0
LINE
8
BLACK
6
CONTINUOUS
10
126.997
20
-115.422
11
126.995
21
-115.422
0
LINE
8
BLACK
6
CONTINUOUS
10
126.995
20
-115.422
11
126.989
21
-115.421
0
LINE
8
BLACK
6
CONTINUOUS
10
126.989
20
-115.421
11
126.984
21
-115.421
0
LINE
8
BLACK
6
CONTINUOUS
10
126.984
20
-115.421
11
126.982
21
-115.42
0
LINE
8
BLACK
6
CONTINUOUS
10
126.982
20
-115.42
11
126.98
21
-115.42
0
LINE
8
BLACK
6
CONTINUOUS
10
126.98
20
-115.42
11
126.975
21
-115.418
0
LINE
8
BLACK
6
CONTINUOUS
10
126.975
20
-115.418
11
126.97
21
-115.416
0
LINE
8
BLACK
6
CONTINUOUS
10
126.97
20
-115.416
11
126.968
21
-115.415
0
LINE
8
BLACK
6
CONTINUOUS
10
126.968
20
-115.415
11
126.966
21
-115.414
0
LINE
8
BLACK
6
CONTINUOUS
10
126.966
20
-115.414
11
126.92
21
-115.391
0
LINE
8
BLACK
6
CONTINUOUS
10
126.92
20
-115.391
11
126.863
21
-115.448
0
LINE
8
BLACK
6
CONTINUOUS
10
126.863
20
-115.448
11
126.862
21
-115.449
0
LINE
8
BLACK
6
CONTINUOUS
10
126.862
20
-115.449
11
126.858
21
-115.451
0
LINE
8
BLACK
6
CONTINUOUS
10
126.858
20
-115.451
11
126.855
21
-115.454
0
LINE
8
BLACK
6
CONTINUOUS
10
126.855
20
-115.454
11
126.853
21
-115.456
0
LINE
8
BLACK
6
CONTINUOUS
10
126.853
20
-115.456
11
126.85
21
-115.458
0
LINE
8
BLACK
6
CONTINUOUS
10
126.85
20
-115.458
11
126.847
21
-115.46
0
LINE
8
BLACK
6
CONTINUOUS
10
126.847
20
-115.46
11
126.843
21
-115.462
0
LINE
8
BLACK
6
CONTINUOUS
10
126.843
20
-115.462
11
126.748
21
-115.51
0
LINE
8
BLACK
6
CONTINUOUS
10
126.748
20
-115.51
11
126.747
21
-115.51
0
LINE
8
BLACK
6
CONTINUOUS
10
126.747
20
-115.51
11
126.733
21
-115.515
0
LINE
8
BLACK
6
CONTINUOUS
10
126.733
20
-115.515
11
126.719
21
-115.517
0
LINE
8
BLACK
6
CONTINUOUS
10
126.719
20
-115.517
11
126.704
21
-115.517
0
LINE
8
BLACK
6
CONTINUOUS
10
126.704
20
-115.517
11
126.69
21
-115.514
0
LINE
8
BLACK
6
CONTINUOUS
10
126.69
20
-115.514
11
126.676
21
-115.507
0
LINE
8
BLACK
6
CONTINUOUS
10
126.676
20
-115.507
11
126.665
21
-115.499
0
LINE
8
BLACK
6
CONTINUOUS
10
126.665
20
-115.499
11
126.655
21
-115.488
0
LINE
8
BLACK
6
CONTINUOUS
10
126.655
20
-115.488
11
126.647
21
-115.476
0
LINE
8
BLACK
6
CONTINUOUS
10
126.647
20
-115.476
11
126.642
21
-115.462
0
LINE
8
BLACK
6
CONTINUOUS
10
126.642
20
-115.462
11
126.639
21
-115.448
0
LINE
8
BLACK
6
CONTINUOUS
10
126.639
20
-115.448
11
126.64
21
-115.433
0
LINE
8
BLACK
6
CONTINUOUS
10
126.64
20
-115.433
11
126.643
21
-115.419
0
LINE
8
BLACK
6
CONTINUOUS
10
126.643
20
-115.419
11
126.649
21
-115.405
0
LINE
8
BLACK
6
CONTINUOUS
10
126.649
20
-115.405
11
126.658
21
-115.393
0
LINE
8
BLACK
6
CONTINUOUS
10
126.658
20
-115.393
11
126.668
21
-115.383
0
LINE
8
BLACK
6
CONTINUOUS
10
126.668
20
-115.383
11
126.681
21
-115.376
0
LINE
8
BLACK
6
CONTINUOUS
10
126.681
20
-115.376
11
126.765
21
-115.333
0
LINE
8
BLACK
6
CONTINUOUS
10
126.765
20
-115.333
11
126.799
21
-115.3
0
LINE
8
BLACK
6
CONTINUOUS
10
126.799
20
-115.3
11
126.756
21
-115.258
0
LINE
8
BLACK
6
CONTINUOUS
10
126.756
20
-115.258
11
126.756
21
-115.257
0
LINE
8
BLACK
6
CONTINUOUS
10
126.756
20
-115.257
11
126.753
21
-115.253
0
LINE
8
BLACK
6
CONTINUOUS
10
126.753
20
-115.253
11
126.749
21
-115.249
0
LINE
8
BLACK
6
CONTINUOUS
10
126.749
20
-115.249
11
126.748
21
-115.247
0
LINE
8
BLACK
6
CONTINUOUS
10
126.748
20
-115.247
11
126.747
21
-115.245
0
LINE
8
BLACK
6
CONTINUOUS
10
126.747
20
-115.245
11
126.744
21
-115.241
0
LINE
8
BLACK
6
CONTINUOUS
10
126.744
20
-115.241
11
126.742
21
-115.236
0
LINE
8
BLACK
6
CONTINUOUS
10
126.742
20
-115.236
11
126.741
21
-115.234
0
LINE
8
BLACK
6
CONTINUOUS
10
126.741
20
-115.234
11
126.74
21
-115.232
0
LINE
8
BLACK
6
CONTINUOUS
10
126.74
20
-115.232
11
126.738
21
-115.227
0
LINE
8
BLACK
6
CONTINUOUS
10
126.738
20
-115.227
11
126.737
21
-115.223
0
LINE
8
BLACK
6
CONTINUOUS
10
126.737
20
-115.223
11
126.689
21
-115.032
0
LINE
8
BLACK
6
CONTINUOUS
10
126.689
20
-115.032
11
126.689
21
-115.031
0
LINE
8
BLACK
6
CONTINUOUS
10
126.689
20
-115.031
11
126.689
21
-115.03
0
LINE
8
BLACK
6
CONTINUOUS
10
126.689
20
-115.03
11
126.688
21
-115.029
0
LINE
8
BLACK
6
CONTINUOUS
10
126.688
20
-115.029
11
126.688
21
-115.023
0
LINE
8
BLACK
6
CONTINUOUS
10
126.688
20
-115.023
11
126.687
21
-115.017
0
LINE
8
BLACK
6
CONTINUOUS
10
126.687
20
-115.017
11
126.687
21
-115.015
0
LINE
8
BLACK
6
CONTINUOUS
10
126.687
20
-115.015
11
126.687
21
-115.014
0
LINE
8
BLACK
6
CONTINUOUS
10
126.687
20
-115.014
11
126.687
21
-114.681
0
LINE
8
BLACK
6
CONTINUOUS
10
126.687
20
-114.681
11
126.687
21
-114.68
0
LINE
8
BLACK
6
CONTINUOUS
10
126.687
20
-114.68
11
126.687
21
-114.678
0
LINE
8
BLACK
6
CONTINUOUS
10
126.687
20
-114.678
11
126.687
21
-114.677
0
LINE
8
BLACK
6
CONTINUOUS
10
126.687
20
-114.677
11
126.688
21
-114.671
0
LINE
8
BLACK
6
CONTINUOUS
10
126.688
20
-114.671
11
126.688
21
-114.665
0
LINE
8
BLACK
6
CONTINUOUS
10
126.688
20
-114.665
11
126.689
21
-114.664
0
LINE
8
BLACK
6
CONTINUOUS
10
126.689
20
-114.664
11
126.689
21
-114.663
0
LINE
8
BLACK
6
CONTINUOUS
10
126.689
20
-114.663
11
126.737
21
-114.472
0
LINE
8
BLACK
6
CONTINUOUS
10
126.737
20
-114.472
11
126.737
21
-114.471
0
LINE
8
BLACK
6
CONTINUOUS
10
126.737
20
-114.471
11
126.739
21
-114.466
0
LINE
8
BLACK
6
CONTINUOUS
10
126.739
20
-114.466
11
126.74
21
-114.461
0
LINE
8
BLACK
6
CONTINUOUS
10
126.74
20
-114.461
11
126.741
21
-114.459
0
LINE
8
BLACK
6
CONTINUOUS
10
126.741
20
-114.459
11
126.742
21
-114.457
0
LINE
8
BLACK
6
CONTINUOUS
10
126.742
20
-114.457
11
126.745
21
-114.453
0
LINE
8
BLACK
6
CONTINUOUS
10
126.745
20
-114.453
11
126.747
21
-114.449
0
LINE
8
BLACK
6
CONTINUOUS
10
126.747
20
-114.449
11
126.749
21
-114.447
0
LINE
8
BLACK
6
CONTINUOUS
10
126.749
20
-114.447
11
126.75
21
-114.445
0
LINE
8
BLACK
6
CONTINUOUS
10
126.75
20
-114.445
11
126.753
21
-114.441
0
LINE
8
BLACK
6
CONTINUOUS
10
126.753
20
-114.441
11
126.756
21
-114.437
0
LINE
8
BLACK
6
CONTINUOUS
10
126.756
20
-114.437
11
126.852
21
-114.342
0
LINE
8
BLACK
6
CONTINUOUS
10
126.852
20
-114.342
11
126.852
21
-114.341
0
LINE
8
BLACK
6
CONTINUOUS
10
126.852
20
-114.341
11
126.856
21
-114.339
0
LINE
8
BLACK
6
CONTINUOUS
10
126.856
20
-114.339
11
126.859
21
-114.336
0
LINE
8
BLACK
6
CONTINUOUS
10
126.859
20
-114.336
11
126.861
21
-114.334
0
LINE
8
BLACK
6
CONTINUOUS
10
126.861
20
-114.334
11
126.864
21
-114.332
0
LINE
8
BLACK
6
CONTINUOUS
10
126.864
20
-114.332
11
126.868
21
-114.33
0
LINE
8
BLACK
6
CONTINUOUS
10
126.868
20
-114.33
11
126.871
21
-114.328
0
LINE
8
BLACK
6
CONTINUOUS
10
126.871
20
-114.328
11
126.966
21
-114.28
0
LINE
8
BLACK
6
CONTINUOUS
10
126.966
20
-114.28
11
126.967
21
-114.28
0
LINE
8
BLACK
6
CONTINUOUS
10
126.967
20
-114.28
11
126.969
21
-114.279
0
LINE
8
BLACK
6
CONTINUOUS
10
126.969
20
-114.279
11
126.971
21
-114.278
0
LINE
8
BLACK
6
CONTINUOUS
10
126.971
20
-114.278
11
126.976
21
-114.277
0
LINE
8
BLACK
6
CONTINUOUS
10
126.976
20
-114.277
11
126.981
21
-114.275
0
LINE
8
BLACK
6
CONTINUOUS
10
126.981
20
-114.275
11
126.983
21
-114.274
0
LINE
8
BLACK
6
CONTINUOUS
10
126.983
20
-114.274
11
126.985
21
-114.274
0
LINE
8
BLACK
6
CONTINUOUS
10
126.985
20
-114.274
11
126.99
21
-114.273
0
LINE
8
BLACK
6
CONTINUOUS
10
126.99
20
-114.273
11
126.996
21
-114.273
0
LINE
8
BLACK
6
CONTINUOUS
10
126.996
20
-114.273
11
126.998
21
-114.273
0
LINE
8
BLACK
6
CONTINUOUS
10
126.998
20
-114.273
11
127
21
-114.272
0
LINE
8
BLACK
6
CONTINUOUS
10
127
20
-114.272
11
127.19
21
-114.272
0
LINE
8
BLACK
6
CONTINUOUS
10
127.19
20
-114.272
11
127.191
21
-114.272
0
LINE
8
BLACK
6
CONTINUOUS
10
127.018
20
-114.422
11
126.949
21
-114.457
0
LINE
8
BLACK
6
CONTINUOUS
10
126.949
20
-114.457
11
126.877
21
-114.529
0
LINE
8
BLACK
6
CONTINUOUS
10
126.877
20
-114.529
11
126.837
21
-114.69
0
LINE
8
BLACK
6
CONTINUOUS
10
126.837
20
-114.69
11
126.837
21
-115.005
0
LINE
8
BLACK
6
CONTINUOUS
10
126.837
20
-115.005
11
126.877
21
-115.166
0
LINE
8
BLACK
6
CONTINUOUS
10
126.877
20
-115.166
11
126.905
21
-115.194
0
LINE
8
BLACK
6
CONTINUOUS
10
126.905
20
-115.194
11
126.995
21
-115.104
0
LINE
8
BLACK
6
CONTINUOUS
10
126.995
20
-115.104
11
126.995
21
-115.103
0
LINE
8
BLACK
6
CONTINUOUS
10
126.995
20
-115.103
11
126.999
21
-115.101
0
LINE
8
BLACK
6
CONTINUOUS
10
126.999
20
-115.101
11
127.002
21
-115.098
0
LINE
8
BLACK
6
CONTINUOUS
10
127.002
20
-115.098
11
127.004
21
-115.096
0
LINE
8
BLACK
6
CONTINUOUS
10
127.004
20
-115.096
11
127.007
21
-115.094
0
LINE
8
BLACK
6
CONTINUOUS
10
127.007
20
-115.094
11
127.01
21
-115.092
0
LINE
8
BLACK
6
CONTINUOUS
10
127.01
20
-115.092
11
127.014
21
-115.09
0
LINE
8
BLACK
6
CONTINUOUS
10
127.014
20
-115.09
11
127.109
21
-115.042
0
LINE
8
BLACK
6
CONTINUOUS
10
127.109
20
-115.042
11
127.11
21
-115.042
0
LINE
8
BLACK
6
CONTINUOUS
10
127.11
20
-115.042
11
127.112
21
-115.041
0
LINE
8
BLACK
6
CONTINUOUS
10
127.112
20
-115.041
11
127.114
21
-115.04
0
LINE
8
BLACK
6
CONTINUOUS
10
127.114
20
-115.04
11
127.119
21
-115.038
0
LINE
8
BLACK
6
CONTINUOUS
10
127.119
20
-115.038
11
127.124
21
-115.037
0
LINE
8
BLACK
6
CONTINUOUS
10
127.124
20
-115.037
11
127.126
21
-115.036
0
LINE
8
BLACK
6
CONTINUOUS
10
127.126
20
-115.036
11
127.128
21
-115.036
0
LINE
8
BLACK
6
CONTINUOUS
10
127.128
20
-115.036
11
127.133
21
-115.035
0
LINE
8
BLACK
6
CONTINUOUS
10
127.133
20
-115.035
11
127.138
21
-115.034
0
LINE
8
BLACK
6
CONTINUOUS
10
127.138
20
-115.034
11
127.141
21
-115.034
0
LINE
8
BLACK
6
CONTINUOUS
10
127.141
20
-115.034
11
127.143
21
-115.034
0
LINE
8
BLACK
6
CONTINUOUS
10
127.143
20
-115.034
11
127.238
21
-115.034
0
LINE
8
BLACK
6
CONTINUOUS
10
127.238
20
-115.034
11
127.239
21
-115.034
0
LINE
8
BLACK
6
CONTINUOUS
10
127.239
20
-115.034
11
127.254
21
-115.036
0
LINE
8
BLACK
6
CONTINUOUS
10
127.254
20
-115.036
11
127.268
21
-115.04
0
LINE
8
BLACK
6
CONTINUOUS
10
127.268
20
-115.04
11
127.28
21
-115.047
0
LINE
8
BLACK
6
CONTINUOUS
10
127.28
20
-115.047
11
127.292
21
-115.057
0
LINE
8
BLACK
6
CONTINUOUS
10
127.292
20
-115.057
11
127.301
21
-115.068
0
LINE
8
BLACK
6
CONTINUOUS
10
127.301
20
-115.068
11
127.308
21
-115.081
0
LINE
8
BLACK
6
CONTINUOUS
10
127.308
20
-115.081
11
127.312
21
-115.095
0
LINE
8
BLACK
6
CONTINUOUS
10
127.312
20
-115.095
11
127.313
21
-115.11
0
LINE
8
BLACK
6
CONTINUOUS
10
127.313
20
-115.11
11
127.312
21
-115.124
0
LINE
8
BLACK
6
CONTINUOUS
10
127.312
20
-115.124
11
127.307
21
-115.138
0
LINE
8
BLACK
6
CONTINUOUS
10
127.307
20
-115.138
11
127.3
21
-115.151
0
LINE
8
BLACK
6
CONTINUOUS
10
127.3
20
-115.151
11
127.291
21
-115.163
0
LINE
8
BLACK
6
CONTINUOUS
10
127.291
20
-115.163
11
127.28
21
-115.172
0
LINE
8
BLACK
6
CONTINUOUS
10
127.28
20
-115.172
11
127.267
21
-115.179
0
LINE
8
BLACK
6
CONTINUOUS
10
127.267
20
-115.179
11
127.253
21
-115.183
0
LINE
8
BLACK
6
CONTINUOUS
10
127.253
20
-115.183
11
127.238
21
-115.184
0
LINE
8
BLACK
6
CONTINUOUS
10
127.238
20
-115.184
11
127.161
21
-115.184
0
LINE
8
BLACK
6
CONTINUOUS
10
127.161
20
-115.184
11
127.092
21
-115.219
0
LINE
8
BLACK
6
CONTINUOUS
10
127.092
20
-115.219
11
127.038
21
-115.272
0
LINE
8
BLACK
6
CONTINUOUS
10
127.038
20
-115.272
11
127.173
21
-115.272
0
LINE
8
BLACK
6
CONTINUOUS
10
127.173
20
-115.272
11
127.241
21
-115.238
0
LINE
8
BLACK
6
CONTINUOUS
10
127.241
20
-115.238
11
127.313
21
-115.166
0
LINE
8
BLACK
6
CONTINUOUS
10
127.313
20
-115.166
11
127.354
21
-115.005
0
LINE
8
BLACK
6
CONTINUOUS
10
127.354
20
-115.005
11
127.354
21
-114.69
0
LINE
8
BLACK
6
CONTINUOUS
10
127.354
20
-114.69
11
127.313
21
-114.529
0
LINE
8
BLACK
6
CONTINUOUS
10
127.313
20
-114.529
11
127.241
21
-114.457
0
LINE
8
BLACK
6
CONTINUOUS
10
127.241
20
-114.457
11
127.173
21
-114.422
0
LINE
8
BLACK
6
CONTINUOUS
10
127.173
20
-114.422
11
127.018
21
-114.422
0
LINE
8
BLACK
6
CONTINUOUS
10
126.096
20
-114.272
11
126.096
21
-114.272
0
LINE
8
BLACK
6
CONTINUOUS
10
126.096
20
-114.272
11
126.103
21
-114.273
0
LINE
8
BLACK
6
CONTINUOUS
10
126.103
20
-114.273
11
126.11
21
-114.274
0
LINE
8
BLACK
6
CONTINUOUS
10
126.11
20
-114.274
11
126.11
21
-114.274
0
LINE
8
BLACK
6
CONTINUOUS
10
126.11
20
-114.274
11
126.11
21
-114.274
0
LINE
8
BLACK
6
CONTINUOUS
10
126.11
20
-114.274
11
126.117
21
-114.276
0
LINE
8
BLACK
6
CONTINUOUS
10
126.117
20
-114.276
11
126.124
21
-114.278
0
LINE
8
BLACK
6
CONTINUOUS
10
126.124
20
-114.278
11
126.124
21
-114.278
0
LINE
8
BLACK
6
CONTINUOUS
10
126.124
20
-114.278
11
126.124
21
-114.278
0
LINE
8
BLACK
6
CONTINUOUS
10
126.124
20
-114.278
11
126.131
21
-114.282
0
LINE
8
BLACK
6
CONTINUOUS
10
126.131
20
-114.282
11
126.137
21
-114.285
0
LINE
8
BLACK
6
CONTINUOUS
10
126.137
20
-114.285
11
126.137
21
-114.285
0
LINE
8
BLACK
6
CONTINUOUS
10
126.137
20
-114.285
11
126.137
21
-114.285
0
LINE
8
BLACK
6
CONTINUOUS
10
126.137
20
-114.285
11
126.143
21
-114.29
0
LINE
8
BLACK
6
CONTINUOUS
10
126.143
20
-114.29
11
126.148
21
-114.294
0
LINE
8
BLACK
6
CONTINUOUS
10
126.148
20
-114.294
11
126.148
21
-114.294
0
LINE
8
BLACK
6
CONTINUOUS
10
126.148
20
-114.294
11
126.148
21
-114.295
0
LINE
8
BLACK
6
CONTINUOUS
10
126.148
20
-114.295
11
126.153
21
-114.3
0
LINE
8
BLACK
6
CONTINUOUS
10
126.153
20
-114.3
11
126.158
21
-114.306
0
LINE
8
BLACK
6
CONTINUOUS
10
126.158
20
-114.306
11
126.249
21
-114.442
0
LINE
8
BLACK
6
CONTINUOUS
10
126.249
20
-114.442
11
126.33
21
-114.524
0
LINE
8
BLACK
6
CONTINUOUS
10
126.33
20
-114.524
11
126.414
21
-114.566
0
LINE
8
BLACK
6
CONTINUOUS
10
126.414
20
-114.566
11
126.415
21
-114.566
0
LINE
8
BLACK
6
CONTINUOUS
10
126.415
20
-114.566
11
126.428
21
-114.574
0
LINE
8
BLACK
6
CONTINUOUS
10
126.428
20
-114.574
11
126.438
21
-114.585
0
LINE
8
BLACK
6
CONTINUOUS
10
126.438
20
-114.585
11
126.446
21
-114.597
0
LINE
8
BLACK
6
CONTINUOUS
10
126.446
20
-114.597
11
126.452
21
-114.61
0
LINE
8
BLACK
6
CONTINUOUS
10
126.452
20
-114.61
11
126.455
21
-114.624
0
LINE
8
BLACK
6
CONTINUOUS
10
126.455
20
-114.624
11
126.456
21
-114.639
0
LINE
8
BLACK
6
CONTINUOUS
10
126.456
20
-114.639
11
126.453
21
-114.653
0
LINE
8
BLACK
6
CONTINUOUS
10
126.453
20
-114.653
11
126.448
21
-114.667
0
LINE
8
BLACK
6
CONTINUOUS
10
126.448
20
-114.667
11
126.44
21
-114.679
0
LINE
8
BLACK
6
CONTINUOUS
10
126.44
20
-114.679
11
126.43
21
-114.69
0
LINE
8
BLACK
6
CONTINUOUS
10
126.43
20
-114.69
11
126.418
21
-114.698
0
LINE
8
BLACK
6
CONTINUOUS
10
126.418
20
-114.698
11
126.404
21
-114.704
0
LINE
8
BLACK
6
CONTINUOUS
10
126.404
20
-114.704
11
126.39
21
-114.708
0
LINE
8
BLACK
6
CONTINUOUS
10
126.39
20
-114.708
11
126.375
21
-114.708
0
LINE
8
BLACK
6
CONTINUOUS
10
126.375
20
-114.708
11
126.361
21
-114.705
0
LINE
8
BLACK
6
CONTINUOUS
10
126.361
20
-114.705
11
126.347
21
-114.7
0
LINE
8
BLACK
6
CONTINUOUS
10
126.347
20
-114.7
11
126.252
21
-114.653
0
LINE
8
BLACK
6
CONTINUOUS
10
126.252
20
-114.653
11
126.251
21
-114.652
0
LINE
8
BLACK
6
CONTINUOUS
10
126.251
20
-114.652
11
126.248
21
-114.65
0
LINE
8
BLACK
6
CONTINUOUS
10
126.248
20
-114.65
11
126.244
21
-114.648
0
LINE
8
BLACK
6
CONTINUOUS
10
126.244
20
-114.648
11
126.242
21
-114.646
0
LINE
8
BLACK
6
CONTINUOUS
10
126.242
20
-114.646
11
126.239
21
-114.644
0
LINE
8
BLACK
6
CONTINUOUS
10
126.239
20
-114.644
11
126.236
21
-114.641
0
LINE
8
BLACK
6
CONTINUOUS
10
126.236
20
-114.641
11
126.233
21
-114.639
0
LINE
8
BLACK
6
CONTINUOUS
10
126.233
20
-114.639
11
126.17
21
-114.576
0
LINE
8
BLACK
6
CONTINUOUS
10
126.17
20
-114.576
11
126.17
21
-115.272
0
LINE
8
BLACK
6
CONTINUOUS
10
126.17
20
-115.272
11
126.381
21
-115.272
0
LINE
8
BLACK
6
CONTINUOUS
10
126.381
20
-115.272
11
126.382
21
-115.272
0
LINE
8
BLACK
6
CONTINUOUS
10
126.382
20
-115.272
11
126.396
21
-115.274
0
LINE
8
BLACK
6
CONTINUOUS
10
126.396
20
-115.274
11
126.41
21
-115.278
0
LINE
8
BLACK
6
CONTINUOUS
10
126.41
20
-115.278
11
126.423
21
-115.285
0
LINE
8
BLACK
6
CONTINUOUS
10
126.423
20
-115.285
11
126.434
21
-115.295
0
LINE
8
BLACK
6
CONTINUOUS
10
126.434
20
-115.295
11
126.444
21
-115.306
0
LINE
8
BLACK
6
CONTINUOUS
10
126.444
20
-115.306
11
126.45
21
-115.319
0
LINE
8
BLACK
6
CONTINUOUS
10
126.45
20
-115.319
11
126.455
21
-115.333
0
LINE
8
BLACK
6
CONTINUOUS
10
126.455
20
-115.333
11
126.456
21
-115.348
0
LINE
8
BLACK
6
CONTINUOUS
10
126.456
20
-115.348
11
126.454
21
-115.362
0
LINE
8
BLACK
6
CONTINUOUS
10
126.454
20
-115.362
11
126.45
21
-115.376
0
LINE
8
BLACK
6
CONTINUOUS
10
126.45
20
-115.376
11
126.443
21
-115.389
0
LINE
8
BLACK
6
CONTINUOUS
10
126.443
20
-115.389
11
126.434
21
-115.401
0
LINE
8
BLACK
6
CONTINUOUS
10
126.434
20
-115.401
11
126.422
21
-115.41
0
LINE
8
BLACK
6
CONTINUOUS
10
126.422
20
-115.41
11
126.409
21
-115.417
0
LINE
8
BLACK
6
CONTINUOUS
10
126.409
20
-115.417
11
126.395
21
-115.421
0
LINE
8
BLACK
6
CONTINUOUS
10
126.395
20
-115.421
11
126.381
21
-115.422
0
LINE
8
BLACK
6
CONTINUOUS
10
126.381
20
-115.422
11
125.809
21
-115.422
0
LINE
8
BLACK
6
CONTINUOUS
10
125.809
20
-115.422
11
125.808
21
-115.422
0
LINE
8
BLACK
6
CONTINUOUS
10
125.808
20
-115.422
11
125.794
21
-115.421
0
LINE
8
BLACK
6
CONTINUOUS
10
125.794
20
-115.421
11
125.78
21
-115.416
0
LINE
8
BLACK
6
CONTINUOUS
10
125.78
20
-115.416
11
125.767
21
-115.409
0
LINE
8
BLACK
6
CONTINUOUS
10
125.767
20
-115.409
11
125.756
21
-115.4
0
LINE
8
BLACK
6
CONTINUOUS
10
125.756
20
-115.4
11
125.747
21
-115.388
0
LINE
8
BLACK
6
CONTINUOUS
10
125.747
20
-115.388
11
125.74
21
-115.375
0
LINE
8
BLACK
6
CONTINUOUS
10
125.74
20
-115.375
11
125.736
21
-115.361
0
LINE
8
BLACK
6
CONTINUOUS
10
125.736
20
-115.361
11
125.734
21
-115.347
0
LINE
8
BLACK
6
CONTINUOUS
10
125.734
20
-115.347
11
125.736
21
-115.332
0
LINE
8
BLACK
6
CONTINUOUS
10
125.736
20
-115.332
11
125.74
21
-115.318
0
LINE
8
BLACK
6
CONTINUOUS
10
125.74
20
-115.318
11
125.747
21
-115.305
0
LINE
8
BLACK
6
CONTINUOUS
10
125.747
20
-115.305
11
125.757
21
-115.294
0
LINE
8
BLACK
6
CONTINUOUS
10
125.757
20
-115.294
11
125.768
21
-115.285
0
LINE
8
BLACK
6
CONTINUOUS
10
125.768
20
-115.285
11
125.781
21
-115.278
0
LINE
8
BLACK
6
CONTINUOUS
10
125.781
20
-115.278
11
125.795
21
-115.274
0
LINE
8
BLACK
6
CONTINUOUS
10
125.795
20
-115.274
11
125.809
21
-115.272
0
LINE
8
BLACK
6
CONTINUOUS
10
125.809
20
-115.272
11
126.02
21
-115.272
0
LINE
8
BLACK
6
CONTINUOUS
10
126.02
20
-115.272
11
126.02
21
-114.347
0
LINE
8
BLACK
6
CONTINUOUS
10
126.02
20
-114.347
11
126.02
21
-114.346
0
LINE
8
BLACK
6
CONTINUOUS
10
126.02
20
-114.346
11
126.02
21
-114.346
0
LINE
8
BLACK
6
CONTINUOUS
10
126.02
20
-114.346
11
126.02
21
-114.346
0
LINE
8
BLACK
6
CONTINUOUS
10
126.02
20
-114.346
11
126.02
21
-114.346
0
LINE
8
BLACK
6
CONTINUOUS
10
126.02
20
-114.346
11
126.021
21
-114.339
0
LINE
8
BLACK
6
CONTINUOUS
10
126.021
20
-114.339
11
126.022
21
-114.332
0
LINE
8
BLACK
6
CONTINUOUS
10
126.022
20
-114.332
11
126.022
21
-114.332
0
LINE
8
BLACK
6
CONTINUOUS
10
126.022
20
-114.332
11
126.022
21
-114.332
0
LINE
8
BLACK
6
CONTINUOUS
10
126.022
20
-114.332
11
126.024
21
-114.325
0
LINE
8
BLACK
6
CONTINUOUS
10
126.024
20
-114.325
11
126.026
21
-114.318
0
LINE
8
BLACK
6
CONTINUOUS
10
126.026
20
-114.318
11
126.026
21
-114.318
0
LINE
8
BLACK
6
CONTINUOUS
10
126.026
20
-114.318
11
126.026
21
-114.318
0
LINE
8
BLACK
6
CONTINUOUS
10
126.026
20
-114.318
11
126.03
21
-114.311
0
LINE
8
BLACK
6
CONTINUOUS
10
126.03
20
-114.311
11
126.033
21
-114.305
0
LINE
8
BLACK
6
CONTINUOUS
10
126.033
20
-114.305
11
126.033
21
-114.305
0
LINE
8
BLACK
6
CONTINUOUS
10
126.033
20
-114.305
11
126.033
21
-114.305
0
LINE
8
BLACK
6
CONTINUOUS
10
126.033
20
-114.305
11
126.038
21
-114.299
0
LINE
8
BLACK
6
CONTINUOUS
10
126.038
20
-114.299
11
126.043
21
-114.294
0
LINE
8
BLACK
6
CONTINUOUS
10
126.043
20
-114.294
11
126.043
21
-114.294
0
LINE
8
BLACK
6
CONTINUOUS
10
126.043
20
-114.294
11
126.043
21
-114.294
0
LINE
8
BLACK
6
CONTINUOUS
10
126.043
20
-114.294
11
126.048
21
-114.289
0
LINE
8
BLACK
6
CONTINUOUS
10
126.048
20
-114.289
11
126.054
21
-114.285
0
LINE
8
BLACK
6
CONTINUOUS
10
126.054
20
-114.285
11
126.054
21
-114.285
0
LINE
8
BLACK
6
CONTINUOUS
10
126.054
20
-114.285
11
126.054
21
-114.285
0
LINE
8
BLACK
6
CONTINUOUS
10
126.054
20
-114.285
11
126.06
21
-114.281
0
LINE
8
BLACK
6
CONTINUOUS
10
126.06
20
-114.281
11
126.067
21
-114.278
0
LINE
8
BLACK
6
CONTINUOUS
10
126.067
20
-114.278
11
126.067
21
-114.278
0
LINE
8
BLACK
6
CONTINUOUS
10
126.067
20
-114.278
11
126.067
21
-114.278
0
LINE
8
BLACK
6
CONTINUOUS
10
126.067
20
-114.278
11
126.074
21
-114.276
0
LINE
8
BLACK
6
CONTINUOUS
10
126.074
20
-114.276
11
126.081
21
-114.274
0
LINE
8
BLACK
6
CONTINUOUS
10
126.081
20
-114.274
11
126.081
21
-114.274
0
LINE
8
BLACK
6
CONTINUOUS
10
126.081
20
-114.274
11
126.081
21
-114.274
0
LINE
8
BLACK
6
CONTINUOUS
10
126.081
20
-114.274
11
126.088
21
-114.273
0
LINE
8
BLACK
6
CONTINUOUS
10
126.088
20
-114.273
11
126.096
21
-114.272
0
LINE
8
BLACK
6
CONTINUOUS
10
126.096
20
-114.272
11
126.096
21
-114.272
0
LINE
8
BLACK
6
CONTINUOUS
10
127.391
20
-112.986
11
127.402
21
-112.989
0
LINE
8
BLACK
6
CONTINUOUS
10
127.402
20
-112.989
11
127.412
21
-112.995
0
LINE
8
BLACK
6
CONTINUOUS
10
127.412
20
-112.995
11
127.422
21
-113.002
0
LINE
8
BLACK
6
CONTINUOUS
10
127.422
20
-113.002
11
127.429
21
-113.012
0
LINE
8
BLACK
6
CONTINUOUS
10
127.429
20
-113.012
11
127.435
21
-113.022
0
LINE
8
BLACK
6
CONTINUOUS
10
127.435
20
-113.022
11
127.438
21
-113.033
0
LINE
8
BLACK
6
CONTINUOUS
10
127.438
20
-113.033
11
127.439
21
-113.042
0
LINE
8
BLACK
6
CONTINUOUS
10
127.439
20
-113.042
11
127.439
21
-113.972
0
LINE
8
BLACK
6
CONTINUOUS
10
127.439
20
-113.972
11
127.439
21
-113.975
0
LINE
8
BLACK
6
CONTINUOUS
10
127.439
20
-113.975
11
127.438
21
-113.987
0
LINE
8
BLACK
6
CONTINUOUS
10
127.438
20
-113.987
11
127.435
21
-113.998
0
LINE
8
BLACK
6
CONTINUOUS
10
127.435
20
-113.998
11
127.429
21
-114.008
0
LINE
8
BLACK
6
CONTINUOUS
10
127.429
20
-114.008
11
127.422
21
-114.018
0
LINE
8
BLACK
6
CONTINUOUS
10
127.422
20
-114.018
11
127.412
21
-114.025
0
LINE
8
BLACK
6
CONTINUOUS
10
127.412
20
-114.025
11
127.402
21
-114.031
0
LINE
8
BLACK
6
CONTINUOUS
10
127.402
20
-114.031
11
127.391
21
-114.034
0
LINE
8
BLACK
6
CONTINUOUS
10
127.391
20
-114.034
11
127.382
21
-114.035
0
LINE
8
BLACK
6
CONTINUOUS
10
127.382
20
-114.035
11
127.382
21
-114.035
0
LINE
8
BLACK
6
CONTINUOUS
10
127.382
20
-114.035
11
127.379
21
-114.035
0
LINE
8
BLACK
6
CONTINUOUS
10
127.379
20
-114.035
11
127.376
21
-114.035
0
LINE
8
BLACK
6
CONTINUOUS
10
127.376
20
-114.035
11
125.216
21
-114.035
0
LINE
8
BLACK
6
CONTINUOUS
10
125.216
20
-114.035
11
125.207
21
-114.034
0
LINE
8
BLACK
6
CONTINUOUS
10
125.207
20
-114.034
11
125.196
21
-114.031
0
LINE
8
BLACK
6
CONTINUOUS
10
125.196
20
-114.031
11
125.186
21
-114.025
0
LINE
8
BLACK
6
CONTINUOUS
10
125.186
20
-114.025
11
125.176
21
-114.018
0
LINE
8
BLACK
6
CONTINUOUS
10
125.176
20
-114.018
11
125.169
21
-114.008
0
LINE
8
BLACK
6
CONTINUOUS
10
125.169
20
-114.008
11
125.163
21
-113.998
0
LINE
8
BLACK
6
CONTINUOUS
10
125.163
20
-113.998
11
125.16
21
-113.987
0
LINE
8
BLACK
6
CONTINUOUS
10
125.16
20
-113.987
11
125.159
21
-113.975
0
LINE
8
BLACK
6
CONTINUOUS
10
125.159
20
-113.975
11
125.16
21
-113.963
0
LINE
8
BLACK
6
CONTINUOUS
10
125.16
20
-113.963
11
125.163
21
-113.952
0
LINE
8
BLACK
6
CONTINUOUS
10
125.163
20
-113.952
11
125.169
21
-113.942
0
LINE
8
BLACK
6
CONTINUOUS
10
125.169
20
-113.942
11
125.176
21
-113.932
0
LINE
8
BLACK
6
CONTINUOUS
10
125.176
20
-113.932
11
125.186
21
-113.925
0
LINE
8
BLACK
6
CONTINUOUS
10
125.186
20
-113.925
11
125.196
21
-113.919
0
LINE
8
BLACK
6
CONTINUOUS
10
125.196
20
-113.919
11
125.207
21
-113.916
0
LINE
8
BLACK
6
CONTINUOUS
10
125.207
20
-113.916
11
125.216
21
-113.915
0
LINE
8
BLACK
6
CONTINUOUS
10
125.216
20
-113.915
11
127.319
21
-113.915
0
LINE
8
BLACK
6
CONTINUOUS
10
127.319
20
-113.915
11
127.319
21
-113.042
0
LINE
8
BLACK
6
CONTINUOUS
10
127.319
20
-113.042
11
127.32
21
-113.033
0
LINE
8
BLACK
6
CONTINUOUS
10
127.32
20
-113.033
11
127.323
21
-113.022
0
LINE
8
BLACK
6
CONTINUOUS
10
127.323
20
-113.022
11
127.329
21
-113.012
0
LINE
8
BLACK
6
CONTINUOUS
10
127.329
20
-113.012
11
127.336
21
-113.002
0
LINE
8
BLACK
6
CONTINUOUS
10
127.336
20
-113.002
11
127.346
21
-112.995
0
LINE
8
BLACK
6
CONTINUOUS
10
127.346
20
-112.995
11
127.356
21
-112.989
0
LINE
8
BLACK
6
CONTINUOUS
10
127.356
20
-112.989
11
127.367
21
-112.986
0
LINE
8
BLACK
6
CONTINUOUS
10
127.367
20
-112.986
11
127.379
21
-112.985
0
LINE
8
BLACK
6
CONTINUOUS
10
127.379
20
-112.985
11
127.391
21
-112.986
0
LINE
8
BLACK
6
CONTINUOUS
10
127.382
20
-110.755
11
127.382
21
-110.755
0
LINE
8
BLACK
6
CONTINUOUS
10
127.382
20
-110.755
11
127.391
21
-110.756
0
LINE
8
BLACK
6
CONTINUOUS
10
127.391
20
-110.756
11
127.402
21
-110.759
0
LINE
8
BLACK
6
CONTINUOUS
10
127.402
20
-110.759
11
127.412
21
-110.765
0
LINE
8
BLACK
6
CONTINUOUS
10
127.412
20
-110.765
11
127.422
21
-110.772
0
LINE
8
BLACK
6
CONTINUOUS
10
127.422
20
-110.772
11
127.429
21
-110.782
0
LINE
8
BLACK
6
CONTINUOUS
10
127.429
20
-110.782
11
127.435
21
-110.792
0
LINE
8
BLACK
6
CONTINUOUS
10
127.435
20
-110.792
11
127.438
21
-110.803
0
LINE
8
BLACK
6
CONTINUOUS
10
127.438
20
-110.803
11
127.439
21
-110.815
0
LINE
8
BLACK
6
CONTINUOUS
10
127.439
20
-110.815
11
127.439
21
-110.818
0
LINE
8
BLACK
6
CONTINUOUS
10
127.439
20
-110.818
11
127.439
21
-111.748
0
LINE
8
BLACK
6
CONTINUOUS
10
127.439
20
-111.748
11
127.438
21
-111.757
0
LINE
8
BLACK
6
CONTINUOUS
10
127.438
20
-111.757
11
127.435
21
-111.768
0
LINE
8
BLACK
6
CONTINUOUS
10
127.435
20
-111.768
11
127.429
21
-111.778
0
LINE
8
BLACK
6
CONTINUOUS
10
127.429
20
-111.778
11
127.422
21
-111.788
0
LINE
8
BLACK
6
CONTINUOUS
10
127.422
20
-111.788
11
127.412
21
-111.795
0
LINE
8
BLACK
6
CONTINUOUS
10
127.412
20
-111.795
11
127.402
21
-111.801
0
LINE
8
BLACK
6
CONTINUOUS
10
127.402
20
-111.801
11
127.391
21
-111.804
0
LINE
8
BLACK
6
CONTINUOUS
10
127.391
20
-111.804
11
127.379
21
-111.805
0
LINE
8
BLACK
6
CONTINUOUS
10
127.379
20
-111.805
11
127.367
21
-111.804
0
LINE
8
BLACK
6
CONTINUOUS
10
127.367
20
-111.804
11
127.356
21
-111.801
0
LINE
8
BLACK
6
CONTINUOUS
10
127.356
20
-111.801
11
127.346
21
-111.795
0
LINE
8
BLACK
6
CONTINUOUS
10
127.346
20
-111.795
11
127.336
21
-111.788
0
LINE
8
BLACK
6
CONTINUOUS
10
127.336
20
-111.788
11
127.329
21
-111.778
0
LINE
8
BLACK
6
CONTINUOUS
10
127.329
20
-111.778
11
127.323
21
-111.768
0
LINE
8
BLACK
6
CONTINUOUS
10
127.323
20
-111.768
11
127.32
21
-111.757
0
LINE
8
BLACK
6
CONTINUOUS
10
127.32
20
-111.757
11
127.319
21
-111.748
0
LINE
8
BLACK
6
CONTINUOUS
10
127.319
20
-111.748
11
127.319
21
-110.875
0
LINE
8
BLACK
6
CONTINUOUS
10
127.319
20
-110.875
11
125.916
21
-110.875
0
LINE
8
BLACK
6
CONTINUOUS
10
125.916
20
-110.875
11
125.907
21
-110.874
0
LINE
8
BLACK
6
CONTINUOUS
10
125.907
20
-110.874
11
125.896
21
-110.871
0
LINE
8
BLACK
6
CONTINUOUS
10
125.896
20
-110.871
11
125.886
21
-110.865
0
LINE
8
BLACK
6
CONTINUOUS
10
125.886
20
-110.865
11
125.876
21
-110.858
0
LINE
8
BLACK
6
CONTINUOUS
10
125.876
20
-110.858
11
125.869
21
-110.848
0
LINE
8
BLACK
6
CONTINUOUS
10
125.869
20
-110.848
11
125.863
21
-110.838
0
LINE
8
BLACK
6
CONTINUOUS
10
125.863
20
-110.838
11
125.86
21
-110.827
0
LINE
8
BLACK
6
CONTINUOUS
10
125.86
20
-110.827
11
125.859
21
-110.815
0
LINE
8
BLACK
6
CONTINUOUS
10
125.859
20
-110.815
11
125.86
21
-110.803
0
LINE
8
BLACK
6
CONTINUOUS
10
125.86
20
-110.803
11
125.863
21
-110.792
0
LINE
8
BLACK
6
CONTINUOUS
10
125.863
20
-110.792
11
125.869
21
-110.782
0
LINE
8
BLACK
6
CONTINUOUS
10
125.869
20
-110.782
11
125.876
21
-110.772
0
LINE
8
BLACK
6
CONTINUOUS
10
125.876
20
-110.772
11
125.886
21
-110.765
0
LINE
8
BLACK
6
CONTINUOUS
10
125.886
20
-110.765
11
125.896
21
-110.759
0
LINE
8
BLACK
6
CONTINUOUS
10
125.896
20
-110.759
11
125.907
21
-110.756
0
LINE
8
BLACK
6
CONTINUOUS
10
125.907
20
-110.756
11
125.916
21
-110.755
0
LINE
8
BLACK
6
CONTINUOUS
10
125.916
20
-110.755
11
127.376
21
-110.755
0
LINE
8
BLACK
6
CONTINUOUS
10
127.376
20
-110.755
11
127.379
21
-110.755
0
LINE
8
BLACK
6
CONTINUOUS
10
127.379
20
-110.755
11
127.382
21
-110.755
0
LINE
8
BLACK
6
CONTINUOUS
10
162.834
20
-102.027
11
162.849
21
-102.029
0
LINE
8
BLACK
6
CONTINUOUS
10
162.849
20
-102.029
11
162.863
21
-102.033
0
LINE
8
BLACK
6
CONTINUOUS
10
162.863
20
-102.033
11
162.876
21
-102.04
0
LINE
8
BLACK
6
CONTINUOUS
10
162.876
20
-102.04
11
162.887
21
-102.05
0
LINE
8
BLACK
6
CONTINUOUS
10
162.887
20
-102.05
11
162.896
21
-102.061
0
LINE
8
BLACK
6
CONTINUOUS
10
162.896
20
-102.061
11
162.903
21
-102.074
0
LINE
8
BLACK
6
CONTINUOUS
10
162.903
20
-102.074
11
162.907
21
-102.088
0
LINE
8
BLACK
6
CONTINUOUS
10
162.907
20
-102.088
11
162.908
21
-102.103
0
LINE
8
BLACK
6
CONTINUOUS
10
162.908
20
-102.103
11
162.907
21
-102.117
0
LINE
8
BLACK
6
CONTINUOUS
10
162.907
20
-102.117
11
162.902
21
-102.131
0
LINE
8
BLACK
6
CONTINUOUS
10
162.902
20
-102.131
11
162.896
21
-102.144
0
LINE
8
BLACK
6
CONTINUOUS
10
162.896
20
-102.144
11
162.886
21
-102.156
0
LINE
8
BLACK
6
CONTINUOUS
10
162.886
20
-102.156
11
162.875
21
-102.165
0
LINE
8
BLACK
6
CONTINUOUS
10
162.875
20
-102.165
11
162.862
21
-102.172
0
LINE
8
BLACK
6
CONTINUOUS
10
162.862
20
-102.172
11
162.848
21
-102.176
0
LINE
8
BLACK
6
CONTINUOUS
10
162.848
20
-102.176
11
162.833
21
-102.177
0
LINE
8
BLACK
6
CONTINUOUS
10
162.833
20
-102.177
11
162.38
21
-102.177
0
LINE
8
BLACK
6
CONTINUOUS
10
162.38
20
-102.177
11
162.604
21
-102.434
0
LINE
8
BLACK
6
CONTINUOUS
10
162.604
20
-102.434
11
162.605
21
-102.435
0
LINE
8
BLACK
6
CONTINUOUS
10
162.605
20
-102.435
11
162.607
21
-102.439
0
LINE
8
BLACK
6
CONTINUOUS
10
162.607
20
-102.439
11
162.61
21
-102.442
0
LINE
8
BLACK
6
CONTINUOUS
10
162.61
20
-102.442
11
162.612
21
-102.445
0
LINE
8
BLACK
6
CONTINUOUS
10
162.612
20
-102.445
11
162.613
21
-102.447
0
LINE
8
BLACK
6
CONTINUOUS
10
162.613
20
-102.447
11
162.615
21
-102.451
0
LINE
8
BLACK
6
CONTINUOUS
10
162.615
20
-102.451
11
162.617
21
-102.455
0
LINE
8
BLACK
6
CONTINUOUS
10
162.617
20
-102.455
11
162.618
21
-102.458
0
LINE
8
BLACK
6
CONTINUOUS
10
162.618
20
-102.458
11
162.619
21
-102.46
0
LINE
8
BLACK
6
CONTINUOUS
10
162.619
20
-102.46
11
162.62
21
-102.465
0
LINE
8
BLACK
6
CONTINUOUS
10
162.62
20
-102.465
11
162.621
21
-102.469
0
LINE
8
BLACK
6
CONTINUOUS
10
162.621
20
-102.469
11
162.622
21
-102.472
0
LINE
8
BLACK
6
CONTINUOUS
10
162.622
20
-102.472
11
162.622
21
-102.474
0
LINE
8
BLACK
6
CONTINUOUS
10
162.622
20
-102.474
11
162.622
21
-102.479
0
LINE
8
BLACK
6
CONTINUOUS
10
162.622
20
-102.479
11
162.623
21
-102.484
0
LINE
8
BLACK
6
CONTINUOUS
10
162.623
20
-102.484
11
162.622
21
-102.486
0
LINE
8
BLACK
6
CONTINUOUS
10
162.622
20
-102.486
11
162.622
21
-102.489
0
LINE
8
BLACK
6
CONTINUOUS
10
162.622
20
-102.489
11
162.622
21
-102.494
0
LINE
8
BLACK
6
CONTINUOUS
10
162.622
20
-102.494
11
162.621
21
-102.498
0
LINE
8
BLACK
6
CONTINUOUS
10
162.621
20
-102.498
11
162.62
21
-102.501
0
LINE
8
BLACK
6
CONTINUOUS
10
162.62
20
-102.501
11
162.62
21
-102.504
0
LINE
8
BLACK
6
CONTINUOUS
10
162.62
20
-102.504
11
162.618
21
-102.508
0
LINE
8
BLACK
6
CONTINUOUS
10
162.618
20
-102.508
11
162.617
21
-102.512
0
LINE
8
BLACK
6
CONTINUOUS
10
162.617
20
-102.512
11
162.616
21
-102.515
0
LINE
8
BLACK
6
CONTINUOUS
10
162.616
20
-102.515
11
162.615
21
-102.517
0
LINE
8
BLACK
6
CONTINUOUS
10
162.615
20
-102.517
11
162.612
21
-102.521
0
LINE
8
BLACK
6
CONTINUOUS
10
162.612
20
-102.521
11
162.61
21
-102.525
0
LINE
8
BLACK
6
CONTINUOUS
10
162.61
20
-102.525
11
162.608
21
-102.527
0
LINE
8
BLACK
6
CONTINUOUS
10
162.608
20
-102.527
11
162.607
21
-102.53
0
LINE
8
BLACK
6
CONTINUOUS
10
162.607
20
-102.53
11
162.603
21
-102.533
0
LINE
8
BLACK
6
CONTINUOUS
10
162.603
20
-102.533
11
162.6
21
-102.537
0
LINE
8
BLACK
6
CONTINUOUS
10
162.6
20
-102.537
11
162.598
21
-102.538
0
LINE
8
BLACK
6
CONTINUOUS
10
162.598
20
-102.538
11
162.597
21
-102.54
0
LINE
8
BLACK
6
CONTINUOUS
10
162.597
20
-102.54
11
162.593
21
-102.543
0
LINE
8
BLACK
6
CONTINUOUS
10
162.593
20
-102.543
11
162.589
21
-102.546
0
LINE
8
BLACK
6
CONTINUOUS
10
162.589
20
-102.546
11
162.587
21
-102.547
0
LINE
8
BLACK
6
CONTINUOUS
10
162.587
20
-102.547
11
162.585
21
-102.549
0
LINE
8
BLACK
6
CONTINUOUS
10
162.585
20
-102.549
11
162.58
21
-102.55
0
LINE
8
BLACK
6
CONTINUOUS
10
162.58
20
-102.55
11
162.576
21
-102.553
0
LINE
8
BLACK
6
CONTINUOUS
10
162.576
20
-102.553
11
162.574
21
-102.553
0
LINE
8
BLACK
6
CONTINUOUS
10
162.574
20
-102.553
11
162.571
21
-102.555
0
LINE
8
BLACK
6
CONTINUOUS
10
162.571
20
-102.555
11
162.567
21
-102.556
0
LINE
8
BLACK
6
CONTINUOUS
10
162.567
20
-102.556
11
162.562
21
-102.557
0
LINE
8
BLACK
6
CONTINUOUS
10
162.562
20
-102.557
11
162.56
21
-102.557
0
LINE
8
BLACK
6
CONTINUOUS
10
162.56
20
-102.557
11
162.557
21
-102.558
0
LINE
8
BLACK
6
CONTINUOUS
10
162.557
20
-102.558
11
162.552
21
-102.558
0
LINE
8
BLACK
6
CONTINUOUS
10
162.552
20
-102.558
11
162.548
21
-102.558
0
LINE
8
BLACK
6
CONTINUOUS
10
162.548
20
-102.558
11
162.422
21
-102.558
0
LINE
8
BLACK
6
CONTINUOUS
10
162.422
20
-102.558
11
162.354
21
-102.593
0
LINE
8
BLACK
6
CONTINUOUS
10
162.354
20
-102.593
11
162.324
21
-102.623
0
LINE
8
BLACK
6
CONTINUOUS
10
162.324
20
-102.623
11
162.289
21
-102.692
0
LINE
8
BLACK
6
CONTINUOUS
10
162.289
20
-102.692
11
162.289
21
-102.894
0
LINE
8
BLACK
6
CONTINUOUS
10
162.289
20
-102.894
11
162.324
21
-102.963
0
LINE
8
BLACK
6
CONTINUOUS
10
162.324
20
-102.963
11
162.354
21
-102.993
0
LINE
8
BLACK
6
CONTINUOUS
10
162.354
20
-102.993
11
162.422
21
-103.027
0
LINE
8
BLACK
6
CONTINUOUS
10
162.422
20
-103.027
11
162.673
21
-103.027
0
LINE
8
BLACK
6
CONTINUOUS
10
162.673
20
-103.027
11
162.741
21
-102.993
0
LINE
8
BLACK
6
CONTINUOUS
10
162.741
20
-102.993
11
162.78
21
-102.954
0
LINE
8
BLACK
6
CONTINUOUS
10
162.78
20
-102.954
11
162.781
21
-102.953
0
LINE
8
BLACK
6
CONTINUOUS
10
162.781
20
-102.953
11
162.792
21
-102.944
0
LINE
8
BLACK
6
CONTINUOUS
10
162.792
20
-102.944
11
162.805
21
-102.938
0
LINE
8
BLACK
6
CONTINUOUS
10
162.805
20
-102.938
11
162.82
21
-102.933
0
LINE
8
BLACK
6
CONTINUOUS
10
162.82
20
-102.933
11
162.834
21
-102.932
0
LINE
8
BLACK
6
CONTINUOUS
10
162.834
20
-102.932
11
162.849
21
-102.934
0
LINE
8
BLACK
6
CONTINUOUS
10
162.849
20
-102.934
11
162.863
21
-102.938
0
LINE
8
BLACK
6
CONTINUOUS
10
162.863
20
-102.938
11
162.875
21
-102.945
0
LINE
8
BLACK
6
CONTINUOUS
10
162.875
20
-102.945
11
162.887
21
-102.954
0
LINE
8
BLACK
6
CONTINUOUS
10
162.887
20
-102.954
11
162.896
21
-102.966
0
LINE
8
BLACK
6
CONTINUOUS
10
162.896
20
-102.966
11
162.903
21
-102.979
0
LINE
8
BLACK
6
CONTINUOUS
10
162.903
20
-102.979
11
162.907
21
-102.993
0
LINE
8
BLACK
6
CONTINUOUS
10
162.907
20
-102.993
11
162.908
21
-103.007
0
LINE
8
BLACK
6
CONTINUOUS
10
162.908
20
-103.007
11
162.907
21
-103.022
0
LINE
8
BLACK
6
CONTINUOUS
10
162.907
20
-103.022
11
162.903
21
-103.036
0
LINE
8
BLACK
6
CONTINUOUS
10
162.903
20
-103.036
11
162.896
21
-103.049
0
LINE
8
BLACK
6
CONTINUOUS
10
162.896
20
-103.049
11
162.886
21
-103.06
0
LINE
8
BLACK
6
CONTINUOUS
10
162.886
20
-103.06
11
162.839
21
-103.108
0
LINE
8
BLACK
6
CONTINUOUS
10
162.839
20
-103.108
11
162.838
21
-103.109
0
LINE
8
BLACK
6
CONTINUOUS
10
162.838
20
-103.109
11
162.835
21
-103.111
0
LINE
8
BLACK
6
CONTINUOUS
10
162.835
20
-103.111
11
162.832
21
-103.114
0
LINE
8
BLACK
6
CONTINUOUS
10
162.832
20
-103.114
11
162.829
21
-103.116
0
LINE
8
BLACK
6
CONTINUOUS
10
162.829
20
-103.116
11
162.827
21
-103.118
0
LINE
8
BLACK
6
CONTINUOUS
10
162.827
20
-103.118
11
162.823
21
-103.12
0
LINE
8
BLACK
6
CONTINUOUS
10
162.823
20
-103.12
11
162.819
21
-103.122
0
LINE
8
BLACK
6
CONTINUOUS
10
162.819
20
-103.122
11
162.724
21
-103.169
0
LINE
8
BLACK
6
CONTINUOUS
10
162.724
20
-103.169
11
162.723
21
-103.17
0
LINE
8
BLACK
6
CONTINUOUS
10
162.723
20
-103.17
11
162.721
21
-103.171
0
LINE
8
BLACK
6
CONTINUOUS
10
162.721
20
-103.171
11
162.719
21
-103.172
0
LINE
8
BLACK
6
CONTINUOUS
10
162.719
20
-103.172
11
162.714
21
-103.173
0
LINE
8
BLACK
6
CONTINUOUS
10
162.714
20
-103.173
11
162.709
21
-103.175
0
LINE
8
BLACK
6
CONTINUOUS
10
162.709
20
-103.175
11
162.707
21
-103.175
0
LINE
8
BLACK
6
CONTINUOUS
10
162.707
20
-103.175
11
162.705
21
-103.176
0
LINE
8
BLACK
6
CONTINUOUS
10
162.705
20
-103.176
11
162.7
21
-103.176
0
LINE
8
BLACK
6
CONTINUOUS
10
162.7
20
-103.176
11
162.695
21
-103.177
0
LINE
8
BLACK
6
CONTINUOUS
10
162.695
20
-103.177
11
162.693
21
-103.177
0
LINE
8
BLACK
6
CONTINUOUS
10
162.693
20
-103.177
11
162.69
21
-103.177
0
LINE
8
BLACK
6
CONTINUOUS
10
162.69
20
-103.177
11
162.405
21
-103.177
0
LINE
8
BLACK
6
CONTINUOUS
10
162.405
20
-103.177
11
162.404
21
-103.177
0
LINE
8
BLACK
6
CONTINUOUS
10
162.404
20
-103.177
11
162.402
21
-103.177
0
LINE
8
BLACK
6
CONTINUOUS
10
162.402
20
-103.177
11
162.399
21
-103.177
0
LINE
8
BLACK
6
CONTINUOUS
10
162.399
20
-103.177
11
162.394
21
-103.176
0
LINE
8
BLACK
6
CONTINUOUS
10
162.394
20
-103.176
11
162.389
21
-103.176
0
LINE
8
BLACK
6
CONTINUOUS
10
162.389
20
-103.176
11
162.387
21
-103.175
0
LINE
8
BLACK
6
CONTINUOUS
10
162.387
20
-103.175
11
162.385
21
-103.175
0
LINE
8
BLACK
6
CONTINUOUS
10
162.385
20
-103.175
11
162.38
21
-103.173
0
LINE
8
BLACK
6
CONTINUOUS
10
162.38
20
-103.173
11
162.375
21
-103.171
0
LINE
8
BLACK
6
CONTINUOUS
10
162.375
20
-103.171
11
162.373
21
-103.17
0
LINE
8
BLACK
6
CONTINUOUS
10
162.373
20
-103.17
11
162.371
21
-103.169
0
LINE
8
BLACK
6
CONTINUOUS
10
162.371
20
-103.169
11
162.276
21
-103.122
0
LINE
8
BLACK
6
CONTINUOUS
10
162.276
20
-103.122
11
162.275
21
-103.121
0
LINE
8
BLACK
6
CONTINUOUS
10
162.275
20
-103.121
11
162.272
21
-103.119
0
LINE
8
BLACK
6
CONTINUOUS
10
162.272
20
-103.119
11
162.268
21
-103.117
0
LINE
8
BLACK
6
CONTINUOUS
10
162.268
20
-103.117
11
162.265
21
-103.115
0
LINE
8
BLACK
6
CONTINUOUS
10
162.265
20
-103.115
11
162.263
21
-103.113
0
LINE
8
BLACK
6
CONTINUOUS
10
162.263
20
-103.113
11
162.26
21
-103.11
0
LINE
8
BLACK
6
CONTINUOUS
10
162.26
20
-103.11
11
162.256
21
-103.108
0
LINE
8
BLACK
6
CONTINUOUS
10
162.256
20
-103.108
11
162.209
21
-103.06
0
LINE
8
BLACK
6
CONTINUOUS
10
162.209
20
-103.06
11
162.208
21
-103.059
0
LINE
8
BLACK
6
CONTINUOUS
10
162.208
20
-103.059
11
162.206
21
-103.056
0
LINE
8
BLACK
6
CONTINUOUS
10
162.206
20
-103.056
11
162.203
21
-103.053
0
LINE
8
BLACK
6
CONTINUOUS
10
162.203
20
-103.053
11
162.201
21
-103.05
0
LINE
8
BLACK
6
CONTINUOUS
10
162.201
20
-103.05
11
162.199
21
-103.048
0
LINE
8
BLACK
6
CONTINUOUS
10
162.199
20
-103.048
11
162.197
21
-103.044
0
LINE
8
BLACK
6
CONTINUOUS
10
162.197
20
-103.044
11
162.195
21
-103.041
0
LINE
8
BLACK
6
CONTINUOUS
10
162.195
20
-103.041
11
162.147
21
-102.945
0
LINE
8
BLACK
6
CONTINUOUS
10
162.147
20
-102.945
11
162.147
21
-102.945
0
LINE
8
BLACK
6
CONTINUOUS
10
162.147
20
-102.945
11
162.146
21
-102.942
0
LINE
8
BLACK
6
CONTINUOUS
10
162.146
20
-102.942
11
162.145
21
-102.94
0
LINE
8
BLACK
6
CONTINUOUS
10
162.145
20
-102.94
11
162.143
21
-102.936
0
LINE
8
BLACK
6
CONTINUOUS
10
162.143
20
-102.936
11
162.142
21
-102.931
0
LINE
8
BLACK
6
CONTINUOUS
10
162.142
20
-102.931
11
162.141
21
-102.929
0
LINE
8
BLACK
6
CONTINUOUS
10
162.141
20
-102.929
11
162.141
21
-102.926
0
LINE
8
BLACK
6
CONTINUOUS
10
162.141
20
-102.926
11
162.14
21
-102.921
0
LINE
8
BLACK
6
CONTINUOUS
10
162.14
20
-102.921
11
162.139
21
-102.916
0
LINE
8
BLACK
6
CONTINUOUS
10
162.139
20
-102.916
11
162.139
21
-102.914
0
LINE
8
BLACK
6
CONTINUOUS
10
162.139
20
-102.914
11
162.139
21
-102.912
0
LINE
8
BLACK
6
CONTINUOUS
10
162.139
20
-102.912
11
162.139
21
-102.674
0
LINE
8
BLACK
6
CONTINUOUS
10
162.139
20
-102.674
11
162.139
21
-102.673
0
LINE
8
BLACK
6
CONTINUOUS
10
162.139
20
-102.673
11
162.14
21
-102.671
0
LINE
8
BLACK
6
CONTINUOUS
10
162.14
20
-102.671
11
162.139
21
-102.668
0
LINE
8
BLACK
6
CONTINUOUS
10
162.139
20
-102.668
11
162.14
21
-102.663
0
LINE
8
BLACK
6
CONTINUOUS
10
162.14
20
-102.663
11
162.141
21
-102.658
0
LINE
8
BLACK
6
CONTINUOUS
10
162.141
20
-102.658
11
162.142
21
-102.656
0
LINE
8
BLACK
6
CONTINUOUS
10
162.142
20
-102.656
11
162.142
21
-102.654
0
LINE
8
BLACK
6
CONTINUOUS
10
162.142
20
-102.654
11
162.144
21
-102.649
0
LINE
8
BLACK
6
CONTINUOUS
10
162.144
20
-102.649
11
162.145
21
-102.644
0
LINE
8
BLACK
6
CONTINUOUS
10
162.145
20
-102.644
11
162.146
21
-102.642
0
LINE
8
BLACK
6
CONTINUOUS
10
162.146
20
-102.642
11
162.147
21
-102.64
0
LINE
8
BLACK
6
CONTINUOUS
10
162.147
20
-102.64
11
162.195
21
-102.545
0
LINE
8
BLACK
6
CONTINUOUS
10
162.195
20
-102.545
11
162.195
21
-102.544
0
LINE
8
BLACK
6
CONTINUOUS
10
162.195
20
-102.544
11
162.198
21
-102.541
0
LINE
8
BLACK
6
CONTINUOUS
10
162.198
20
-102.541
11
162.2
21
-102.537
0
LINE
8
BLACK
6
CONTINUOUS
10
162.2
20
-102.537
11
162.202
21
-102.534
0
LINE
8
BLACK
6
CONTINUOUS
10
162.202
20
-102.534
11
162.203
21
-102.532
0
LINE
8
BLACK
6
CONTINUOUS
10
162.203
20
-102.532
11
162.206
21
-102.529
0
LINE
8
BLACK
6
CONTINUOUS
10
162.206
20
-102.529
11
162.209
21
-102.526
0
LINE
8
BLACK
6
CONTINUOUS
10
162.209
20
-102.526
11
162.256
21
-102.478
0
LINE
8
BLACK
6
CONTINUOUS
10
162.256
20
-102.478
11
162.257
21
-102.477
0
LINE
8
BLACK
6
CONTINUOUS
10
162.257
20
-102.477
11
162.261
21
-102.475
0
LINE
8
BLACK
6
CONTINUOUS
10
162.261
20
-102.475
11
162.264
21
-102.472
0
LINE
8
BLACK
6
CONTINUOUS
10
162.264
20
-102.472
11
162.266
21
-102.47
0
LINE
8
BLACK
6
CONTINUOUS
10
162.266
20
-102.47
11
162.269
21
-102.468
0
LINE
8
BLACK
6
CONTINUOUS
10
162.269
20
-102.468
11
162.272
21
-102.466
0
LINE
8
BLACK
6
CONTINUOUS
10
162.272
20
-102.466
11
162.276
21
-102.464
0
LINE
8
BLACK
6
CONTINUOUS
10
162.276
20
-102.464
11
162.371
21
-102.416
0
LINE
8
BLACK
6
CONTINUOUS
10
162.371
20
-102.416
11
162.372
21
-102.416
0
LINE
8
BLACK
6
CONTINUOUS
10
162.372
20
-102.416
11
162.374
21
-102.415
0
LINE
8
BLACK
6
CONTINUOUS
10
162.374
20
-102.415
11
162.376
21
-102.414
0
LINE
8
BLACK
6
CONTINUOUS
10
162.376
20
-102.414
11
162.381
21
-102.413
0
LINE
8
BLACK
6
CONTINUOUS
10
162.381
20
-102.413
11
162.385
21
-102.411
0
LINE
8
BLACK
6
CONTINUOUS
10
162.385
20
-102.411
11
162.158
21
-102.152
0
LINE
8
BLACK
6
CONTINUOUS
10
162.158
20
-102.152
11
162.157
21
-102.151
0
LINE
8
BLACK
6
CONTINUOUS
10
162.157
20
-102.151
11
162.154
21
-102.147
0
LINE
8
BLACK
6
CONTINUOUS
10
162.154
20
-102.147
11
162.152
21
-102.143
0
LINE
8
BLACK
6
CONTINUOUS
10
162.152
20
-102.143
11
162.15
21
-102.141
0
LINE
8
BLACK
6
CONTINUOUS
10
162.15
20
-102.141
11
162.149
21
-102.139
0
LINE
8
BLACK
6
CONTINUOUS
10
162.149
20
-102.139
11
162.147
21
-102.135
0
LINE
8
BLACK
6
CONTINUOUS
10
162.147
20
-102.135
11
162.145
21
-102.13
0
LINE
8
BLACK
6
CONTINUOUS
10
162.145
20
-102.13
11
162.144
21
-102.128
0
LINE
8
BLACK
6
CONTINUOUS
10
162.144
20
-102.128
11
162.143
21
-102.126
0
LINE
8
BLACK
6
CONTINUOUS
10
162.143
20
-102.126
11
162.142
21
-102.121
0
LINE
8
BLACK
6
CONTINUOUS
10
162.142
20
-102.121
11
162.141
21
-102.116
0
LINE
8
BLACK
6
CONTINUOUS
10
162.141
20
-102.116
11
162.14
21
-102.114
0
LINE
8
BLACK
6
CONTINUOUS
10
162.14
20
-102.114
11
162.14
21
-102.111
0
LINE
8
BLACK
6
CONTINUOUS
10
162.14
20
-102.111
11
162.14
21
-102.107
0
LINE
8
BLACK
6
CONTINUOUS
10
162.14
20
-102.107
11
162.139
21
-102.102
0
LINE
8
BLACK
6
CONTINUOUS
10
162.139
20
-102.102
11
162.14
21
-102.099
0
LINE
8
BLACK
6
CONTINUOUS
10
162.14
20
-102.099
11
162.14
21
-102.097
0
LINE
8
BLACK
6
CONTINUOUS
10
162.14
20
-102.097
11
162.14
21
-102.092
0
LINE
8
BLACK
6
CONTINUOUS
10
162.14
20
-102.092
11
162.141
21
-102.087
0
LINE
8
BLACK
6
CONTINUOUS
10
162.141
20
-102.087
11
162.142
21
-102.085
0
LINE
8
BLACK
6
CONTINUOUS
10
162.142
20
-102.085
11
162.142
21
-102.082
0
LINE
8
BLACK
6
CONTINUOUS
10
162.142
20
-102.082
11
162.144
21
-102.078
0
LINE
8
BLACK
6
CONTINUOUS
10
162.144
20
-102.078
11
162.145
21
-102.073
0
LINE
8
BLACK
6
CONTINUOUS
10
162.145
20
-102.073
11
162.146
21
-102.071
0
LINE
8
BLACK
6
CONTINUOUS
10
162.146
20
-102.071
11
162.147
21
-102.069
0
LINE
8
BLACK
6
CONTINUOUS
10
162.147
20
-102.069
11
162.15
21
-102.065
0
LINE
8
BLACK
6
CONTINUOUS
10
162.15
20
-102.065
11
162.152
21
-102.06
0
LINE
8
BLACK
6
CONTINUOUS
10
162.152
20
-102.06
11
162.154
21
-102.058
0
LINE
8
BLACK
6
CONTINUOUS
10
162.154
20
-102.058
11
162.155
21
-102.056
0
LINE
8
BLACK
6
CONTINUOUS
10
162.155
20
-102.056
11
162.158
21
-102.053
0
LINE
8
BLACK
6
CONTINUOUS
10
162.158
20
-102.053
11
162.161
21
-102.049
0
LINE
8
BLACK
6
CONTINUOUS
10
162.161
20
-102.049
11
162.163
21
-102.047
0
LINE
8
BLACK
6
CONTINUOUS
10
162.163
20
-102.047
11
162.165
21
-102.046
0
LINE
8
BLACK
6
CONTINUOUS
10
162.165
20
-102.046
11
162.169
21
-102.043
0
LINE
8
BLACK
6
CONTINUOUS
10
162.169
20
-102.043
11
162.173
21
-102.04
0
LINE
8
BLACK
6
CONTINUOUS
10
162.173
20
-102.04
11
162.175
21
-102.039
0
LINE
8
BLACK
6
CONTINUOUS
10
162.175
20
-102.039
11
162.177
21
-102.037
0
LINE
8
BLACK
6
CONTINUOUS
10
162.177
20
-102.037
11
162.182
21
-102.035
0
LINE
8
BLACK
6
CONTINUOUS
10
162.182
20
-102.035
11
162.186
21
-102.033
0
LINE
8
BLACK
6
CONTINUOUS
10
162.186
20
-102.033
11
162.188
21
-102.032
0
LINE
8
BLACK
6
CONTINUOUS
10
162.188
20
-102.032
11
162.191
21
-102.031
0
LINE
8
BLACK
6
CONTINUOUS
10
162.191
20
-102.031
11
162.195
21
-102.03
0
LINE
8
BLACK
6
CONTINUOUS
10
162.195
20
-102.03
11
162.2
21
-102.029
0
LINE
8
BLACK
6
CONTINUOUS
10
162.2
20
-102.029
11
162.202
21
-102.029
0
LINE
8
BLACK
6
CONTINUOUS
10
162.202
20
-102.029
11
162.205
21
-102.028
0
LINE
8
BLACK
6
CONTINUOUS
10
162.205
20
-102.028
11
162.21
21
-102.028
0
LINE
8
BLACK
6
CONTINUOUS
10
162.21
20
-102.028
11
162.214
21
-102.027
0
LINE
8
BLACK
6
CONTINUOUS
10
162.214
20
-102.027
11
162.833
21
-102.027
0
LINE
8
BLACK
6
CONTINUOUS
10
162.833
20
-102.027
11
162.834
21
-102.027
0
LINE
8
BLACK
6
CONTINUOUS
10
163.739
20
-102.027
11
163.739
21
-102.027
0
LINE
8
BLACK
6
CONTINUOUS
10
163.739
20
-102.027
11
163.739
21
-102.027
0
LINE
8
BLACK
6
CONTINUOUS
10
163.739
20
-102.027
11
163.739
21
-102.027
0
LINE
8
BLACK
6
CONTINUOUS
10
163.739
20
-102.027
11
163.746
21
-102.028
0
LINE
8
BLACK
6
CONTINUOUS
10
163.746
20
-102.028
11
163.753
21
-102.029
0
LINE
8
BLACK
6
CONTINUOUS
10
163.753
20
-102.029
11
163.753
21
-102.029
0
LINE
8
BLACK
6
CONTINUOUS
10
163.753
20
-102.029
11
163.754
21
-102.029
0
LINE
8
BLACK
6
CONTINUOUS
10
163.754
20
-102.029
11
163.76
21
-102.031
0
LINE
8
BLACK
6
CONTINUOUS
10
163.76
20
-102.031
11
163.767
21
-102.033
0
LINE
8
BLACK
6
CONTINUOUS
10
163.767
20
-102.033
11
163.767
21
-102.033
0
LINE
8
BLACK
6
CONTINUOUS
10
163.767
20
-102.033
11
163.768
21
-102.033
0
LINE
8
BLACK
6
CONTINUOUS
10
163.768
20
-102.033
11
163.774
21
-102.037
0
LINE
8
BLACK
6
CONTINUOUS
10
163.774
20
-102.037
11
163.78
21
-102.04
0
LINE
8
BLACK
6
CONTINUOUS
10
163.78
20
-102.04
11
163.78
21
-102.04
0
LINE
8
BLACK
6
CONTINUOUS
10
163.78
20
-102.04
11
163.78
21
-102.04
0
LINE
8
BLACK
6
CONTINUOUS
10
163.78
20
-102.04
11
163.786
21
-102.045
0
LINE
8
BLACK
6
CONTINUOUS
10
163.786
20
-102.045
11
163.791
21
-102.05
0
LINE
8
BLACK
6
CONTINUOUS
10
163.791
20
-102.05
11
163.791
21
-102.05
0
LINE
8
BLACK
6
CONTINUOUS
10
163.791
20
-102.05
11
163.792
21
-102.05
0
LINE
8
BLACK
6
CONTINUOUS
10
163.792
20
-102.05
11
163.796
21
-102.055
0
LINE
8
BLACK
6
CONTINUOUS
10
163.796
20
-102.055
11
163.801
21
-102.061
0
LINE
8
BLACK
6
CONTINUOUS
10
163.801
20
-102.061
11
163.801
21
-102.061
0
LINE
8
BLACK
6
CONTINUOUS
10
163.801
20
-102.061
11
163.801
21
-102.061
0
LINE
8
BLACK
6
CONTINUOUS
10
163.801
20
-102.061
11
163.804
21
-102.068
0
LINE
8
BLACK
6
CONTINUOUS
10
163.804
20
-102.068
11
163.807
21
-102.074
0
LINE
8
BLACK
6
CONTINUOUS
10
163.807
20
-102.074
11
163.808
21
-102.074
0
LINE
8
BLACK
6
CONTINUOUS
10
163.808
20
-102.074
11
163.808
21
-102.074
0
LINE
8
BLACK
6
CONTINUOUS
10
163.808
20
-102.074
11
163.81
21
-102.081
0
LINE
8
BLACK
6
CONTINUOUS
10
163.81
20
-102.081
11
163.812
21
-102.088
0
LINE
8
BLACK
6
CONTINUOUS
10
163.812
20
-102.088
11
163.812
21
-102.088
0
LINE
8
BLACK
6
CONTINUOUS
10
163.812
20
-102.088
11
163.812
21
-102.088
0
LINE
8
BLACK
6
CONTINUOUS
10
163.812
20
-102.088
11
163.812
21
-102.095
0
LINE
8
BLACK
6
CONTINUOUS
10
163.812
20
-102.095
11
163.813
21
-102.102
0
LINE
8
BLACK
6
CONTINUOUS
10
163.813
20
-102.102
11
163.813
21
-103.102
0
LINE
8
BLACK
6
CONTINUOUS
10
163.813
20
-103.102
11
163.813
21
-103.103
0
LINE
8
BLACK
6
CONTINUOUS
10
163.813
20
-103.103
11
163.811
21
-103.118
0
LINE
8
BLACK
6
CONTINUOUS
10
163.811
20
-103.118
11
163.807
21
-103.132
0
LINE
8
BLACK
6
CONTINUOUS
10
163.807
20
-103.132
11
163.8
21
-103.145
0
LINE
8
BLACK
6
CONTINUOUS
10
163.8
20
-103.145
11
163.791
21
-103.156
0
LINE
8
BLACK
6
CONTINUOUS
10
163.791
20
-103.156
11
163.779
21
-103.165
0
LINE
8
BLACK
6
CONTINUOUS
10
163.779
20
-103.165
11
163.766
21
-103.172
0
LINE
8
BLACK
6
CONTINUOUS
10
163.766
20
-103.172
11
163.752
21
-103.176
0
LINE
8
BLACK
6
CONTINUOUS
10
163.752
20
-103.176
11
163.738
21
-103.177
0
LINE
8
BLACK
6
CONTINUOUS
10
163.738
20
-103.177
11
163.723
21
-103.176
0
LINE
8
BLACK
6
CONTINUOUS
10
163.723
20
-103.176
11
163.709
21
-103.172
0
LINE
8
BLACK
6
CONTINUOUS
10
163.709
20
-103.172
11
163.696
21
-103.165
0
LINE
8
BLACK
6
CONTINUOUS
10
163.696
20
-103.165
11
163.685
21
-103.155
0
LINE
8
BLACK
6
CONTINUOUS
10
163.685
20
-103.155
11
163.676
21
-103.144
0
LINE
8
BLACK
6
CONTINUOUS
10
163.676
20
-103.144
11
163.669
21
-103.131
0
LINE
8
BLACK
6
CONTINUOUS
10
163.669
20
-103.131
11
163.665
21
-103.117
0
LINE
8
BLACK
6
CONTINUOUS
10
163.665
20
-103.117
11
163.663
21
-103.102
0
LINE
8
BLACK
6
CONTINUOUS
10
163.663
20
-103.102
11
163.663
21
-102.701
0
LINE
8
BLACK
6
CONTINUOUS
10
163.663
20
-102.701
11
163.539
21
-102.701
0
LINE
8
BLACK
6
CONTINUOUS
10
163.539
20
-102.701
11
163.228
21
-103.145
0
LINE
8
BLACK
6
CONTINUOUS
10
163.228
20
-103.145
11
163.228
21
-103.146
0
LINE
8
BLACK
6
CONTINUOUS
10
163.228
20
-103.146
11
163.218
21
-103.157
0
LINE
8
BLACK
6
CONTINUOUS
10
163.218
20
-103.157
11
163.206
21
-103.166
0
LINE
8
BLACK
6
CONTINUOUS
10
163.206
20
-103.166
11
163.193
21
-103.173
0
LINE
8
BLACK
6
CONTINUOUS
10
163.193
20
-103.173
11
163.179
21
-103.176
0
LINE
8
BLACK
6
CONTINUOUS
10
163.179
20
-103.176
11
163.164
21
-103.177
0
LINE
8
BLACK
6
CONTINUOUS
10
163.164
20
-103.177
11
163.15
21
-103.175
0
LINE
8
BLACK
6
CONTINUOUS
10
163.15
20
-103.175
11
163.136
21
-103.171
0
LINE
8
BLACK
6
CONTINUOUS
10
163.136
20
-103.171
11
163.123
21
-103.164
0
LINE
8
BLACK
6
CONTINUOUS
10
163.123
20
-103.164
11
163.112
21
-103.154
0
LINE
8
BLACK
6
CONTINUOUS
10
163.112
20
-103.154
11
163.103
21
-103.142
0
LINE
8
BLACK
6
CONTINUOUS
10
163.103
20
-103.142
11
163.097
21
-103.129
0
LINE
8
BLACK
6
CONTINUOUS
10
163.097
20
-103.129
11
163.093
21
-103.115
0
LINE
8
BLACK
6
CONTINUOUS
10
163.093
20
-103.115
11
163.092
21
-103.101
0
LINE
8
BLACK
6
CONTINUOUS
10
163.092
20
-103.101
11
163.093
21
-103.086
0
LINE
8
BLACK
6
CONTINUOUS
10
163.093
20
-103.086
11
163.098
21
-103.072
0
LINE
8
BLACK
6
CONTINUOUS
10
163.098
20
-103.072
11
163.105
21
-103.059
0
LINE
8
BLACK
6
CONTINUOUS
10
163.105
20
-103.059
11
163.356
21
-102.701
0
LINE
8
BLACK
6
CONTINUOUS
10
163.356
20
-102.701
11
163.354
21
-102.701
0
LINE
8
BLACK
6
CONTINUOUS
10
163.354
20
-102.701
11
163.352
21
-102.701
0
LINE
8
BLACK
6
CONTINUOUS
10
163.352
20
-102.701
11
163.347
21
-102.7
0
LINE
8
BLACK
6
CONTINUOUS
10
163.347
20
-102.7
11
163.342
21
-102.7
0
LINE
8
BLACK
6
CONTINUOUS
10
163.342
20
-102.7
11
163.339
21
-102.699
0
LINE
8
BLACK
6
CONTINUOUS
10
163.339
20
-102.699
11
163.337
21
-102.699
0
LINE
8
BLACK
6
CONTINUOUS
10
163.337
20
-102.699
11
163.332
21
-102.697
0
LINE
8
BLACK
6
CONTINUOUS
10
163.332
20
-102.697
11
163.328
21
-102.695
0
LINE
8
BLACK
6
CONTINUOUS
10
163.328
20
-102.695
11
163.326
21
-102.694
0
LINE
8
BLACK
6
CONTINUOUS
10
163.326
20
-102.694
11
163.324
21
-102.693
0
LINE
8
BLACK
6
CONTINUOUS
10
163.324
20
-102.693
11
163.228
21
-102.646
0
LINE
8
BLACK
6
CONTINUOUS
10
163.228
20
-102.646
11
163.227
21
-102.645
0
LINE
8
BLACK
6
CONTINUOUS
10
163.227
20
-102.645
11
163.224
21
-102.643
0
LINE
8
BLACK
6
CONTINUOUS
10
163.224
20
-102.643
11
163.22
21
-102.641
0
LINE
8
BLACK
6
CONTINUOUS
10
163.22
20
-102.641
11
163.218
21
-102.639
0
LINE
8
BLACK
6
CONTINUOUS
10
163.218
20
-102.639
11
163.215
21
-102.637
0
LINE
8
BLACK
6
CONTINUOUS
10
163.215
20
-102.637
11
163.212
21
-102.634
0
LINE
8
BLACK
6
CONTINUOUS
10
163.212
20
-102.634
11
163.209
21
-102.632
0
LINE
8
BLACK
6
CONTINUOUS
10
163.209
20
-102.632
11
163.161
21
-102.584
0
LINE
8
BLACK
6
CONTINUOUS
10
163.161
20
-102.584
11
163.161
21
-102.583
0
LINE
8
BLACK
6
CONTINUOUS
10
163.161
20
-102.583
11
163.158
21
-102.58
0
LINE
8
BLACK
6
CONTINUOUS
10
163.158
20
-102.58
11
163.155
21
-102.577
0
LINE
8
BLACK
6
CONTINUOUS
10
163.155
20
-102.577
11
163.153
21
-102.574
0
LINE
8
BLACK
6
CONTINUOUS
10
163.153
20
-102.574
11
163.151
21
-102.572
0
LINE
8
BLACK
6
CONTINUOUS
10
163.151
20
-102.572
11
163.149
21
-102.568
0
LINE
8
BLACK
6
CONTINUOUS
10
163.149
20
-102.568
11
163.147
21
-102.564
0
LINE
8
BLACK
6
CONTINUOUS
10
163.147
20
-102.564
11
163.1
21
-102.469
0
LINE
8
BLACK
6
CONTINUOUS
10
163.1
20
-102.469
11
163.099
21
-102.468
0
LINE
8
BLACK
6
CONTINUOUS
10
163.099
20
-102.468
11
163.098
21
-102.466
0
LINE
8
BLACK
6
CONTINUOUS
10
163.098
20
-102.466
11
163.097
21
-102.464
0
LINE
8
BLACK
6
CONTINUOUS
10
163.097
20
-102.464
11
163.096
21
-102.459
0
LINE
8
BLACK
6
CONTINUOUS
10
163.096
20
-102.459
11
163.094
21
-102.455
0
LINE
8
BLACK
6
CONTINUOUS
10
163.094
20
-102.455
11
163.094
21
-102.452
0
LINE
8
BLACK
6
CONTINUOUS
10
163.094
20
-102.452
11
163.093
21
-102.45
0
LINE
8
BLACK
6
CONTINUOUS
10
163.093
20
-102.45
11
163.093
21
-102.445
0
LINE
8
BLACK
6
CONTINUOUS
10
163.093
20
-102.445
11
163.092
21
-102.44
0
LINE
8
BLACK
6
CONTINUOUS
10
163.092
20
-102.44
11
163.092
21
-102.438
0
LINE
8
BLACK
6
CONTINUOUS
10
163.092
20
-102.438
11
163.092
21
-102.436
0
LINE
8
BLACK
6
CONTINUOUS
10
163.092
20
-102.436
11
163.092
21
-102.293
0
LINE
8
BLACK
6
CONTINUOUS
10
163.092
20
-102.293
11
163.092
21
-102.292
0
LINE
8
BLACK
6
CONTINUOUS
10
163.092
20
-102.292
11
163.092
21
-102.29
0
LINE
8
BLACK
6
CONTINUOUS
10
163.092
20
-102.29
11
163.092
21
-102.287
0
LINE
8
BLACK
6
CONTINUOUS
10
163.092
20
-102.287
11
163.093
21
-102.282
0
LINE
8
BLACK
6
CONTINUOUS
10
163.093
20
-102.282
11
163.093
21
-102.277
0
LINE
8
BLACK
6
CONTINUOUS
10
163.093
20
-102.277
11
163.094
21
-102.275
0
LINE
8
BLACK
6
CONTINUOUS
10
163.094
20
-102.275
11
163.094
21
-102.273
0
LINE
8
BLACK
6
CONTINUOUS
10
163.094
20
-102.273
11
163.096
21
-102.268
0
LINE
8
BLACK
6
CONTINUOUS
10
163.096
20
-102.268
11
163.098
21
-102.263
0
LINE
8
BLACK
6
CONTINUOUS
10
163.098
20
-102.263
11
163.099
21
-102.261
0
LINE
8
BLACK
6
CONTINUOUS
10
163.099
20
-102.261
11
163.1
21
-102.259
0
LINE
8
BLACK
6
CONTINUOUS
10
163.1
20
-102.259
11
163.147
21
-102.164
0
LINE
8
BLACK
6
CONTINUOUS
10
163.147
20
-102.164
11
163.148
21
-102.163
0
LINE
8
BLACK
6
CONTINUOUS
10
163.148
20
-102.163
11
163.15
21
-102.16
0
LINE
8
BLACK
6
CONTINUOUS
10
163.15
20
-102.16
11
163.152
21
-102.156
0
LINE
8
BLACK
6
CONTINUOUS
10
163.152
20
-102.156
11
163.154
21
-102.153
0
LINE
8
BLACK
6
CONTINUOUS
10
163.154
20
-102.153
11
163.156
21
-102.151
0
LINE
8
BLACK
6
CONTINUOUS
10
163.156
20
-102.151
11
163.159
21
-102.148
0
LINE
8
BLACK
6
CONTINUOUS
10
163.159
20
-102.148
11
163.161
21
-102.145
0
LINE
8
BLACK
6
CONTINUOUS
10
163.161
20
-102.145
11
163.209
21
-102.097
0
LINE
8
BLACK
6
CONTINUOUS
10
163.209
20
-102.097
11
163.21
21
-102.096
0
LINE
8
BLACK
6
CONTINUOUS
10
163.21
20
-102.096
11
163.213
21
-102.094
0
LINE
8
BLACK
6
CONTINUOUS
10
163.213
20
-102.094
11
163.216
21
-102.091
0
LINE
8
BLACK
6
CONTINUOUS
10
163.216
20
-102.091
11
163.219
21
-102.089
0
LINE
8
BLACK
6
CONTINUOUS
10
163.219
20
-102.089
11
163.221
21
-102.087
0
LINE
8
BLACK
6
CONTINUOUS
10
163.221
20
-102.087
11
163.225
21
-102.085
0
LINE
8
BLACK
6
CONTINUOUS
10
163.225
20
-102.085
11
163.228
21
-102.083
0
LINE
8
BLACK
6
CONTINUOUS
10
163.228
20
-102.083
11
163.324
21
-102.035
0
LINE
8
BLACK
6
CONTINUOUS
10
163.324
20
-102.035
11
163.325
21
-102.035
0
LINE
8
BLACK
6
CONTINUOUS
10
163.325
20
-102.035
11
163.327
21
-102.034
0
LINE
8
BLACK
6
CONTINUOUS
10
163.327
20
-102.034
11
163.329
21
-102.033
0
LINE
8
BLACK
6
CONTINUOUS
10
163.329
20
-102.033
11
163.333
21
-102.032
0
LINE
8
BLACK
6
CONTINUOUS
10
163.333
20
-102.032
11
163.338
21
-102.03
0
LINE
8
BLACK
6
CONTINUOUS
10
163.338
20
-102.03
11
163.34
21
-102.029
0
LINE
8
BLACK
6
CONTINUOUS
10
163.34
20
-102.029
11
163.343
21
-102.029
0
LINE
8
BLACK
6
CONTINUOUS
10
163.343
20
-102.029
11
163.348
21
-102.028
0
LINE
8
BLACK
6
CONTINUOUS
10
163.348
20
-102.028
11
163.353
21
-102.028
0
LINE
8
BLACK
6
CONTINUOUS
10
163.353
20
-102.028
11
163.355
21
-102.028
0
LINE
8
BLACK
6
CONTINUOUS
10
163.355
20
-102.028
11
163.357
21
-102.027
0
LINE
8
BLACK
6
CONTINUOUS
10
163.357
20
-102.027
11
163.738
21
-102.027
0
LINE
8
BLACK
6
CONTINUOUS
10
163.738
20
-102.027
11
163.739
21
-102.027
0
LINE
8
BLACK
6
CONTINUOUS
10
163.375
20
-102.177
11
163.306
21
-102.212
0
LINE
8
BLACK
6
CONTINUOUS
10
163.306
20
-102.212
11
163.276
21
-102.242
0
LINE
8
BLACK
6
CONTINUOUS
10
163.276
20
-102.242
11
163.242
21
-102.311
0
LINE
8
BLACK
6
CONTINUOUS
10
163.242
20
-102.311
11
163.242
21
-102.418
0
LINE
8
BLACK
6
CONTINUOUS
10
163.242
20
-102.418
11
163.276
21
-102.487
0
LINE
8
BLACK
6
CONTINUOUS
10
163.276
20
-102.487
11
163.306
21
-102.517
0
LINE
8
BLACK
6
CONTINUOUS
10
163.306
20
-102.517
11
163.375
21
-102.551
0
LINE
8
BLACK
6
CONTINUOUS
10
163.375
20
-102.551
11
163.663
21
-102.551
0
LINE
8
BLACK
6
CONTINUOUS
10
163.663
20
-102.551
11
163.663
21
-102.177
0
LINE
8
BLACK
6
CONTINUOUS
10
163.663
20
-102.177
11
163.375
21
-102.177
0
LINE
8
BLACK
6
CONTINUOUS
10
163.273
20
-101.651
11
163.284
21
-101.654
0
LINE
8
BLACK
6
CONTINUOUS
10
163.284
20
-101.654
11
163.295
21
-101.66
0
LINE
8
BLACK
6
CONTINUOUS
10
163.295
20
-101.66
11
163.304
21
-101.667
0
LINE
8
BLACK
6
CONTINUOUS
10
163.304
20
-101.667
11
163.311
21
-101.677
0
LINE
8
BLACK
6
CONTINUOUS
10
163.311
20
-101.677
11
163.317
21
-101.687
0
LINE
8
BLACK
6
CONTINUOUS
10
163.317
20
-101.687
11
163.32
21
-101.698
0
LINE
8
BLACK
6
CONTINUOUS
10
163.32
20
-101.698
11
163.322
21
-101.71
0
LINE
8
BLACK
6
CONTINUOUS
10
163.322
20
-101.71
11
163.32
21
-101.722
0
LINE
8
BLACK
6
CONTINUOUS
10
163.32
20
-101.722
11
163.317
21
-101.733
0
LINE
8
BLACK
6
CONTINUOUS
10
163.317
20
-101.733
11
163.311
21
-101.743
0
LINE
8
BLACK
6
CONTINUOUS
10
163.311
20
-101.743
11
163.304
21
-101.753
0
LINE
8
BLACK
6
CONTINUOUS
10
163.304
20
-101.753
11
163.295
21
-101.76
0
LINE
8
BLACK
6
CONTINUOUS
10
163.295
20
-101.76
11
163.284
21
-101.766
0
LINE
8
BLACK
6
CONTINUOUS
10
163.284
20
-101.766
11
163.273
21
-101.769
0
LINE
8
BLACK
6
CONTINUOUS
10
163.273
20
-101.769
11
163.264
21
-101.77
0
LINE
8
BLACK
6
CONTINUOUS
10
163.264
20
-101.77
11
162.736
21
-101.77
0
LINE
8
BLACK
6
CONTINUOUS
10
162.736
20
-101.77
11
162.727
21
-101.769
0
LINE
8
BLACK
6
CONTINUOUS
10
162.727
20
-101.769
11
162.716
21
-101.766
0
LINE
8
BLACK
6
CONTINUOUS
10
162.716
20
-101.766
11
162.705
21
-101.76
0
LINE
8
BLACK
6
CONTINUOUS
10
162.705
20
-101.76
11
162.696
21
-101.753
0
LINE
8
BLACK
6
CONTINUOUS
10
162.696
20
-101.753
11
162.689
21
-101.743
0
LINE
8
BLACK
6
CONTINUOUS
10
162.689
20
-101.743
11
162.683
21
-101.733
0
LINE
8
BLACK
6
CONTINUOUS
10
162.683
20
-101.733
11
162.68
21
-101.722
0
LINE
8
BLACK
6
CONTINUOUS
10
162.68
20
-101.722
11
162.678
21
-101.71
0
LINE
8
BLACK
6
CONTINUOUS
10
162.678
20
-101.71
11
162.68
21
-101.698
0
LINE
8
BLACK
6
CONTINUOUS
10
162.68
20
-101.698
11
162.683
21
-101.687
0
LINE
8
BLACK
6
CONTINUOUS
10
162.683
20
-101.687
11
162.689
21
-101.677
0
LINE
8
BLACK
6
CONTINUOUS
10
162.689
20
-101.677
11
162.696
21
-101.667
0
LINE
8
BLACK
6
CONTINUOUS
10
162.696
20
-101.667
11
162.705
21
-101.66
0
LINE
8
BLACK
6
CONTINUOUS
10
162.705
20
-101.66
11
162.716
21
-101.654
0
LINE
8
BLACK
6
CONTINUOUS
10
162.716
20
-101.654
11
162.727
21
-101.651
0
LINE
8
BLACK
6
CONTINUOUS
10
162.727
20
-101.651
11
162.736
21
-101.65
0
LINE
8
BLACK
6
CONTINUOUS
10
162.736
20
-101.65
11
163.264
21
-101.65
0
LINE
8
BLACK
6
CONTINUOUS
10
163.264
20
-101.65
11
163.273
21
-101.651
0
LINE
8
BLACK
6
CONTINUOUS
10
163.273
20
-100.231
11
163.284
21
-100.234
0
LINE
8
BLACK
6
CONTINUOUS
10
163.284
20
-100.234
11
163.295
21
-100.24
0
LINE
8
BLACK
6
CONTINUOUS
10
163.295
20
-100.24
11
163.304
21
-100.247
0
LINE
8
BLACK
6
CONTINUOUS
10
163.304
20
-100.247
11
163.311
21
-100.257
0
LINE
8
BLACK
6
CONTINUOUS
10
163.311
20
-100.257
11
163.317
21
-100.267
0
LINE
8
BLACK
6
CONTINUOUS
10
163.317
20
-100.267
11
163.32
21
-100.278
0
LINE
8
BLACK
6
CONTINUOUS
10
163.32
20
-100.278
11
163.322
21
-100.29
0
LINE
8
BLACK
6
CONTINUOUS
10
163.322
20
-100.29
11
163.32
21
-100.302
0
LINE
8
BLACK
6
CONTINUOUS
10
163.32
20
-100.302
11
163.317
21
-100.313
0
LINE
8
BLACK
6
CONTINUOUS
10
163.317
20
-100.313
11
163.311
21
-100.323
0
LINE
8
BLACK
6
CONTINUOUS
10
163.311
20
-100.323
11
163.304
21
-100.333
0
LINE
8
BLACK
6
CONTINUOUS
10
163.304
20
-100.333
11
163.295
21
-100.34
0
LINE
8
BLACK
6
CONTINUOUS
10
163.295
20
-100.34
11
163.284
21
-100.346
0
LINE
8
BLACK
6
CONTINUOUS
10
163.284
20
-100.346
11
163.273
21
-100.349
0
LINE
8
BLACK
6
CONTINUOUS
10
163.273
20
-100.349
11
163.264
21
-100.35
0
LINE
8
BLACK
6
CONTINUOUS
10
163.264
20
-100.35
11
162.736
21
-100.35
0
LINE
8
BLACK
6
CONTINUOUS
10
162.736
20
-100.35
11
162.727
21
-100.349
0
LINE
8
BLACK
6
CONTINUOUS
10
162.727
20
-100.349
11
162.716
21
-100.346
0
LINE
8
BLACK
6
CONTINUOUS
10
162.716
20
-100.346
11
162.705
21
-100.34
0
LINE
8
BLACK
6
CONTINUOUS
10
162.705
20
-100.34
11
162.696
21
-100.333
0
LINE
8
BLACK
6
CONTINUOUS
10
162.696
20
-100.333
11
162.689
21
-100.323
0
LINE
8
BLACK
6
CONTINUOUS
10
162.689
20
-100.323
11
162.683
21
-100.313
0
LINE
8
BLACK
6
CONTINUOUS
10
162.683
20
-100.313
11
162.68
21
-100.302
0
LINE
8
BLACK
6
CONTINUOUS
10
162.68
20
-100.302
11
162.678
21
-100.29
0
LINE
8
BLACK
6
CONTINUOUS
10
162.678
20
-100.29
11
162.68
21
-100.278
0
LINE
8
BLACK
6
CONTINUOUS
10
162.68
20
-100.278
11
162.683
21
-100.267
0
LINE
8
BLACK
6
CONTINUOUS
10
162.683
20
-100.267
11
162.689
21
-100.257
0
LINE
8
BLACK
6
CONTINUOUS
10
162.689
20
-100.257
11
162.696
21
-100.247
0
LINE
8
BLACK
6
CONTINUOUS
10
162.696
20
-100.247
11
162.705
21
-100.24
0
LINE
8
BLACK
6
CONTINUOUS
10
162.705
20
-100.24
11
162.716
21
-100.234
0
LINE
8
BLACK
6
CONTINUOUS
10
162.716
20
-100.234
11
162.727
21
-100.231
0
LINE
8
BLACK
6
CONTINUOUS
10
162.727
20
-100.231
11
162.736
21
-100.23
0
LINE
8
BLACK
6
CONTINUOUS
10
162.736
20
-100.23
11
163.264
21
-100.23
0
LINE
8
BLACK
6
CONTINUOUS
10
163.264
20
-100.23
11
163.273
21
-100.231
0
LINE
8
BLACK
6
CONTINUOUS
10
163.739
20
-98.0274
11
163.739
21
-98.0274
0
LINE
8
BLACK
6
CONTINUOUS
10
163.739
20
-98.0274
11
163.739
21
-98.0274
0
LINE
8
BLACK
6
CONTINUOUS
10
163.739
20
-98.0274
11
163.739
21
-98.0274
0
LINE
8
BLACK
6
CONTINUOUS
10
163.739
20
-98.0274
11
163.746
21
-98.0282
0
LINE
8
BLACK
6
CONTINUOUS
10
163.746
20
-98.0282
11
163.753
21
-98.0289
0
LINE
8
BLACK
6
CONTINUOUS
10
163.753
20
-98.0289
11
163.753
21
-98.029
0
LINE
8
BLACK
6
CONTINUOUS
10
163.753
20
-98.029
11
163.754
21
-98.029
0
LINE
8
BLACK
6
CONTINUOUS
10
163.754
20
-98.029
11
163.76
21
-98.0311
0
LINE
8
BLACK
6
CONTINUOUS
10
163.76
20
-98.0311
11
163.767
21
-98.0332
0
LINE
8
BLACK
6
CONTINUOUS
10
163.767
20
-98.0332
11
163.767
21
-98.0334
0
LINE
8
BLACK
6
CONTINUOUS
10
163.767
20
-98.0334
11
163.768
21
-98.0334
0
LINE
8
BLACK
6
CONTINUOUS
10
163.768
20
-98.0334
11
163.774
21
-98.0369
0
LINE
8
BLACK
6
CONTINUOUS
10
163.774
20
-98.0369
11
163.78
21
-98.0402
0
LINE
8
BLACK
6
CONTINUOUS
10
163.78
20
-98.0402
11
163.78
21
-98.0404
0
LINE
8
BLACK
6
CONTINUOUS
10
163.78
20
-98.0404
11
163.78
21
-98.0405
0
LINE
8
BLACK
6
CONTINUOUS
10
163.78
20
-98.0405
11
163.786
21
-98.045
0
LINE
8
BLACK
6
CONTINUOUS
10
163.786
20
-98.045
11
163.791
21
-98.0495
0
LINE
8
BLACK
6
CONTINUOUS
10
163.791
20
-98.0495
11
163.791
21
-98.0497
0
LINE
8
BLACK
6
CONTINUOUS
10
163.791
20
-98.0497
11
163.792
21
-98.0499
0
LINE
8
BLACK
6
CONTINUOUS
10
163.792
20
-98.0499
11
163.796
21
-98.0554
0
LINE
8
BLACK
6
CONTINUOUS
10
163.796
20
-98.0554
11
163.801
21
-98.0609
0
LINE
8
BLACK
6
CONTINUOUS
10
163.801
20
-98.0609
11
163.801
21
-98.0611
0
LINE
8
BLACK
6
CONTINUOUS
10
163.801
20
-98.0611
11
163.801
21
-98.0613
0
LINE
8
BLACK
6
CONTINUOUS
10
163.801
20
-98.0613
11
163.804
21
-98.0676
0
LINE
8
BLACK
6
CONTINUOUS
10
163.804
20
-98.0676
11
163.807
21
-98.0738
0
LINE
8
BLACK
6
CONTINUOUS
10
163.807
20
-98.0738
11
163.808
21
-98.0741
0
LINE
8
BLACK
6
CONTINUOUS
10
163.808
20
-98.0741
11
163.808
21
-98.0743
0
LINE
8
BLACK
6
CONTINUOUS
10
163.808
20
-98.0743
11
163.81
21
-98.0811
0
LINE
8
BLACK
6
CONTINUOUS
10
163.81
20
-98.0811
11
163.812
21
-98.0878
0
LINE
8
BLACK
6
CONTINUOUS
10
163.812
20
-98.0878
11
163.812
21
-98.0881
0
LINE
8
BLACK
6
CONTINUOUS
10
163.812
20
-98.0881
11
163.812
21
-98.0883
0
LINE
8
BLACK
6
CONTINUOUS
10
163.812
20
-98.0883
11
163.812
21
-98.0953
0
LINE
8
BLACK
6
CONTINUOUS
10
163.812
20
-98.0953
11
163.813
21
-98.1024
0
LINE
8
BLACK
6
CONTINUOUS
10
163.813
20
-98.1024
11
163.813
21
-99.1024
0
LINE
8
BLACK
6
CONTINUOUS
10
163.813
20
-99.1024
11
163.813
21
-99.1034
0
LINE
8
BLACK
6
CONTINUOUS
10
163.813
20
-99.1034
11
163.811
21
-99.118
0
LINE
8
BLACK
6
CONTINUOUS
10
163.811
20
-99.118
11
163.807
21
-99.1319
0
LINE
8
BLACK
6
CONTINUOUS
10
163.807
20
-99.1319
11
163.8
21
-99.1448
0
LINE
8
BLACK
6
CONTINUOUS
10
163.8
20
-99.1448
11
163.791
21
-99.156
0
LINE
8
BLACK
6
CONTINUOUS
10
163.791
20
-99.156
11
163.779
21
-99.1651
0
LINE
8
BLACK
6
CONTINUOUS
10
163.779
20
-99.1651
11
163.766
21
-99.1719
0
LINE
8
BLACK
6
CONTINUOUS
10
163.766
20
-99.1719
11
163.752
21
-99.1761
0
LINE
8
BLACK
6
CONTINUOUS
10
163.752
20
-99.1761
11
163.738
21
-99.1774
0
LINE
8
BLACK
6
CONTINUOUS
10
163.738
20
-99.1774
11
163.723
21
-99.1758
0
LINE
8
BLACK
6
CONTINUOUS
10
163.723
20
-99.1758
11
163.709
21
-99.1715
0
LINE
8
BLACK
6
CONTINUOUS
10
163.709
20
-99.1715
11
163.696
21
-99.1646
0
LINE
8
BLACK
6
CONTINUOUS
10
163.696
20
-99.1646
11
163.685
21
-99.1552
0
LINE
8
BLACK
6
CONTINUOUS
10
163.685
20
-99.1552
11
163.676
21
-99.1439
0
LINE
8
BLACK
6
CONTINUOUS
10
163.676
20
-99.1439
11
163.669
21
-99.131
0
LINE
8
BLACK
6
CONTINUOUS
10
163.669
20
-99.131
11
163.665
21
-99.1169
0
LINE
8
BLACK
6
CONTINUOUS
10
163.665
20
-99.1169
11
163.663
21
-99.1024
0
LINE
8
BLACK
6
CONTINUOUS
10
163.663
20
-99.1024
11
163.663
21
-98.7012
0
LINE
8
BLACK
6
CONTINUOUS
10
163.663
20
-98.7012
11
163.539
21
-98.7012
0
LINE
8
BLACK
6
CONTINUOUS
10
163.539
20
-98.7012
11
163.228
21
-99.1454
0
LINE
8
BLACK
6
CONTINUOUS
10
163.228
20
-99.1454
11
163.228
21
-99.1462
0
LINE
8
BLACK
6
CONTINUOUS
10
163.228
20
-99.1462
11
163.218
21
-99.1572
0
LINE
8
BLACK
6
CONTINUOUS
10
163.218
20
-99.1572
11
163.206
21
-99.1661
0
LINE
8
BLACK
6
CONTINUOUS
10
163.206
20
-99.1661
11
163.193
21
-99.1726
0
LINE
8
BLACK
6
CONTINUOUS
10
163.193
20
-99.1726
11
163.179
21
-99.1764
0
LINE
8
BLACK
6
CONTINUOUS
10
163.179
20
-99.1764
11
163.164
21
-99.1773
0
LINE
8
BLACK
6
CONTINUOUS
10
163.164
20
-99.1773
11
163.15
21
-99.1755
0
LINE
8
BLACK
6
CONTINUOUS
10
163.15
20
-99.1755
11
163.136
21
-99.1708
0
LINE
8
BLACK
6
CONTINUOUS
10
163.136
20
-99.1708
11
163.123
21
-99.1635
0
LINE
8
BLACK
6
CONTINUOUS
10
163.123
20
-99.1635
11
163.112
21
-99.1539
0
LINE
8
BLACK
6
CONTINUOUS
10
163.112
20
-99.1539
11
163.103
21
-99.1424
0
LINE
8
BLACK
6
CONTINUOUS
10
163.103
20
-99.1424
11
163.097
21
-99.1293
0
LINE
8
BLACK
6
CONTINUOUS
10
163.097
20
-99.1293
11
163.093
21
-99.1152
0
LINE
8
BLACK
6
CONTINUOUS
10
163.093
20
-99.1152
11
163.092
21
-99.1006
0
LINE
8
BLACK
6
CONTINUOUS
10
163.092
20
-99.1006
11
163.093
21
-99.086
0
LINE
8
BLACK
6
CONTINUOUS
10
163.093
20
-99.086
11
163.098
21
-99.0721
0
LINE
8
BLACK
6
CONTINUOUS
10
163.098
20
-99.0721
11
163.105
21
-99.0594
0
LINE
8
BLACK
6
CONTINUOUS
10
163.105
20
-99.0594
11
163.356
21
-98.7012
0
LINE
8
BLACK
6
CONTINUOUS
10
163.356
20
-98.7012
11
163.354
21
-98.7009
0
LINE
8
BLACK
6
CONTINUOUS
10
163.354
20
-98.7009
11
163.352
21
-98.701
0
LINE
8
BLACK
6
CONTINUOUS
10
163.352
20
-98.701
11
163.347
21
-98.7001
0
LINE
8
BLACK
6
CONTINUOUS
10
163.347
20
-98.7001
11
163.342
21
-98.6996
0
LINE
8
BLACK
6
CONTINUOUS
10
163.342
20
-98.6996
11
163.339
21
-98.6989
0
LINE
8
BLACK
6
CONTINUOUS
10
163.339
20
-98.6989
11
163.337
21
-98.6985
0
LINE
8
BLACK
6
CONTINUOUS
10
163.337
20
-98.6985
11
163.332
21
-98.6967
0
LINE
8
BLACK
6
CONTINUOUS
10
163.332
20
-98.6967
11
163.328
21
-98.6951
0
LINE
8
BLACK
6
CONTINUOUS
10
163.328
20
-98.6951
11
163.326
21
-98.6941
0
LINE
8
BLACK
6
CONTINUOUS
10
163.326
20
-98.6941
11
163.324
21
-98.6933
0
LINE
8
BLACK
6
CONTINUOUS
10
163.324
20
-98.6933
11
163.228
21
-98.6457
0
LINE
8
BLACK
6
CONTINUOUS
10
163.228
20
-98.6457
11
163.227
21
-98.6452
0
LINE
8
BLACK
6
CONTINUOUS
10
163.227
20
-98.6452
11
163.224
21
-98.6429
0
LINE
8
BLACK
6
CONTINUOUS
10
163.224
20
-98.6429
11
163.22
21
-98.6409
0
LINE
8
BLACK
6
CONTINUOUS
10
163.22
20
-98.6409
11
163.218
21
-98.6389
0
LINE
8
BLACK
6
CONTINUOUS
10
163.218
20
-98.6389
11
163.215
21
-98.6372
0
LINE
8
BLACK
6
CONTINUOUS
10
163.215
20
-98.6372
11
163.212
21
-98.6343
0
LINE
8
BLACK
6
CONTINUOUS
10
163.212
20
-98.6343
11
163.209
21
-98.6316
0
LINE
8
BLACK
6
CONTINUOUS
10
163.209
20
-98.6316
11
163.161
21
-98.584
0
LINE
8
BLACK
6
CONTINUOUS
10
163.161
20
-98.584
11
163.161
21
-98.5832
0
LINE
8
BLACK
6
CONTINUOUS
10
163.161
20
-98.5832
11
163.158
21
-98.5799
0
LINE
8
BLACK
6
CONTINUOUS
10
163.158
20
-98.5799
11
163.155
21
-98.5769
0
LINE
8
BLACK
6
CONTINUOUS
10
163.155
20
-98.5769
11
163.153
21
-98.5742
0
LINE
8
BLACK
6
CONTINUOUS
10
163.153
20
-98.5742
11
163.151
21
-98.5718
0
LINE
8
BLACK
6
CONTINUOUS
10
163.151
20
-98.5718
11
163.149
21
-98.5681
0
LINE
8
BLACK
6
CONTINUOUS
10
163.149
20
-98.5681
11
163.147
21
-98.5645
0
LINE
8
BLACK
6
CONTINUOUS
10
163.147
20
-98.5645
11
163.1
21
-98.4693
0
LINE
8
BLACK
6
CONTINUOUS
10
163.1
20
-98.4693
11
163.099
21
-98.4683
0
LINE
8
BLACK
6
CONTINUOUS
10
163.099
20
-98.4683
11
163.098
21
-98.4662
0
LINE
8
BLACK
6
CONTINUOUS
10
163.098
20
-98.4662
11
163.097
21
-98.4643
0
LINE
8
BLACK
6
CONTINUOUS
10
163.097
20
-98.4643
11
163.096
21
-98.4594
0
LINE
8
BLACK
6
CONTINUOUS
10
163.096
20
-98.4594
11
163.094
21
-98.4546
0
LINE
8
BLACK
6
CONTINUOUS
10
163.094
20
-98.4546
11
163.094
21
-98.4524
0
LINE
8
BLACK
6
CONTINUOUS
10
163.094
20
-98.4524
11
163.093
21
-98.4503
0
LINE
8
BLACK
6
CONTINUOUS
10
163.093
20
-98.4503
11
163.093
21
-98.4452
0
LINE
8
BLACK
6
CONTINUOUS
10
163.093
20
-98.4452
11
163.092
21
-98.4401
0
LINE
8
BLACK
6
CONTINUOUS
10
163.092
20
-98.4401
11
163.092
21
-98.4379
0
LINE
8
BLACK
6
CONTINUOUS
10
163.092
20
-98.4379
11
163.092
21
-98.4357
0
LINE
8
BLACK
6
CONTINUOUS
10
163.092
20
-98.4357
11
163.092
21
-98.2929
0
LINE
8
BLACK
6
CONTINUOUS
10
163.092
20
-98.2929
11
163.092
21
-98.2918
0
LINE
8
BLACK
6
CONTINUOUS
10
163.092
20
-98.2918
11
163.092
21
-98.2896
0
LINE
8
BLACK
6
CONTINUOUS
10
163.092
20
-98.2896
11
163.092
21
-98.2874
0
LINE
8
BLACK
6
CONTINUOUS
10
163.092
20
-98.2874
11
163.093
21
-98.2824
0
LINE
8
BLACK
6
CONTINUOUS
10
163.093
20
-98.2824
11
163.093
21
-98.2773
0
LINE
8
BLACK
6
CONTINUOUS
10
163.093
20
-98.2773
11
163.094
21
-98.2752
0
LINE
8
BLACK
6
CONTINUOUS
10
163.094
20
-98.2752
11
163.094
21
-98.273
0
LINE
8
BLACK
6
CONTINUOUS
10
163.094
20
-98.273
11
163.096
21
-98.2682
0
LINE
8
BLACK
6
CONTINUOUS
10
163.096
20
-98.2682
11
163.098
21
-98.2633
0
LINE
8
BLACK
6
CONTINUOUS
10
163.098
20
-98.2633
11
163.099
21
-98.2614
0
LINE
8
BLACK
6
CONTINUOUS
10
163.099
20
-98.2614
11
163.1
21
-98.2593
0
LINE
8
BLACK
6
CONTINUOUS
10
163.1
20
-98.2593
11
163.147
21
-98.1641
0
LINE
8
BLACK
6
CONTINUOUS
10
163.147
20
-98.1641
11
163.148
21
-98.1631
0
LINE
8
BLACK
6
CONTINUOUS
10
163.148
20
-98.1631
11
163.15
21
-98.1596
0
LINE
8
BLACK
6
CONTINUOUS
10
163.15
20
-98.1596
11
163.152
21
-98.1559
0
LINE
8
BLACK
6
CONTINUOUS
10
163.152
20
-98.1559
11
163.154
21
-98.1535
0
LINE
8
BLACK
6
CONTINUOUS
10
163.154
20
-98.1535
11
163.156
21
-98.1509
0
LINE
8
BLACK
6
CONTINUOUS
10
163.156
20
-98.1509
11
163.159
21
-98.1478
0
LINE
8
BLACK
6
CONTINUOUS
10
163.159
20
-98.1478
11
163.161
21
-98.1446
0
LINE
8
BLACK
6
CONTINUOUS
10
163.161
20
-98.1446
11
163.209
21
-98.097
0
LINE
8
BLACK
6
CONTINUOUS
10
163.209
20
-98.097
11
163.21
21
-98.0962
0
LINE
8
BLACK
6
CONTINUOUS
10
163.21
20
-98.0962
11
163.213
21
-98.0936
0
LINE
8
BLACK
6
CONTINUOUS
10
163.213
20
-98.0936
11
163.216
21
-98.0907
0
LINE
8
BLACK
6
CONTINUOUS
10
163.216
20
-98.0907
11
163.219
21
-98.089
0
LINE
8
BLACK
6
CONTINUOUS
10
163.219
20
-98.089
11
163.221
21
-98.0871
0
LINE
8
BLACK
6
CONTINUOUS
10
163.221
20
-98.0871
11
163.225
21
-98.0852
0
LINE
8
BLACK
6
CONTINUOUS
10
163.225
20
-98.0852
11
163.228
21
-98.0829
0
LINE
8
BLACK
6
CONTINUOUS
10
163.228
20
-98.0829
11
163.324
21
-98.0353
0
LINE
8
BLACK
6
CONTINUOUS
10
163.324
20
-98.0353
11
163.325
21
-98.0348
0
LINE
8
BLACK
6
CONTINUOUS
10
163.325
20
-98.0348
11
163.327
21
-98.0341
0
LINE
8
BLACK
6
CONTINUOUS
10
163.327
20
-98.0341
11
163.329
21
-98.033
0
LINE
8
BLACK
6
CONTINUOUS
10
163.329
20
-98.033
11
163.333
21
-98.0316
0
LINE
8
BLACK
6
CONTINUOUS
10
163.333
20
-98.0316
11
163.338
21
-98.0298
0
LINE
8
BLACK
6
CONTINUOUS
10
163.338
20
-98.0298
11
163.34
21
-98.0294
0
LINE
8
BLACK
6
CONTINUOUS
10
163.34
20
-98.0294
11
163.343
21
-98.0288
0
LINE
8
BLACK
6
CONTINUOUS
10
163.343
20
-98.0288
11
163.348
21
-98.0283
0
LINE
8
BLACK
6
CONTINUOUS
10
163.348
20
-98.0283
11
163.353
21
-98.0275
0
LINE
8
BLACK
6
CONTINUOUS
10
163.353
20
-98.0275
11
163.355
21
-98.0276
0
LINE
8
BLACK
6
CONTINUOUS
10
163.355
20
-98.0276
11
163.357
21
-98.0274
0
LINE
8
BLACK
6
CONTINUOUS
10
163.357
20
-98.0274
11
163.738
21
-98.0274
0
LINE
8
BLACK
6
CONTINUOUS
10
163.738
20
-98.0274
11
163.739
21
-98.0274
0
LINE
8
BLACK
6
CONTINUOUS
10
163.375
20
-98.1774
11
163.306
21
-98.2116
0
LINE
8
BLACK
6
CONTINUOUS
10
163.306
20
-98.2116
11
163.276
21
-98.242
0
LINE
8
BLACK
6
CONTINUOUS
10
163.276
20
-98.242
11
163.242
21
-98.3106
0
LINE
8
BLACK
6
CONTINUOUS
10
163.242
20
-98.3106
11
163.242
21
-98.418
0
LINE
8
BLACK
6
CONTINUOUS
10
163.242
20
-98.418
11
163.276
21
-98.4865
0
LINE
8
BLACK
6
CONTINUOUS
10
163.276
20
-98.4865
11
163.306
21
-98.5169
0
LINE
8
BLACK
6
CONTINUOUS
10
163.306
20
-98.5169
11
163.375
21
-98.5512
0
LINE
8
BLACK
6
CONTINUOUS
10
163.375
20
-98.5512
11
163.663
21
-98.5512
0
LINE
8
BLACK
6
CONTINUOUS
10
163.663
20
-98.5512
11
163.663
21
-98.1774
0
LINE
8
BLACK
6
CONTINUOUS
10
163.663
20
-98.1774
11
163.375
21
-98.1774
0
LINE
8
BLACK
6
CONTINUOUS
10
162.568
20
-97.9825
11
162.581
21
-97.9878
0
LINE
8
BLACK
6
CONTINUOUS
10
162.581
20
-97.9878
11
162.594
21
-97.9956
0
LINE
8
BLACK
6
CONTINUOUS
10
162.594
20
-97.9956
11
162.604
21
-98.0057
0
LINE
8
BLACK
6
CONTINUOUS
10
162.604
20
-98.0057
11
162.613
21
-98.0177
0
LINE
8
BLACK
6
CONTINUOUS
10
162.613
20
-98.0177
11
162.619
21
-98.031
0
LINE
8
BLACK
6
CONTINUOUS
10
162.619
20
-98.031
11
162.857
21
-98.7453
0
LINE
8
BLACK
6
CONTINUOUS
10
162.857
20
-98.7453
11
162.857
21
-98.7463
0
LINE
8
BLACK
6
CONTINUOUS
10
162.857
20
-98.7463
11
162.858
21
-98.7507
0
LINE
8
BLACK
6
CONTINUOUS
10
162.858
20
-98.7507
11
162.859
21
-98.755
0
LINE
8
BLACK
6
CONTINUOUS
10
162.859
20
-98.755
11
162.86
21
-98.7578
0
LINE
8
BLACK
6
CONTINUOUS
10
162.86
20
-98.7578
11
162.86
21
-98.7606
0
LINE
8
BLACK
6
CONTINUOUS
10
162.86
20
-98.7606
11
162.86
21
-98.7651
0
LINE
8
BLACK
6
CONTINUOUS
10
162.86
20
-98.7651
11
162.861
21
-98.7696
0
LINE
8
BLACK
6
CONTINUOUS
10
162.861
20
-98.7696
11
162.86
21
-98.7724
0
LINE
8
BLACK
6
CONTINUOUS
10
162.86
20
-98.7724
11
162.86
21
-98.7753
0
LINE
8
BLACK
6
CONTINUOUS
10
162.86
20
-98.7753
11
162.86
21
-98.7797
0
LINE
8
BLACK
6
CONTINUOUS
10
162.86
20
-98.7797
11
162.859
21
-98.7841
0
LINE
8
BLACK
6
CONTINUOUS
10
162.859
20
-98.7841
11
162.858
21
-98.7869
0
LINE
8
BLACK
6
CONTINUOUS
10
162.858
20
-98.7869
11
162.858
21
-98.7897
0
LINE
8
BLACK
6
CONTINUOUS
10
162.858
20
-98.7897
11
162.856
21
-98.7938
0
LINE
8
BLACK
6
CONTINUOUS
10
162.856
20
-98.7938
11
162.855
21
-98.7981
0
LINE
8
BLACK
6
CONTINUOUS
10
162.855
20
-98.7981
11
162.853
21
-98.8006
0
LINE
8
BLACK
6
CONTINUOUS
10
162.853
20
-98.8006
11
162.852
21
-98.8033
0
LINE
8
BLACK
6
CONTINUOUS
10
162.852
20
-98.8033
11
162.85
21
-98.807
0
LINE
8
BLACK
6
CONTINUOUS
10
162.85
20
-98.807
11
162.848
21
-98.811
0
LINE
8
BLACK
6
CONTINUOUS
10
162.848
20
-98.811
11
162.846
21
-98.8132
0
LINE
8
BLACK
6
CONTINUOUS
10
162.846
20
-98.8132
11
162.845
21
-98.8156
0
LINE
8
BLACK
6
CONTINUOUS
10
162.845
20
-98.8156
11
162.841
21
-98.8188
0
LINE
8
BLACK
6
CONTINUOUS
10
162.841
20
-98.8188
11
162.839
21
-98.8223
0
LINE
8
BLACK
6
CONTINUOUS
10
162.839
20
-98.8223
11
162.836
21
-98.8241
0
LINE
8
BLACK
6
CONTINUOUS
10
162.836
20
-98.8241
11
162.834
21
-98.8261
0
LINE
8
BLACK
6
CONTINUOUS
10
162.834
20
-98.8261
11
162.831
21
-98.8287
0
LINE
8
BLACK
6
CONTINUOUS
10
162.831
20
-98.8287
11
162.827
21
-98.8315
0
LINE
8
BLACK
6
CONTINUOUS
10
162.827
20
-98.8315
11
162.825
21
-98.8329
0
LINE
8
BLACK
6
CONTINUOUS
10
162.825
20
-98.8329
11
162.822
21
-98.8345
0
LINE
8
BLACK
6
CONTINUOUS
10
162.822
20
-98.8345
11
162.818
21
-98.8363
0
LINE
8
BLACK
6
CONTINUOUS
10
162.818
20
-98.8363
11
162.814
21
-98.8384
0
LINE
8
BLACK
6
CONTINUOUS
10
162.814
20
-98.8384
11
162.812
21
-98.8392
0
LINE
8
BLACK
6
CONTINUOUS
10
162.812
20
-98.8392
11
162.809
21
-98.8404
0
LINE
8
BLACK
6
CONTINUOUS
10
162.809
20
-98.8404
11
162.805
21
-98.8413
0
LINE
8
BLACK
6
CONTINUOUS
10
162.805
20
-98.8413
11
162.8
21
-98.8426
0
LINE
8
BLACK
6
CONTINUOUS
10
162.8
20
-98.8426
11
162.797
21
-98.8429
0
LINE
8
BLACK
6
CONTINUOUS
10
162.797
20
-98.8429
11
162.795
21
-98.8435
0
LINE
8
BLACK
6
CONTINUOUS
10
162.795
20
-98.8435
11
162.79
21
-98.8436
0
LINE
8
BLACK
6
CONTINUOUS
10
162.79
20
-98.8436
11
162.786
21
-98.844
0
LINE
8
BLACK
6
CONTINUOUS
10
162.786
20
-98.844
11
162.385
21
-98.844
0
LINE
8
BLACK
6
CONTINUOUS
10
162.385
20
-98.844
11
162.385
21
-99.1024
0
LINE
8
BLACK
6
CONTINUOUS
10
162.385
20
-99.1024
11
162.385
21
-99.1034
0
LINE
8
BLACK
6
CONTINUOUS
10
162.385
20
-99.1034
11
162.383
21
-99.118
0
LINE
8
BLACK
6
CONTINUOUS
10
162.383
20
-99.118
11
162.378
21
-99.1319
0
LINE
8
BLACK
6
CONTINUOUS
10
162.378
20
-99.1319
11
162.371
21
-99.1448
0
LINE
8
BLACK
6
CONTINUOUS
10
162.371
20
-99.1448
11
162.362
21
-99.156
0
LINE
8
BLACK
6
CONTINUOUS
10
162.362
20
-99.156
11
162.351
21
-99.1651
0
LINE
8
BLACK
6
CONTINUOUS
10
162.351
20
-99.1651
11
162.338
21
-99.1719
0
LINE
8
BLACK
6
CONTINUOUS
10
162.338
20
-99.1719
11
162.324
21
-99.1761
0
LINE
8
BLACK
6
CONTINUOUS
10
162.324
20
-99.1761
11
162.309
21
-99.1774
0
LINE
8
BLACK
6
CONTINUOUS
10
162.309
20
-99.1774
11
162.294
21
-99.1758
0
LINE
8
BLACK
6
CONTINUOUS
10
162.294
20
-99.1758
11
162.28
21
-99.1715
0
LINE
8
BLACK
6
CONTINUOUS
10
162.28
20
-99.1715
11
162.268
21
-99.1646
0
LINE
8
BLACK
6
CONTINUOUS
10
162.268
20
-99.1646
11
162.256
21
-99.1552
0
LINE
8
BLACK
6
CONTINUOUS
10
162.256
20
-99.1552
11
162.247
21
-99.1439
0
LINE
8
BLACK
6
CONTINUOUS
10
162.247
20
-99.1439
11
162.24
21
-99.131
0
LINE
8
BLACK
6
CONTINUOUS
10
162.24
20
-99.131
11
162.236
21
-99.1169
0
LINE
8
BLACK
6
CONTINUOUS
10
162.236
20
-99.1169
11
162.235
21
-99.1024
0
LINE
8
BLACK
6
CONTINUOUS
10
162.235
20
-99.1024
11
162.235
21
-98.844
0
LINE
8
BLACK
6
CONTINUOUS
10
162.235
20
-98.844
11
162.167
21
-98.844
0
LINE
8
BLACK
6
CONTINUOUS
10
162.167
20
-98.844
11
162.166
21
-98.844
0
LINE
8
BLACK
6
CONTINUOUS
10
162.166
20
-98.844
11
162.151
21
-98.8424
0
LINE
8
BLACK
6
CONTINUOUS
10
162.151
20
-98.8424
11
162.137
21
-98.838
0
LINE
8
BLACK
6
CONTINUOUS
10
162.137
20
-98.838
11
162.124
21
-98.8309
0
LINE
8
BLACK
6
CONTINUOUS
10
162.124
20
-98.8309
11
162.113
21
-98.8215
0
LINE
8
BLACK
6
CONTINUOUS
10
162.113
20
-98.8215
11
162.104
21
-98.8101
0
LINE
8
BLACK
6
CONTINUOUS
10
162.104
20
-98.8101
11
162.097
21
-98.7971
0
LINE
8
BLACK
6
CONTINUOUS
10
162.097
20
-98.7971
11
162.093
21
-98.7831
0
LINE
8
BLACK
6
CONTINUOUS
10
162.093
20
-98.7831
11
162.092
21
-98.7685
0
LINE
8
BLACK
6
CONTINUOUS
10
162.092
20
-98.7685
11
162.093
21
-98.754
0
LINE
8
BLACK
6
CONTINUOUS
10
162.093
20
-98.754
11
162.098
21
-98.74
0
LINE
8
BLACK
6
CONTINUOUS
10
162.098
20
-98.74
11
162.104
21
-98.7271
0
LINE
8
BLACK
6
CONTINUOUS
10
162.104
20
-98.7271
11
162.114
21
-98.7158
0
LINE
8
BLACK
6
CONTINUOUS
10
162.114
20
-98.7158
11
162.125
21
-98.7066
0
LINE
8
BLACK
6
CONTINUOUS
10
162.125
20
-98.7066
11
162.138
21
-98.6997
0
LINE
8
BLACK
6
CONTINUOUS
10
162.138
20
-98.6997
11
162.152
21
-98.6955
0
LINE
8
BLACK
6
CONTINUOUS
10
162.152
20
-98.6955
11
162.167
21
-98.694
0
LINE
8
BLACK
6
CONTINUOUS
10
162.167
20
-98.694
11
162.235
21
-98.694
0
LINE
8
BLACK
6
CONTINUOUS
10
162.235
20
-98.694
11
162.235
21
-98.4357
0
LINE
8
BLACK
6
CONTINUOUS
10
162.235
20
-98.4357
11
162.235
21
-98.4347
0
LINE
8
BLACK
6
CONTINUOUS
10
162.235
20
-98.4347
11
162.236
21
-98.4201
0
LINE
8
BLACK
6
CONTINUOUS
10
162.236
20
-98.4201
11
162.241
21
-98.4062
0
LINE
8
BLACK
6
CONTINUOUS
10
162.241
20
-98.4062
11
162.248
21
-98.3933
0
LINE
8
BLACK
6
CONTINUOUS
10
162.248
20
-98.3933
11
162.257
21
-98.3821
0
LINE
8
BLACK
6
CONTINUOUS
10
162.257
20
-98.3821
11
162.268
21
-98.373
0
LINE
8
BLACK
6
CONTINUOUS
10
162.268
20
-98.373
11
162.281
21
-98.3662
0
LINE
8
BLACK
6
CONTINUOUS
10
162.281
20
-98.3662
11
162.295
21
-98.362
0
LINE
8
BLACK
6
CONTINUOUS
10
162.295
20
-98.362
11
162.31
21
-98.3607
0
LINE
8
BLACK
6
CONTINUOUS
10
162.31
20
-98.3607
11
162.325
21
-98.3622
0
LINE
8
BLACK
6
CONTINUOUS
10
162.325
20
-98.3622
11
162.339
21
-98.3666
0
LINE
8
BLACK
6
CONTINUOUS
10
162.339
20
-98.3666
11
162.351
21
-98.3735
0
LINE
8
BLACK
6
CONTINUOUS
10
162.351
20
-98.3735
11
162.363
21
-98.3829
0
LINE
8
BLACK
6
CONTINUOUS
10
162.363
20
-98.3829
11
162.372
21
-98.3942
0
LINE
8
BLACK
6
CONTINUOUS
10
162.372
20
-98.3942
11
162.379
21
-98.4071
0
LINE
8
BLACK
6
CONTINUOUS
10
162.379
20
-98.4071
11
162.383
21
-98.4211
0
LINE
8
BLACK
6
CONTINUOUS
10
162.383
20
-98.4211
11
162.385
21
-98.4357
0
LINE
8
BLACK
6
CONTINUOUS
10
162.385
20
-98.4357
11
162.385
21
-98.694
0
LINE
8
BLACK
6
CONTINUOUS
10
162.385
20
-98.694
11
162.682
21
-98.694
0
LINE
8
BLACK
6
CONTINUOUS
10
162.682
20
-98.694
11
162.476
21
-98.0785
0
LINE
8
BLACK
6
CONTINUOUS
10
162.476
20
-98.0785
11
162.476
21
-98.0775
0
LINE
8
BLACK
6
CONTINUOUS
10
162.476
20
-98.0775
11
162.473
21
-98.0632
0
LINE
8
BLACK
6
CONTINUOUS
10
162.473
20
-98.0632
11
162.473
21
-98.0485
0
LINE
8
BLACK
6
CONTINUOUS
10
162.473
20
-98.0485
11
162.476
21
-98.0341
0
LINE
8
BLACK
6
CONTINUOUS
10
162.476
20
-98.0341
11
162.481
21
-98.0205
0
LINE
8
BLACK
6
CONTINUOUS
10
162.481
20
-98.0205
11
162.489
21
-98.0082
0
LINE
8
BLACK
6
CONTINUOUS
10
162.489
20
-98.0082
11
162.499
21
-97.9977
0
LINE
8
BLACK
6
CONTINUOUS
10
162.499
20
-97.9977
11
162.511
21
-97.9893
0
LINE
8
BLACK
6
CONTINUOUS
10
162.511
20
-97.9893
11
162.524
21
-97.9834
0
LINE
8
BLACK
6
CONTINUOUS
10
162.524
20
-97.9834
11
162.539
21
-97.9803
0
LINE
8
BLACK
6
CONTINUOUS
10
162.539
20
-97.9803
11
162.553
21
-97.98
0
LINE
8
BLACK
6
CONTINUOUS
10
162.553
20
-97.98
11
162.568
21
-97.9825
0
LINE
8
BLACK
6
CONTINUOUS
10
163.273
20
-97.6509
11
163.284
21
-97.6543
0
LINE
8
BLACK
6
CONTINUOUS
10
163.284
20
-97.6543
11
163.295
21
-97.6599
0
LINE
8
BLACK
6
CONTINUOUS
10
163.295
20
-97.6599
11
163.304
21
-97.6674
0
LINE
8
BLACK
6
CONTINUOUS
10
163.304
20
-97.6674
11
163.311
21
-97.6765
0
LINE
8
BLACK
6
CONTINUOUS
10
163.311
20
-97.6765
11
163.317
21
-97.6869
0
LINE
8
BLACK
6
CONTINUOUS
10
163.317
20
-97.6869
11
163.32
21
-97.6982
0
LINE
8
BLACK
6
CONTINUOUS
10
163.32
20
-97.6982
11
163.322
21
-97.71
0
LINE
8
BLACK
6
CONTINUOUS
10
163.322
20
-97.71
11
163.32
21
-97.7218
0
LINE
8
BLACK
6
CONTINUOUS
10
163.32
20
-97.7218
11
163.317
21
-97.7331
0
LINE
8
BLACK
6
CONTINUOUS
10
163.317
20
-97.7331
11
163.311
21
-97.7435
0
LINE
8
BLACK
6
CONTINUOUS
10
163.311
20
-97.7435
11
163.304
21
-97.7526
0
LINE
8
BLACK
6
CONTINUOUS
10
163.304
20
-97.7526
11
163.295
21
-97.7601
0
LINE
8
BLACK
6
CONTINUOUS
10
163.295
20
-97.7601
11
163.284
21
-97.7657
0
LINE
8
BLACK
6
CONTINUOUS
10
163.284
20
-97.7657
11
163.273
21
-97.7691
0
LINE
8
BLACK
6
CONTINUOUS
10
163.273
20
-97.7691
11
163.264
21
-97.77
0
LINE
8
BLACK
6
CONTINUOUS
10
163.264
20
-97.77
11
162.736
21
-97.77
0
LINE
8
BLACK
6
CONTINUOUS
10
162.736
20
-97.77
11
162.727
21
-97.7691
0
LINE
8
BLACK
6
CONTINUOUS
10
162.727
20
-97.7691
11
162.716
21
-97.7657
0
LINE
8
BLACK
6
CONTINUOUS
10
162.716
20
-97.7657
11
162.705
21
-97.7601
0
LINE
8
BLACK
6
CONTINUOUS
10
162.705
20
-97.7601
11
162.696
21
-97.7526
0
LINE
8
BLACK
6
CONTINUOUS
10
162.696
20
-97.7526
11
162.689
21
-97.7435
0
LINE
8
BLACK
6
CONTINUOUS
10
162.689
20
-97.7435
11
162.683
21
-97.7331
0
LINE
8
BLACK
6
CONTINUOUS
10
162.683
20
-97.7331
11
162.68
21
-97.7218
0
LINE
8
BLACK
6
CONTINUOUS
10
162.68
20
-97.7218
11
162.678
21
-97.71
0
LINE
8
BLACK
6
CONTINUOUS
10
162.678
20
-97.71
11
162.68
21
-97.6982
0
LINE
8
BLACK
6
CONTINUOUS
10
162.68
20
-97.6982
11
162.683
21
-97.6869
0
LINE
8
BLACK
6
CONTINUOUS
10
162.683
20
-97.6869
11
162.689
21
-97.6765
0
LINE
8
BLACK
6
CONTINUOUS
10
162.689
20
-97.6765
11
162.696
21
-97.6674
0
LINE
8
BLACK
6
CONTINUOUS
10
162.696
20
-97.6674
11
162.705
21
-97.6599
0
LINE
8
BLACK
6
CONTINUOUS
10
162.705
20
-97.6599
11
162.716
21
-97.6543
0
LINE
8
BLACK
6
CONTINUOUS
10
162.716
20
-97.6543
11
162.727
21
-97.6509
0
LINE
8
BLACK
6
CONTINUOUS
10
162.727
20
-97.6509
11
162.736
21
-97.65
0
LINE
8
BLACK
6
CONTINUOUS
10
162.736
20
-97.65
11
163.264
21
-97.65
0
LINE
8
BLACK
6
CONTINUOUS
10
163.264
20
-97.65
11
163.273
21
-97.6509
0
LINE
8
BLACK
6
CONTINUOUS
10
163.273
20
-96.2309
11
163.284
21
-96.2343
0
LINE
8
BLACK
6
CONTINUOUS
10
163.284
20
-96.2343
11
163.295
21
-96.2399
0
LINE
8
BLACK
6
CONTINUOUS
10
163.295
20
-96.2399
11
163.304
21
-96.2474
0
LINE
8
BLACK
6
CONTINUOUS
10
163.304
20
-96.2474
11
163.311
21
-96.2565
0
LINE
8
BLACK
6
CONTINUOUS
10
163.311
20
-96.2565
11
163.317
21
-96.2669
0
LINE
8
BLACK
6
CONTINUOUS
10
163.317
20
-96.2669
11
163.32
21
-96.2782
0
LINE
8
BLACK
6
CONTINUOUS
10
163.32
20
-96.2782
11
163.322
21
-96.29
0
LINE
8
BLACK
6
CONTINUOUS
10
163.322
20
-96.29
11
163.32
21
-96.3018
0
LINE
8
BLACK
6
CONTINUOUS
10
163.32
20
-96.3018
11
163.317
21
-96.3131
0
LINE
8
BLACK
6
CONTINUOUS
10
163.317
20
-96.3131
11
163.311
21
-96.3235
0
LINE
8
BLACK
6
CONTINUOUS
10
163.311
20
-96.3235
11
163.304
21
-96.3326
0
LINE
8
BLACK
6
CONTINUOUS
10
163.304
20
-96.3326
11
163.295
21
-96.3401
0
LINE
8
BLACK
6
CONTINUOUS
10
163.295
20
-96.3401
11
163.284
21
-96.3457
0
LINE
8
BLACK
6
CONTINUOUS
10
163.284
20
-96.3457
11
163.273
21
-96.3491
0
LINE
8
BLACK
6
CONTINUOUS
10
163.273
20
-96.3491
11
163.264
21
-96.35
0
LINE
8
BLACK
6
CONTINUOUS
10
163.264
20
-96.35
11
162.736
21
-96.35
0
LINE
8
BLACK
6
CONTINUOUS
10
162.736
20
-96.35
11
162.727
21
-96.3491
0
LINE
8
BLACK
6
CONTINUOUS
10
162.727
20
-96.3491
11
162.716
21
-96.3457
0
LINE
8
BLACK
6
CONTINUOUS
10
162.716
20
-96.3457
11
162.705
21
-96.3401
0
LINE
8
BLACK
6
CONTINUOUS
10
162.705
20
-96.3401
11
162.696
21
-96.3326
0
LINE
8
BLACK
6
CONTINUOUS
10
162.696
20
-96.3326
11
162.689
21
-96.3235
0
LINE
8
BLACK
6
CONTINUOUS
10
162.689
20
-96.3235
11
162.683
21
-96.3131
0
LINE
8
BLACK
6
CONTINUOUS
10
162.683
20
-96.3131
11
162.68
21
-96.3018
0
LINE
8
BLACK
6
CONTINUOUS
10
162.68
20
-96.3018
11
162.678
21
-96.29
0
LINE
8
BLACK
6
CONTINUOUS
10
162.678
20
-96.29
11
162.68
21
-96.2782
0
LINE
8
BLACK
6
CONTINUOUS
10
162.68
20
-96.2782
11
162.683
21
-96.2669
0
LINE
8
BLACK
6
CONTINUOUS
10
162.683
20
-96.2669
11
162.689
21
-96.2565
0
LINE
8
BLACK
6
CONTINUOUS
10
162.689
20
-96.2565
11
162.696
21
-96.2474
0
LINE
8
BLACK
6
CONTINUOUS
10
162.696
20
-96.2474
11
162.705
21
-96.2399
0
LINE
8
BLACK
6
CONTINUOUS
10
162.705
20
-96.2399
11
162.716
21
-96.2343
0
LINE
8
BLACK
6
CONTINUOUS
10
162.716
20
-96.2343
11
162.727
21
-96.2309
0
LINE
8
BLACK
6
CONTINUOUS
10
162.727
20
-96.2309
11
162.736
21
-96.23
0
LINE
8
BLACK
6
CONTINUOUS
10
162.736
20
-96.23
11
163.264
21
-96.23
0
LINE
8
BLACK
6
CONTINUOUS
10
163.264
20
-96.23
11
163.273
21
-96.2309
0
LINE
8
BLACK
6
CONTINUOUS
10
136.703
20
-81.824
11
136.703
21
-81.824
0
LINE
8
BLACK
6
CONTINUOUS
10
136.703
20
-81.824
11
136.71
21
-81.8247
0
LINE
8
BLACK
6
CONTINUOUS
10
136.71
20
-81.8247
11
136.717
21
-81.8255
0
LINE
8
BLACK
6
CONTINUOUS
10
136.717
20
-81.8255
11
136.718
21
-81.8255
0
LINE
8
BLACK
6
CONTINUOUS
10
136.718
20
-81.8255
11
136.718
21
-81.8256
0
LINE
8
BLACK
6
CONTINUOUS
10
136.718
20
-81.8256
11
136.724
21
-81.8277
0
LINE
8
BLACK
6
CONTINUOUS
10
136.724
20
-81.8277
11
136.731
21
-81.8298
0
LINE
8
BLACK
6
CONTINUOUS
10
136.731
20
-81.8298
11
136.732
21
-81.8299
0
LINE
8
BLACK
6
CONTINUOUS
10
136.732
20
-81.8299
11
136.732
21
-81.8299
0
LINE
8
BLACK
6
CONTINUOUS
10
136.732
20
-81.8299
11
136.738
21
-81.8334
0
LINE
8
BLACK
6
CONTINUOUS
10
136.738
20
-81.8334
11
136.744
21
-81.8368
0
LINE
8
BLACK
6
CONTINUOUS
10
136.744
20
-81.8368
11
136.744
21
-81.8369
0
LINE
8
BLACK
6
CONTINUOUS
10
136.744
20
-81.8369
11
136.745
21
-81.8369
0
LINE
8
BLACK
6
CONTINUOUS
10
136.745
20
-81.8369
11
136.75
21
-81.8415
0
LINE
8
BLACK
6
CONTINUOUS
10
136.75
20
-81.8415
11
136.756
21
-81.8461
0
LINE
8
BLACK
6
CONTINUOUS
10
136.756
20
-81.8461
11
136.756
21
-81.8462
0
LINE
8
BLACK
6
CONTINUOUS
10
136.756
20
-81.8462
11
136.756
21
-81.8463
0
LINE
8
BLACK
6
CONTINUOUS
10
136.756
20
-81.8463
11
136.76
21
-81.8518
0
LINE
8
BLACK
6
CONTINUOUS
10
136.76
20
-81.8518
11
136.765
21
-81.8575
0
LINE
8
BLACK
6
CONTINUOUS
10
136.765
20
-81.8575
11
136.765
21
-81.8576
0
LINE
8
BLACK
6
CONTINUOUS
10
136.765
20
-81.8576
11
136.765
21
-81.8577
0
LINE
8
BLACK
6
CONTINUOUS
10
136.765
20
-81.8577
11
136.768
21
-81.8641
0
LINE
8
BLACK
6
CONTINUOUS
10
136.768
20
-81.8641
11
136.772
21
-81.8704
0
LINE
8
BLACK
6
CONTINUOUS
10
136.772
20
-81.8704
11
136.772
21
-81.8705
0
LINE
8
BLACK
6
CONTINUOUS
10
136.772
20
-81.8705
11
136.772
21
-81.8706
0
LINE
8
BLACK
6
CONTINUOUS
10
136.772
20
-81.8706
11
136.774
21
-81.8776
0
LINE
8
BLACK
6
CONTINUOUS
10
136.774
20
-81.8776
11
136.776
21
-81.8844
0
LINE
8
BLACK
6
CONTINUOUS
10
136.776
20
-81.8844
11
136.776
21
-81.8845
0
LINE
8
BLACK
6
CONTINUOUS
10
136.776
20
-81.8845
11
136.776
21
-81.8847
0
LINE
8
BLACK
6
CONTINUOUS
10
136.776
20
-81.8847
11
136.777
21
-81.8918
0
LINE
8
BLACK
6
CONTINUOUS
10
136.777
20
-81.8918
11
136.777
21
-81.899
0
LINE
8
BLACK
6
CONTINUOUS
10
136.777
20
-81.899
11
136.777
21
-82.518
0
LINE
8
BLACK
6
CONTINUOUS
10
136.777
20
-82.518
11
136.777
21
-82.5191
0
LINE
8
BLACK
6
CONTINUOUS
10
136.777
20
-82.5191
11
136.776
21
-82.5336
0
LINE
8
BLACK
6
CONTINUOUS
10
136.776
20
-82.5336
11
136.771
21
-82.5476
0
LINE
8
BLACK
6
CONTINUOUS
10
136.771
20
-82.5476
11
136.764
21
-82.5604
0
LINE
8
BLACK
6
CONTINUOUS
10
136.764
20
-82.5604
11
136.755
21
-82.5716
0
LINE
8
BLACK
6
CONTINUOUS
10
136.755
20
-82.5716
11
136.743
21
-82.5808
0
LINE
8
BLACK
6
CONTINUOUS
10
136.743
20
-82.5808
11
136.73
21
-82.5876
0
LINE
8
BLACK
6
CONTINUOUS
10
136.73
20
-82.5876
11
136.716
21
-82.5917
0
LINE
8
BLACK
6
CONTINUOUS
10
136.716
20
-82.5917
11
136.702
21
-82.593
0
LINE
8
BLACK
6
CONTINUOUS
10
136.702
20
-82.593
11
136.687
21
-82.5915
0
LINE
8
BLACK
6
CONTINUOUS
10
136.687
20
-82.5915
11
136.673
21
-82.5872
0
LINE
8
BLACK
6
CONTINUOUS
10
136.673
20
-82.5872
11
136.66
21
-82.5802
0
LINE
8
BLACK
6
CONTINUOUS
10
136.66
20
-82.5802
11
136.649
21
-82.5709
0
LINE
8
BLACK
6
CONTINUOUS
10
136.649
20
-82.5709
11
136.64
21
-82.5595
0
LINE
8
BLACK
6
CONTINUOUS
10
136.64
20
-82.5595
11
136.633
21
-82.5466
0
LINE
8
BLACK
6
CONTINUOUS
10
136.633
20
-82.5466
11
136.629
21
-82.5326
0
LINE
8
BLACK
6
CONTINUOUS
10
136.629
20
-82.5326
11
136.627
21
-82.518
0
LINE
8
BLACK
6
CONTINUOUS
10
136.627
20
-82.518
11
136.627
21
-82.08
0
LINE
8
BLACK
6
CONTINUOUS
10
136.627
20
-82.08
11
136.184
21
-82.5234
0
LINE
8
BLACK
6
CONTINUOUS
10
136.184
20
-82.5234
11
136.183
21
-82.5242
0
LINE
8
BLACK
6
CONTINUOUS
10
136.183
20
-82.5242
11
136.182
21
-82.5256
0
LINE
8
BLACK
6
CONTINUOUS
10
136.182
20
-82.5256
11
136.18
21
-82.5271
0
LINE
8
BLACK
6
CONTINUOUS
10
136.18
20
-82.5271
11
136.176
21
-82.5301
0
LINE
8
BLACK
6
CONTINUOUS
10
136.176
20
-82.5301
11
136.172
21
-82.5333
0
LINE
8
BLACK
6
CONTINUOUS
10
136.172
20
-82.5333
11
136.17
21
-82.5343
0
LINE
8
BLACK
6
CONTINUOUS
10
136.17
20
-82.5343
11
136.168
21
-82.5356
0
LINE
8
BLACK
6
CONTINUOUS
10
136.168
20
-82.5356
11
136.163
21
-82.5377
0
LINE
8
BLACK
6
CONTINUOUS
10
136.163
20
-82.5377
11
136.159
21
-82.54
0
LINE
8
BLACK
6
CONTINUOUS
10
136.159
20
-82.54
11
136.157
21
-82.5407
0
LINE
8
BLACK
6
CONTINUOUS
10
136.157
20
-82.5407
11
136.155
21
-82.5416
0
LINE
8
BLACK
6
CONTINUOUS
10
136.155
20
-82.5416
11
136.012
21
-82.5892
0
LINE
8
BLACK
6
CONTINUOUS
10
136.012
20
-82.5892
11
136.011
21
-82.5895
0
LINE
8
BLACK
6
CONTINUOUS
10
136.011
20
-82.5895
11
136.007
21
-82.5904
0
LINE
8
BLACK
6
CONTINUOUS
10
136.007
20
-82.5904
11
136.003
21
-82.5916
0
LINE
8
BLACK
6
CONTINUOUS
10
136.003
20
-82.5916
11
136
21
-82.5919
0
LINE
8
BLACK
6
CONTINUOUS
10
136
20
-82.5919
11
135.997
21
-82.5926
0
LINE
8
BLACK
6
CONTINUOUS
10
135.997
20
-82.5926
11
135.992
21
-82.5926
0
LINE
8
BLACK
6
CONTINUOUS
10
135.992
20
-82.5926
11
135.988
21
-82.593
0
LINE
8
BLACK
6
CONTINUOUS
10
135.988
20
-82.593
11
135.893
21
-82.593
0
LINE
8
BLACK
6
CONTINUOUS
10
135.893
20
-82.593
11
135.892
21
-82.593
0
LINE
8
BLACK
6
CONTINUOUS
10
135.892
20
-82.593
11
135.89
21
-82.5928
0
LINE
8
BLACK
6
CONTINUOUS
10
135.89
20
-82.5928
11
135.887
21
-82.5928
0
LINE
8
BLACK
6
CONTINUOUS
10
135.887
20
-82.5928
11
135.882
21
-82.592
0
LINE
8
BLACK
6
CONTINUOUS
10
135.882
20
-82.592
11
135.877
21
-82.5914
0
LINE
8
BLACK
6
CONTINUOUS
10
135.877
20
-82.5914
11
135.875
21
-82.5907
0
LINE
8
BLACK
6
CONTINUOUS
10
135.875
20
-82.5907
11
135.873
21
-82.5903
0
LINE
8
BLACK
6
CONTINUOUS
10
135.873
20
-82.5903
11
135.868
21
-82.5885
0
LINE
8
BLACK
6
CONTINUOUS
10
135.868
20
-82.5885
11
135.863
21
-82.587
0
LINE
8
BLACK
6
CONTINUOUS
10
135.863
20
-82.587
11
135.861
21
-82.5859
0
LINE
8
BLACK
6
CONTINUOUS
10
135.861
20
-82.5859
11
135.859
21
-82.5851
0
LINE
8
BLACK
6
CONTINUOUS
10
135.859
20
-82.5851
11
135.764
21
-82.5375
0
LINE
8
BLACK
6
CONTINUOUS
10
135.764
20
-82.5375
11
135.763
21
-82.537
0
LINE
8
BLACK
6
CONTINUOUS
10
135.763
20
-82.537
11
135.76
21
-82.5347
0
LINE
8
BLACK
6
CONTINUOUS
10
135.76
20
-82.5347
11
135.756
21
-82.5327
0
LINE
8
BLACK
6
CONTINUOUS
10
135.756
20
-82.5327
11
135.753
21
-82.5307
0
LINE
8
BLACK
6
CONTINUOUS
10
135.753
20
-82.5307
11
135.751
21
-82.529
0
LINE
8
BLACK
6
CONTINUOUS
10
135.751
20
-82.529
11
135.748
21
-82.5261
0
LINE
8
BLACK
6
CONTINUOUS
10
135.748
20
-82.5261
11
135.745
21
-82.5234
0
LINE
8
BLACK
6
CONTINUOUS
10
135.745
20
-82.5234
11
135.697
21
-82.4758
0
LINE
8
BLACK
6
CONTINUOUS
10
135.697
20
-82.4758
11
135.696
21
-82.4751
0
LINE
8
BLACK
6
CONTINUOUS
10
135.696
20
-82.4751
11
135.694
21
-82.4718
0
LINE
8
BLACK
6
CONTINUOUS
10
135.694
20
-82.4718
11
135.691
21
-82.4687
0
LINE
8
BLACK
6
CONTINUOUS
10
135.691
20
-82.4687
11
135.689
21
-82.4661
0
LINE
8
BLACK
6
CONTINUOUS
10
135.689
20
-82.4661
11
135.687
21
-82.4636
0
LINE
8
BLACK
6
CONTINUOUS
10
135.687
20
-82.4636
11
135.685
21
-82.4599
0
LINE
8
BLACK
6
CONTINUOUS
10
135.685
20
-82.4599
11
135.683
21
-82.4563
0
LINE
8
BLACK
6
CONTINUOUS
10
135.683
20
-82.4563
11
135.635
21
-82.3611
0
LINE
8
BLACK
6
CONTINUOUS
10
135.635
20
-82.3611
11
135.635
21
-82.3601
0
LINE
8
BLACK
6
CONTINUOUS
10
135.635
20
-82.3601
11
135.634
21
-82.3581
0
LINE
8
BLACK
6
CONTINUOUS
10
135.634
20
-82.3581
11
135.633
21
-82.3561
0
LINE
8
BLACK
6
CONTINUOUS
10
135.633
20
-82.3561
11
135.632
21
-82.3512
0
LINE
8
BLACK
6
CONTINUOUS
10
135.632
20
-82.3512
11
135.63
21
-82.3464
0
LINE
8
BLACK
6
CONTINUOUS
10
135.63
20
-82.3464
11
135.629
21
-82.3442
0
LINE
8
BLACK
6
CONTINUOUS
10
135.629
20
-82.3442
11
135.629
21
-82.3421
0
LINE
8
BLACK
6
CONTINUOUS
10
135.629
20
-82.3421
11
135.628
21
-82.337
0
LINE
8
BLACK
6
CONTINUOUS
10
135.628
20
-82.337
11
135.628
21
-82.3319
0
LINE
8
BLACK
6
CONTINUOUS
10
135.628
20
-82.3319
11
135.628
21
-82.3297
0
LINE
8
BLACK
6
CONTINUOUS
10
135.628
20
-82.3297
11
135.627
21
-82.3275
0
LINE
8
BLACK
6
CONTINUOUS
10
135.627
20
-82.3275
11
135.627
21
-82.0895
0
LINE
8
BLACK
6
CONTINUOUS
10
135.627
20
-82.0895
11
135.627
21
-82.0884
0
LINE
8
BLACK
6
CONTINUOUS
10
135.627
20
-82.0884
11
135.628
21
-82.0862
0
LINE
8
BLACK
6
CONTINUOUS
10
135.628
20
-82.0862
11
135.628
21
-82.084
0
LINE
8
BLACK
6
CONTINUOUS
10
135.628
20
-82.084
11
135.628
21
-82.0789
0
LINE
8
BLACK
6
CONTINUOUS
10
135.628
20
-82.0789
11
135.629
21
-82.0739
0
LINE
8
BLACK
6
CONTINUOUS
10
135.629
20
-82.0739
11
135.63
21
-82.0718
0
LINE
8
BLACK
6
CONTINUOUS
10
135.63
20
-82.0718
11
135.63
21
-82.0696
0
LINE
8
BLACK
6
CONTINUOUS
10
135.63
20
-82.0696
11
135.632
21
-82.0648
0
LINE
8
BLACK
6
CONTINUOUS
10
135.632
20
-82.0648
11
135.633
21
-82.0599
0
LINE
8
BLACK
6
CONTINUOUS
10
135.633
20
-82.0599
11
135.635
21
-82.058
0
LINE
8
BLACK
6
CONTINUOUS
10
135.635
20
-82.058
11
135.635
21
-82.0559
0
LINE
8
BLACK
6
CONTINUOUS
10
135.635
20
-82.0559
11
135.683
21
-81.9607
0
LINE
8
BLACK
6
CONTINUOUS
10
135.683
20
-81.9607
11
135.683
21
-81.9597
0
LINE
8
BLACK
6
CONTINUOUS
10
135.683
20
-81.9597
11
135.686
21
-81.9562
0
LINE
8
BLACK
6
CONTINUOUS
10
135.686
20
-81.9562
11
135.688
21
-81.9525
0
LINE
8
BLACK
6
CONTINUOUS
10
135.688
20
-81.9525
11
135.69
21
-81.9501
0
LINE
8
BLACK
6
CONTINUOUS
10
135.69
20
-81.9501
11
135.691
21
-81.9475
0
LINE
8
BLACK
6
CONTINUOUS
10
135.691
20
-81.9475
11
135.694
21
-81.9444
0
LINE
8
BLACK
6
CONTINUOUS
10
135.694
20
-81.9444
11
135.697
21
-81.9412
0
LINE
8
BLACK
6
CONTINUOUS
10
135.697
20
-81.9412
11
135.745
21
-81.8936
0
LINE
8
BLACK
6
CONTINUOUS
10
135.745
20
-81.8936
11
135.745
21
-81.8928
0
LINE
8
BLACK
6
CONTINUOUS
10
135.745
20
-81.8928
11
135.757
21
-81.8837
0
LINE
8
BLACK
6
CONTINUOUS
10
135.757
20
-81.8837
11
135.77
21
-81.877
0
LINE
8
BLACK
6
CONTINUOUS
10
135.77
20
-81.877
11
135.784
21
-81.8729
0
LINE
8
BLACK
6
CONTINUOUS
10
135.784
20
-81.8729
11
135.798
21
-81.8716
0
LINE
8
BLACK
6
CONTINUOUS
10
135.798
20
-81.8716
11
135.813
21
-81.8732
0
LINE
8
BLACK
6
CONTINUOUS
10
135.813
20
-81.8732
11
135.827
21
-81.8776
0
LINE
8
BLACK
6
CONTINUOUS
10
135.827
20
-81.8776
11
135.84
21
-81.8846
0
LINE
8
BLACK
6
CONTINUOUS
10
135.84
20
-81.8846
11
135.851
21
-81.8939
0
LINE
8
BLACK
6
CONTINUOUS
10
135.851
20
-81.8939
11
135.86
21
-81.9053
0
LINE
8
BLACK
6
CONTINUOUS
10
135.86
20
-81.9053
11
135.867
21
-81.9183
0
LINE
8
BLACK
6
CONTINUOUS
10
135.867
20
-81.9183
11
135.871
21
-81.9323
0
LINE
8
BLACK
6
CONTINUOUS
10
135.871
20
-81.9323
11
135.873
21
-81.9469
0
LINE
8
BLACK
6
CONTINUOUS
10
135.873
20
-81.9469
11
135.871
21
-81.9614
0
LINE
8
BLACK
6
CONTINUOUS
10
135.871
20
-81.9614
11
135.867
21
-81.9754
0
LINE
8
BLACK
6
CONTINUOUS
10
135.867
20
-81.9754
11
135.86
21
-81.9883
0
LINE
8
BLACK
6
CONTINUOUS
10
135.86
20
-81.9883
11
135.851
21
-81.9996
0
LINE
8
BLACK
6
CONTINUOUS
10
135.851
20
-81.9996
11
135.812
21
-82.0386
0
LINE
8
BLACK
6
CONTINUOUS
10
135.812
20
-82.0386
11
135.777
21
-82.1072
0
LINE
8
BLACK
6
CONTINUOUS
10
135.777
20
-82.1072
11
135.777
21
-82.3098
0
LINE
8
BLACK
6
CONTINUOUS
10
135.777
20
-82.3098
11
135.812
21
-82.3784
0
LINE
8
BLACK
6
CONTINUOUS
10
135.812
20
-82.3784
11
135.842
21
-82.4088
0
LINE
8
BLACK
6
CONTINUOUS
10
135.842
20
-82.4088
11
135.911
21
-82.443
0
LINE
8
BLACK
6
CONTINUOUS
10
135.911
20
-82.443
11
135.976
21
-82.443
0
LINE
8
BLACK
6
CONTINUOUS
10
135.976
20
-82.443
11
136.09
21
-82.4049
0
LINE
8
BLACK
6
CONTINUOUS
10
136.09
20
-82.4049
11
136.649
21
-81.8459
0
LINE
8
BLACK
6
CONTINUOUS
10
136.649
20
-81.8459
11
136.65
21
-81.8454
0
LINE
8
BLACK
6
CONTINUOUS
10
136.65
20
-81.8454
11
136.65
21
-81.8454
0
LINE
8
BLACK
6
CONTINUOUS
10
136.65
20
-81.8454
11
136.65
21
-81.8454
0
LINE
8
BLACK
6
CONTINUOUS
10
136.65
20
-81.8454
11
136.65
21
-81.8452
0
LINE
8
BLACK
6
CONTINUOUS
10
136.65
20
-81.8452
11
136.656
21
-81.8407
0
LINE
8
BLACK
6
CONTINUOUS
10
136.656
20
-81.8407
11
136.661
21
-81.8362
0
LINE
8
BLACK
6
CONTINUOUS
10
136.661
20
-81.8362
11
136.661
21
-81.8362
0
LINE
8
BLACK
6
CONTINUOUS
10
136.661
20
-81.8362
11
136.662
21
-81.8361
0
LINE
8
BLACK
6
CONTINUOUS
10
136.662
20
-81.8361
11
136.668
21
-81.8328
0
LINE
8
BLACK
6
CONTINUOUS
10
136.668
20
-81.8328
11
136.674
21
-81.8294
0
LINE
8
BLACK
6
CONTINUOUS
10
136.674
20
-81.8294
11
136.674
21
-81.8294
0
LINE
8
BLACK
6
CONTINUOUS
10
136.674
20
-81.8294
11
136.675
21
-81.8293
0
LINE
8
BLACK
6
CONTINUOUS
10
136.675
20
-81.8293
11
136.681
21
-81.8273
0
LINE
8
BLACK
6
CONTINUOUS
10
136.681
20
-81.8273
11
136.688
21
-81.8253
0
LINE
8
BLACK
6
CONTINUOUS
10
136.688
20
-81.8253
11
136.688
21
-81.8253
0
LINE
8
BLACK
6
CONTINUOUS
10
136.688
20
-81.8253
11
136.689
21
-81.8253
0
LINE
8
BLACK
6
CONTINUOUS
10
136.689
20
-81.8253
11
136.696
21
-81.8246
0
LINE
8
BLACK
6
CONTINUOUS
10
136.696
20
-81.8246
11
136.703
21
-81.824
0
LINE
8
BLACK
6
CONTINUOUS
10
136.703
20
-81.824
11
136.703
21
-81.824
0
LINE
8
BLACK
6
CONTINUOUS
10
137.182
20
-80.2494
11
137.193
21
-80.2528
0
LINE
8
BLACK
6
CONTINUOUS
10
137.193
20
-80.2528
11
137.203
21
-80.2584
0
LINE
8
BLACK
6
CONTINUOUS
10
137.203
20
-80.2584
11
137.213
21
-80.2659
0
LINE
8
BLACK
6
CONTINUOUS
10
137.213
20
-80.2659
11
137.22
21
-80.275
0
LINE
8
BLACK
6
CONTINUOUS
10
137.22
20
-80.275
11
137.226
21
-80.2854
0
LINE
8
BLACK
6
CONTINUOUS
10
137.226
20
-80.2854
11
137.229
21
-80.2967
0
LINE
8
BLACK
6
CONTINUOUS
10
137.229
20
-80.2967
11
137.23
21
-80.3056
0
LINE
8
BLACK
6
CONTINUOUS
10
137.23
20
-80.3056
11
137.23
21
-82.4085
0
LINE
8
BLACK
6
CONTINUOUS
10
137.23
20
-82.4085
11
138.103
21
-82.4085
0
LINE
8
BLACK
6
CONTINUOUS
10
138.103
20
-82.4085
11
138.112
21
-82.4094
0
LINE
8
BLACK
6
CONTINUOUS
10
138.112
20
-82.4094
11
138.123
21
-82.4128
0
LINE
8
BLACK
6
CONTINUOUS
10
138.123
20
-82.4128
11
138.133
21
-82.4184
0
LINE
8
BLACK
6
CONTINUOUS
10
138.133
20
-82.4184
11
138.143
21
-82.4259
0
LINE
8
BLACK
6
CONTINUOUS
10
138.143
20
-82.4259
11
138.15
21
-82.435
0
LINE
8
BLACK
6
CONTINUOUS
10
138.15
20
-82.435
11
138.156
21
-82.4454
0
LINE
8
BLACK
6
CONTINUOUS
10
138.156
20
-82.4454
11
138.159
21
-82.4567
0
LINE
8
BLACK
6
CONTINUOUS
10
138.159
20
-82.4567
11
138.16
21
-82.4685
0
LINE
8
BLACK
6
CONTINUOUS
10
138.16
20
-82.4685
11
138.159
21
-82.4803
0
LINE
8
BLACK
6
CONTINUOUS
10
138.159
20
-82.4803
11
138.156
21
-82.4916
0
LINE
8
BLACK
6
CONTINUOUS
10
138.156
20
-82.4916
11
138.15
21
-82.502
0
LINE
8
BLACK
6
CONTINUOUS
10
138.15
20
-82.502
11
138.143
21
-82.5111
0
LINE
8
BLACK
6
CONTINUOUS
10
138.143
20
-82.5111
11
138.133
21
-82.5186
0
LINE
8
BLACK
6
CONTINUOUS
10
138.133
20
-82.5186
11
138.123
21
-82.5242
0
LINE
8
BLACK
6
CONTINUOUS
10
138.123
20
-82.5242
11
138.112
21
-82.5276
0
LINE
8
BLACK
6
CONTINUOUS
10
138.112
20
-82.5276
11
138.103
21
-82.5285
0
LINE
8
BLACK
6
CONTINUOUS
10
138.103
20
-82.5285
11
137.173
21
-82.5285
0
LINE
8
BLACK
6
CONTINUOUS
10
137.173
20
-82.5285
11
137.17
21
-82.5288
0
LINE
8
BLACK
6
CONTINUOUS
10
137.17
20
-82.5288
11
137.158
21
-82.5276
0
LINE
8
BLACK
6
CONTINUOUS
10
137.158
20
-82.5276
11
137.147
21
-82.5242
0
LINE
8
BLACK
6
CONTINUOUS
10
137.147
20
-82.5242
11
137.137
21
-82.5186
0
LINE
8
BLACK
6
CONTINUOUS
10
137.137
20
-82.5186
11
137.127
21
-82.5111
0
LINE
8
BLACK
6
CONTINUOUS
10
137.127
20
-82.5111
11
137.12
21
-82.502
0
LINE
8
BLACK
6
CONTINUOUS
10
137.12
20
-82.502
11
137.118
21
-82.4987
0
LINE
8
BLACK
6
CONTINUOUS
10
137.118
20
-82.4987
11
137.114
21
-82.4916
0
LINE
8
BLACK
6
CONTINUOUS
10
137.114
20
-82.4916
11
137.111
21
-82.4803
0
LINE
8
BLACK
6
CONTINUOUS
10
137.111
20
-82.4803
11
137.11
21
-82.4685
0
LINE
8
BLACK
6
CONTINUOUS
10
137.11
20
-82.4685
11
137.11
21
-82.4656
0
LINE
8
BLACK
6
CONTINUOUS
10
137.11
20
-82.4656
11
137.11
21
-80.3056
0
LINE
8
BLACK
6
CONTINUOUS
10
137.11
20
-80.3056
11
137.111
21
-80.2967
0
LINE
8
BLACK
6
CONTINUOUS
10
137.111
20
-80.2967
11
137.114
21
-80.2854
0
LINE
8
BLACK
6
CONTINUOUS
10
137.114
20
-80.2854
11
137.12
21
-80.275
0
LINE
8
BLACK
6
CONTINUOUS
10
137.12
20
-80.275
11
137.127
21
-80.2659
0
LINE
8
BLACK
6
CONTINUOUS
10
137.127
20
-80.2659
11
137.137
21
-80.2584
0
LINE
8
BLACK
6
CONTINUOUS
10
137.137
20
-80.2584
11
137.147
21
-80.2528
0
LINE
8
BLACK
6
CONTINUOUS
10
137.147
20
-80.2528
11
137.158
21
-80.2494
0
LINE
8
BLACK
6
CONTINUOUS
10
137.158
20
-80.2494
11
137.17
21
-80.2482
0
LINE
8
BLACK
6
CONTINUOUS
10
137.17
20
-80.2482
11
137.182
21
-80.2494
0
LINE
8
BLACK
6
CONTINUOUS
10
140.342
20
-80.9494
11
140.353
21
-80.9528
0
LINE
8
BLACK
6
CONTINUOUS
10
140.353
20
-80.9528
11
140.363
21
-80.9584
0
LINE
8
BLACK
6
CONTINUOUS
10
140.363
20
-80.9584
11
140.373
21
-80.9659
0
LINE
8
BLACK
6
CONTINUOUS
10
140.373
20
-80.9659
11
140.38
21
-80.975
0
LINE
8
BLACK
6
CONTINUOUS
10
140.38
20
-80.975
11
140.386
21
-80.9854
0
LINE
8
BLACK
6
CONTINUOUS
10
140.386
20
-80.9854
11
140.389
21
-80.9967
0
LINE
8
BLACK
6
CONTINUOUS
10
140.389
20
-80.9967
11
140.39
21
-81.0056
0
LINE
8
BLACK
6
CONTINUOUS
10
140.39
20
-81.0056
11
140.39
21
-82.4656
0
LINE
8
BLACK
6
CONTINUOUS
10
140.39
20
-82.4656
11
140.39
21
-82.4685
0
LINE
8
BLACK
6
CONTINUOUS
10
140.39
20
-82.4685
11
140.39
21
-82.4714
0
LINE
8
BLACK
6
CONTINUOUS
10
140.39
20
-82.4714
11
140.39
21
-82.4714
0
LINE
8
BLACK
6
CONTINUOUS
10
140.39
20
-82.4714
11
140.389
21
-82.4791
0
LINE
8
BLACK
6
CONTINUOUS
10
140.389
20
-82.4791
11
140.389
21
-82.4803
0
LINE
8
BLACK
6
CONTINUOUS
10
140.389
20
-82.4803
11
140.386
21
-82.4916
0
LINE
8
BLACK
6
CONTINUOUS
10
140.386
20
-82.4916
11
140.38
21
-82.502
0
LINE
8
BLACK
6
CONTINUOUS
10
140.38
20
-82.502
11
140.373
21
-82.5111
0
LINE
8
BLACK
6
CONTINUOUS
10
140.373
20
-82.5111
11
140.363
21
-82.5186
0
LINE
8
BLACK
6
CONTINUOUS
10
140.363
20
-82.5186
11
140.353
21
-82.5242
0
LINE
8
BLACK
6
CONTINUOUS
10
140.353
20
-82.5242
11
140.342
21
-82.5276
0
LINE
8
BLACK
6
CONTINUOUS
10
140.342
20
-82.5276
11
140.333
21
-82.5285
0
LINE
8
BLACK
6
CONTINUOUS
10
140.333
20
-82.5285
11
140.333
21
-82.5285
0
LINE
8
BLACK
6
CONTINUOUS
10
140.333
20
-82.5285
11
140.33
21
-82.5288
0
LINE
8
BLACK
6
CONTINUOUS
10
140.33
20
-82.5288
11
140.327
21
-82.5285
0
LINE
8
BLACK
6
CONTINUOUS
10
140.327
20
-82.5285
11
139.397
21
-82.5285
0
LINE
8
BLACK
6
CONTINUOUS
10
139.397
20
-82.5285
11
139.388
21
-82.5276
0
LINE
8
BLACK
6
CONTINUOUS
10
139.388
20
-82.5276
11
139.377
21
-82.5242
0
LINE
8
BLACK
6
CONTINUOUS
10
139.377
20
-82.5242
11
139.367
21
-82.5186
0
LINE
8
BLACK
6
CONTINUOUS
10
139.367
20
-82.5186
11
139.357
21
-82.5111
0
LINE
8
BLACK
6
CONTINUOUS
10
139.357
20
-82.5111
11
139.35
21
-82.502
0
LINE
8
BLACK
6
CONTINUOUS
10
139.35
20
-82.502
11
139.344
21
-82.4916
0
LINE
8
BLACK
6
CONTINUOUS
10
139.344
20
-82.4916
11
139.341
21
-82.4803
0
LINE
8
BLACK
6
CONTINUOUS
10
139.341
20
-82.4803
11
139.34
21
-82.4685
0
LINE
8
BLACK
6
CONTINUOUS
10
139.34
20
-82.4685
11
139.341
21
-82.4567
0
LINE
8
BLACK
6
CONTINUOUS
10
139.341
20
-82.4567
11
139.344
21
-82.4454
0
LINE
8
BLACK
6
CONTINUOUS
10
139.344
20
-82.4454
11
139.35
21
-82.435
0
LINE
8
BLACK
6
CONTINUOUS
10
139.35
20
-82.435
11
139.357
21
-82.4259
0
LINE
8
BLACK
6
CONTINUOUS
10
139.357
20
-82.4259
11
139.367
21
-82.4184
0
LINE
8
BLACK
6
CONTINUOUS
10
139.367
20
-82.4184
11
139.377
21
-82.4128
0
LINE
8
BLACK
6
CONTINUOUS
10
139.377
20
-82.4128
11
139.388
21
-82.4094
0
LINE
8
BLACK
6
CONTINUOUS
10
139.388
20
-82.4094
11
139.397
21
-82.4085
0
LINE
8
BLACK
6
CONTINUOUS
10
139.397
20
-82.4085
11
140.27
21
-82.4085
0
LINE
8
BLACK
6
CONTINUOUS
10
140.27
20
-82.4085
11
140.27
21
-81.0056
0
LINE
8
BLACK
6
CONTINUOUS
10
140.27
20
-81.0056
11
140.271
21
-80.9967
0
LINE
8
BLACK
6
CONTINUOUS
10
140.271
20
-80.9967
11
140.274
21
-80.9854
0
LINE
8
BLACK
6
CONTINUOUS
10
140.274
20
-80.9854
11
140.28
21
-80.975
0
LINE
8
BLACK
6
CONTINUOUS
10
140.28
20
-80.975
11
140.287
21
-80.9659
0
LINE
8
BLACK
6
CONTINUOUS
10
140.287
20
-80.9659
11
140.297
21
-80.9584
0
LINE
8
BLACK
6
CONTINUOUS
10
140.297
20
-80.9584
11
140.307
21
-80.9528
0
LINE
8
BLACK
6
CONTINUOUS
10
140.307
20
-80.9528
11
140.318
21
-80.9494
0
LINE
8
BLACK
6
CONTINUOUS
10
140.318
20
-80.9494
11
140.33
21
-80.9482
0
LINE
8
BLACK
6
CONTINUOUS
10
140.33
20
-80.9482
11
140.342
21
-80.9494
0
LINE
8
BLACK
6
CONTINUOUS
10
136.37
20
-80.824
11
136.371
21
-80.8241
0
LINE
8
BLACK
6
CONTINUOUS
10
136.371
20
-80.8241
11
136.373
21
-80.8241
0
LINE
8
BLACK
6
CONTINUOUS
10
136.373
20
-80.8241
11
136.379
21
-80.8249
0
LINE
8
BLACK
6
CONTINUOUS
10
136.379
20
-80.8249
11
136.385
21
-80.8256
0
LINE
8
BLACK
6
CONTINUOUS
10
136.385
20
-80.8256
11
136.386
21
-80.826
0
LINE
8
BLACK
6
CONTINUOUS
10
136.386
20
-80.826
11
136.387
21
-80.8262
0
LINE
8
BLACK
6
CONTINUOUS
10
136.387
20
-80.8262
11
136.578
21
-80.8738
0
LINE
8
BLACK
6
CONTINUOUS
10
136.578
20
-80.8738
11
136.579
21
-80.8741
0
LINE
8
BLACK
6
CONTINUOUS
10
136.579
20
-80.8741
11
136.583
21
-80.8759
0
LINE
8
BLACK
6
CONTINUOUS
10
136.583
20
-80.8759
11
136.588
21
-80.8774
0
LINE
8
BLACK
6
CONTINUOUS
10
136.588
20
-80.8774
11
136.59
21
-80.8784
0
LINE
8
BLACK
6
CONTINUOUS
10
136.59
20
-80.8784
11
136.592
21
-80.8792
0
LINE
8
BLACK
6
CONTINUOUS
10
136.592
20
-80.8792
11
136.597
21
-80.8819
0
LINE
8
BLACK
6
CONTINUOUS
10
136.597
20
-80.8819
11
136.601
21
-80.8843
0
LINE
8
BLACK
6
CONTINUOUS
10
136.601
20
-80.8843
11
136.603
21
-80.8857
0
LINE
8
BLACK
6
CONTINUOUS
10
136.603
20
-80.8857
11
136.605
21
-80.8869
0
LINE
8
BLACK
6
CONTINUOUS
10
136.605
20
-80.8869
11
136.609
21
-80.8903
0
LINE
8
BLACK
6
CONTINUOUS
10
136.609
20
-80.8903
11
136.613
21
-80.8936
0
LINE
8
BLACK
6
CONTINUOUS
10
136.613
20
-80.8936
11
136.708
21
-80.9888
0
LINE
8
BLACK
6
CONTINUOUS
10
136.708
20
-80.9888
11
136.709
21
-80.9895
0
LINE
8
BLACK
6
CONTINUOUS
10
136.709
20
-80.9895
11
136.711
21
-80.9928
0
LINE
8
BLACK
6
CONTINUOUS
10
136.711
20
-80.9928
11
136.714
21
-80.9959
0
LINE
8
BLACK
6
CONTINUOUS
10
136.714
20
-80.9959
11
136.716
21
-80.9985
0
LINE
8
BLACK
6
CONTINUOUS
10
136.716
20
-80.9985
11
136.718
21
-81.001
0
LINE
8
BLACK
6
CONTINUOUS
10
136.718
20
-81.001
11
136.72
21
-81.0047
0
LINE
8
BLACK
6
CONTINUOUS
10
136.72
20
-81.0047
11
136.722
21
-81.0083
0
LINE
8
BLACK
6
CONTINUOUS
10
136.722
20
-81.0083
11
136.769
21
-81.1035
0
LINE
8
BLACK
6
CONTINUOUS
10
136.769
20
-81.1035
11
136.77
21
-81.1045
0
LINE
8
BLACK
6
CONTINUOUS
10
136.77
20
-81.1045
11
136.771
21
-81.1065
0
LINE
8
BLACK
6
CONTINUOUS
10
136.771
20
-81.1065
11
136.772
21
-81.1085
0
LINE
8
BLACK
6
CONTINUOUS
10
136.772
20
-81.1085
11
136.773
21
-81.1134
0
LINE
8
BLACK
6
CONTINUOUS
10
136.773
20
-81.1134
11
136.775
21
-81.1182
0
LINE
8
BLACK
6
CONTINUOUS
10
136.775
20
-81.1182
11
136.775
21
-81.1204
0
LINE
8
BLACK
6
CONTINUOUS
10
136.775
20
-81.1204
11
136.776
21
-81.1225
0
LINE
8
BLACK
6
CONTINUOUS
10
136.776
20
-81.1225
11
136.776
21
-81.1276
0
LINE
8
BLACK
6
CONTINUOUS
10
136.776
20
-81.1276
11
136.777
21
-81.1327
0
LINE
8
BLACK
6
CONTINUOUS
10
136.777
20
-81.1327
11
136.777
21
-81.1349
0
LINE
8
BLACK
6
CONTINUOUS
10
136.777
20
-81.1349
11
136.777
21
-81.1371
0
LINE
8
BLACK
6
CONTINUOUS
10
136.777
20
-81.1371
11
136.777
21
-81.3275
0
LINE
8
BLACK
6
CONTINUOUS
10
136.777
20
-81.3275
11
136.777
21
-81.3286
0
LINE
8
BLACK
6
CONTINUOUS
10
136.777
20
-81.3286
11
136.777
21
-81.3308
0
LINE
8
BLACK
6
CONTINUOUS
10
136.777
20
-81.3308
11
136.777
21
-81.333
0
LINE
8
BLACK
6
CONTINUOUS
10
136.777
20
-81.333
11
136.776
21
-81.3381
0
LINE
8
BLACK
6
CONTINUOUS
10
136.776
20
-81.3381
11
136.776
21
-81.3431
0
LINE
8
BLACK
6
CONTINUOUS
10
136.776
20
-81.3431
11
136.775
21
-81.3452
0
LINE
8
BLACK
6
CONTINUOUS
10
136.775
20
-81.3452
11
136.775
21
-81.3474
0
LINE
8
BLACK
6
CONTINUOUS
10
136.775
20
-81.3474
11
136.773
21
-81.3522
0
LINE
8
BLACK
6
CONTINUOUS
10
136.773
20
-81.3522
11
136.771
21
-81.3571
0
LINE
8
BLACK
6
CONTINUOUS
10
136.771
20
-81.3571
11
136.77
21
-81.359
0
LINE
8
BLACK
6
CONTINUOUS
10
136.77
20
-81.359
11
136.769
21
-81.3611
0
LINE
8
BLACK
6
CONTINUOUS
10
136.769
20
-81.3611
11
136.746
21
-81.408
0
LINE
8
BLACK
6
CONTINUOUS
10
136.746
20
-81.408
11
136.803
21
-81.465
0
LINE
8
BLACK
6
CONTINUOUS
10
136.803
20
-81.465
11
136.804
21
-81.4657
0
LINE
8
BLACK
6
CONTINUOUS
10
136.804
20
-81.4657
11
136.806
21
-81.469
0
LINE
8
BLACK
6
CONTINUOUS
10
136.806
20
-81.469
11
136.809
21
-81.4721
0
LINE
8
BLACK
6
CONTINUOUS
10
136.809
20
-81.4721
11
136.811
21
-81.4747
0
LINE
8
BLACK
6
CONTINUOUS
10
136.811
20
-81.4747
11
136.813
21
-81.4772
0
LINE
8
BLACK
6
CONTINUOUS
10
136.813
20
-81.4772
11
136.815
21
-81.4809
0
LINE
8
BLACK
6
CONTINUOUS
10
136.815
20
-81.4809
11
136.817
21
-81.4845
0
LINE
8
BLACK
6
CONTINUOUS
10
136.817
20
-81.4845
11
136.865
21
-81.5797
0
LINE
8
BLACK
6
CONTINUOUS
10
136.865
20
-81.5797
11
136.865
21
-81.5807
0
LINE
8
BLACK
6
CONTINUOUS
10
136.865
20
-81.5807
11
136.87
21
-81.5944
0
LINE
8
BLACK
6
CONTINUOUS
10
136.87
20
-81.5944
11
136.872
21
-81.6089
0
LINE
8
BLACK
6
CONTINUOUS
10
136.872
20
-81.6089
11
136.872
21
-81.6235
0
LINE
8
BLACK
6
CONTINUOUS
10
136.872
20
-81.6235
11
136.869
21
-81.6377
0
LINE
8
BLACK
6
CONTINUOUS
10
136.869
20
-81.6377
11
136.862
21
-81.651
0
LINE
8
BLACK
6
CONTINUOUS
10
136.862
20
-81.651
11
136.854
21
-81.6629
0
LINE
8
BLACK
6
CONTINUOUS
10
136.854
20
-81.6629
11
136.843
21
-81.6729
0
LINE
8
BLACK
6
CONTINUOUS
10
136.843
20
-81.6729
11
136.831
21
-81.6806
0
LINE
8
BLACK
6
CONTINUOUS
10
136.831
20
-81.6806
11
136.817
21
-81.6857
0
LINE
8
BLACK
6
CONTINUOUS
10
136.817
20
-81.6857
11
136.803
21
-81.6881
0
LINE
8
BLACK
6
CONTINUOUS
10
136.803
20
-81.6881
11
136.788
21
-81.6876
0
LINE
8
BLACK
6
CONTINUOUS
10
136.788
20
-81.6876
11
136.774
21
-81.6843
0
LINE
8
BLACK
6
CONTINUOUS
10
136.774
20
-81.6843
11
136.76
21
-81.6783
0
LINE
8
BLACK
6
CONTINUOUS
10
136.76
20
-81.6783
11
136.748
21
-81.6698
0
LINE
8
BLACK
6
CONTINUOUS
10
136.748
20
-81.6698
11
136.738
21
-81.6592
0
LINE
8
BLACK
6
CONTINUOUS
10
136.738
20
-81.6592
11
136.731
21
-81.6468
0
LINE
8
BLACK
6
CONTINUOUS
10
136.731
20
-81.6468
11
136.688
21
-81.5624
0
LINE
8
BLACK
6
CONTINUOUS
10
136.688
20
-81.5624
11
136.655
21
-81.5289
0
LINE
8
BLACK
6
CONTINUOUS
10
136.655
20
-81.5289
11
136.613
21
-81.5711
0
LINE
8
BLACK
6
CONTINUOUS
10
136.613
20
-81.5711
11
136.612
21
-81.5718
0
LINE
8
BLACK
6
CONTINUOUS
10
136.612
20
-81.5718
11
136.608
21
-81.575
0
LINE
8
BLACK
6
CONTINUOUS
10
136.608
20
-81.575
11
136.604
21
-81.5784
0
LINE
8
BLACK
6
CONTINUOUS
10
136.604
20
-81.5784
11
136.602
21
-81.5795
0
LINE
8
BLACK
6
CONTINUOUS
10
136.602
20
-81.5795
11
136.6
21
-81.5809
0
LINE
8
BLACK
6
CONTINUOUS
10
136.6
20
-81.5809
11
136.596
21
-81.5833
0
LINE
8
BLACK
6
CONTINUOUS
10
136.596
20
-81.5833
11
136.591
21
-81.5859
0
LINE
8
BLACK
6
CONTINUOUS
10
136.591
20
-81.5859
11
136.589
21
-81.5866
0
LINE
8
BLACK
6
CONTINUOUS
10
136.589
20
-81.5866
11
136.587
21
-81.5877
0
LINE
8
BLACK
6
CONTINUOUS
10
136.587
20
-81.5877
11
136.582
21
-81.5891
0
LINE
8
BLACK
6
CONTINUOUS
10
136.582
20
-81.5891
11
136.578
21
-81.5908
0
LINE
8
BLACK
6
CONTINUOUS
10
136.578
20
-81.5908
11
136.387
21
-81.6384
0
LINE
8
BLACK
6
CONTINUOUS
10
136.387
20
-81.6384
11
136.386
21
-81.6386
0
LINE
8
BLACK
6
CONTINUOUS
10
136.386
20
-81.6386
11
136.385
21
-81.6388
0
LINE
8
BLACK
6
CONTINUOUS
10
136.385
20
-81.6388
11
136.384
21
-81.6392
0
LINE
8
BLACK
6
CONTINUOUS
10
136.384
20
-81.6392
11
136.378
21
-81.6398
0
LINE
8
BLACK
6
CONTINUOUS
10
136.378
20
-81.6398
11
136.372
21
-81.6406
0
LINE
8
BLACK
6
CONTINUOUS
10
136.372
20
-81.6406
11
136.37
21
-81.6405
0
LINE
8
BLACK
6
CONTINUOUS
10
136.37
20
-81.6405
11
136.369
21
-81.6406
0
LINE
8
BLACK
6
CONTINUOUS
10
136.369
20
-81.6406
11
136.036
21
-81.6406
0
LINE
8
BLACK
6
CONTINUOUS
10
136.036
20
-81.6406
11
136.035
21
-81.6406
0
LINE
8
BLACK
6
CONTINUOUS
10
136.035
20
-81.6406
11
136.033
21
-81.6405
0
LINE
8
BLACK
6
CONTINUOUS
10
136.033
20
-81.6405
11
136.032
21
-81.6406
0
LINE
8
BLACK
6
CONTINUOUS
10
136.032
20
-81.6406
11
136.026
21
-81.6397
0
LINE
8
BLACK
6
CONTINUOUS
10
136.026
20
-81.6397
11
136.02
21
-81.639
0
LINE
8
BLACK
6
CONTINUOUS
10
136.02
20
-81.639
11
136.019
21
-81.6386
0
LINE
8
BLACK
6
CONTINUOUS
10
136.019
20
-81.6386
11
136.018
21
-81.6384
0
LINE
8
BLACK
6
CONTINUOUS
10
136.018
20
-81.6384
11
135.827
21
-81.5908
0
LINE
8
BLACK
6
CONTINUOUS
10
135.827
20
-81.5908
11
135.826
21
-81.5905
0
LINE
8
BLACK
6
CONTINUOUS
10
135.826
20
-81.5905
11
135.821
21
-81.5887
0
LINE
8
BLACK
6
CONTINUOUS
10
135.821
20
-81.5887
11
135.816
21
-81.5873
0
LINE
8
BLACK
6
CONTINUOUS
10
135.816
20
-81.5873
11
135.814
21
-81.5862
0
LINE
8
BLACK
6
CONTINUOUS
10
135.814
20
-81.5862
11
135.812
21
-81.5854
0
LINE
8
BLACK
6
CONTINUOUS
10
135.812
20
-81.5854
11
135.808
21
-81.5827
0
LINE
8
BLACK
6
CONTINUOUS
10
135.808
20
-81.5827
11
135.804
21
-81.5803
0
LINE
8
BLACK
6
CONTINUOUS
10
135.804
20
-81.5803
11
135.802
21
-81.5789
0
LINE
8
BLACK
6
CONTINUOUS
10
135.802
20
-81.5789
11
135.8
21
-81.5777
0
LINE
8
BLACK
6
CONTINUOUS
10
135.8
20
-81.5777
11
135.796
21
-81.5743
0
LINE
8
BLACK
6
CONTINUOUS
10
135.796
20
-81.5743
11
135.792
21
-81.5711
0
LINE
8
BLACK
6
CONTINUOUS
10
135.792
20
-81.5711
11
135.697
21
-81.4758
0
LINE
8
BLACK
6
CONTINUOUS
10
135.697
20
-81.4758
11
135.696
21
-81.4751
0
LINE
8
BLACK
6
CONTINUOUS
10
135.696
20
-81.4751
11
135.694
21
-81.4718
0
LINE
8
BLACK
6
CONTINUOUS
10
135.694
20
-81.4718
11
135.691
21
-81.4687
0
LINE
8
BLACK
6
CONTINUOUS
10
135.691
20
-81.4687
11
135.689
21
-81.4661
0
LINE
8
BLACK
6
CONTINUOUS
10
135.689
20
-81.4661
11
135.687
21
-81.4636
0
LINE
8
BLACK
6
CONTINUOUS
10
135.687
20
-81.4636
11
135.685
21
-81.4599
0
LINE
8
BLACK
6
CONTINUOUS
10
135.685
20
-81.4599
11
135.683
21
-81.4563
0
LINE
8
BLACK
6
CONTINUOUS
10
135.683
20
-81.4563
11
135.635
21
-81.3611
0
LINE
8
BLACK
6
CONTINUOUS
10
135.635
20
-81.3611
11
135.635
21
-81.3601
0
LINE
8
BLACK
6
CONTINUOUS
10
135.635
20
-81.3601
11
135.634
21
-81.3581
0
LINE
8
BLACK
6
CONTINUOUS
10
135.634
20
-81.3581
11
135.633
21
-81.3561
0
LINE
8
BLACK
6
CONTINUOUS
10
135.633
20
-81.3561
11
135.632
21
-81.3512
0
LINE
8
BLACK
6
CONTINUOUS
10
135.632
20
-81.3512
11
135.63
21
-81.3464
0
LINE
8
BLACK
6
CONTINUOUS
10
135.63
20
-81.3464
11
135.629
21
-81.3442
0
LINE
8
BLACK
6
CONTINUOUS
10
135.629
20
-81.3442
11
135.629
21
-81.3421
0
LINE
8
BLACK
6
CONTINUOUS
10
135.629
20
-81.3421
11
135.628
21
-81.337
0
LINE
8
BLACK
6
CONTINUOUS
10
135.628
20
-81.337
11
135.628
21
-81.3319
0
LINE
8
BLACK
6
CONTINUOUS
10
135.628
20
-81.3319
11
135.628
21
-81.3297
0
LINE
8
BLACK
6
CONTINUOUS
10
135.628
20
-81.3297
11
135.627
21
-81.3275
0
LINE
8
BLACK
6
CONTINUOUS
10
135.627
20
-81.3275
11
135.627
21
-81.1371
0
LINE
8
BLACK
6
CONTINUOUS
10
135.627
20
-81.1371
11
135.627
21
-81.136
0
LINE
8
BLACK
6
CONTINUOUS
10
135.627
20
-81.136
11
135.628
21
-81.1338
0
LINE
8
BLACK
6
CONTINUOUS
10
135.628
20
-81.1338
11
135.628
21
-81.1316
0
LINE
8
BLACK
6
CONTINUOUS
10
135.628
20
-81.1316
11
135.628
21
-81.1266
0
LINE
8
BLACK
6
CONTINUOUS
10
135.628
20
-81.1266
11
135.629
21
-81.1215
0
LINE
8
BLACK
6
CONTINUOUS
10
135.629
20
-81.1215
11
135.63
21
-81.1194
0
LINE
8
BLACK
6
CONTINUOUS
10
135.63
20
-81.1194
11
135.63
21
-81.1172
0
LINE
8
BLACK
6
CONTINUOUS
10
135.63
20
-81.1172
11
135.632
21
-81.1124
0
LINE
8
BLACK
6
CONTINUOUS
10
135.632
20
-81.1124
11
135.633
21
-81.1075
0
LINE
8
BLACK
6
CONTINUOUS
10
135.633
20
-81.1075
11
135.635
21
-81.1056
0
LINE
8
BLACK
6
CONTINUOUS
10
135.635
20
-81.1056
11
135.635
21
-81.1035
0
LINE
8
BLACK
6
CONTINUOUS
10
135.635
20
-81.1035
11
135.683
21
-81.0083
0
LINE
8
BLACK
6
CONTINUOUS
10
135.683
20
-81.0083
11
135.683
21
-81.0074
0
LINE
8
BLACK
6
CONTINUOUS
10
135.683
20
-81.0074
11
135.686
21
-81.0038
0
LINE
8
BLACK
6
CONTINUOUS
10
135.686
20
-81.0038
11
135.688
21
-81.0001
0
LINE
8
BLACK
6
CONTINUOUS
10
135.688
20
-81.0001
11
135.69
21
-80.9977
0
LINE
8
BLACK
6
CONTINUOUS
10
135.69
20
-80.9977
11
135.691
21
-80.9951
0
LINE
8
BLACK
6
CONTINUOUS
10
135.691
20
-80.9951
11
135.694
21
-80.9921
0
LINE
8
BLACK
6
CONTINUOUS
10
135.694
20
-80.9921
11
135.697
21
-80.9888
0
LINE
8
BLACK
6
CONTINUOUS
10
135.697
20
-80.9888
11
135.792
21
-80.8936
0
LINE
8
BLACK
6
CONTINUOUS
10
135.792
20
-80.8936
11
135.793
21
-80.8928
0
LINE
8
BLACK
6
CONTINUOUS
10
135.793
20
-80.8928
11
135.797
21
-80.8897
0
LINE
8
BLACK
6
CONTINUOUS
10
135.797
20
-80.8897
11
135.801
21
-80.8863
0
LINE
8
BLACK
6
CONTINUOUS
10
135.801
20
-80.8863
11
135.803
21
-80.8851
0
LINE
8
BLACK
6
CONTINUOUS
10
135.803
20
-80.8851
11
135.804
21
-80.8837
0
LINE
8
BLACK
6
CONTINUOUS
10
135.804
20
-80.8837
11
135.809
21
-80.8814
0
LINE
8
BLACK
6
CONTINUOUS
10
135.809
20
-80.8814
11
135.813
21
-80.8788
0
LINE
8
BLACK
6
CONTINUOUS
10
135.813
20
-80.8788
11
135.815
21
-80.878
0
LINE
8
BLACK
6
CONTINUOUS
10
135.815
20
-80.878
11
135.817
21
-80.877
0
LINE
8
BLACK
6
CONTINUOUS
10
135.817
20
-80.877
11
135.822
21
-80.8755
0
LINE
8
BLACK
6
CONTINUOUS
10
135.822
20
-80.8755
11
135.827
21
-80.8738
0
LINE
8
BLACK
6
CONTINUOUS
10
135.827
20
-80.8738
11
136.018
21
-80.8262
0
LINE
8
BLACK
6
CONTINUOUS
10
136.018
20
-80.8262
11
136.019
21
-80.826
0
LINE
8
BLACK
6
CONTINUOUS
10
136.019
20
-80.826
11
136.02
21
-80.8258
0
LINE
8
BLACK
6
CONTINUOUS
10
136.02
20
-80.8258
11
136.021
21
-80.8254
0
LINE
8
BLACK
6
CONTINUOUS
10
136.021
20
-80.8254
11
136.027
21
-80.8248
0
LINE
8
BLACK
6
CONTINUOUS
10
136.027
20
-80.8248
11
136.033
21
-80.824
0
LINE
8
BLACK
6
CONTINUOUS
10
136.033
20
-80.824
11
136.034
21
-80.8241
0
LINE
8
BLACK
6
CONTINUOUS
10
136.034
20
-80.8241
11
136.036
21
-80.824
0
LINE
8
BLACK
6
CONTINUOUS
10
136.036
20
-80.824
11
136.369
21
-80.824
0
LINE
8
BLACK
6
CONTINUOUS
10
136.369
20
-80.824
11
136.37
21
-80.824
0
LINE
8
BLACK
6
CONTINUOUS
10
136.045
20
-80.974
11
135.884
21
-81.0143
0
LINE
8
BLACK
6
CONTINUOUS
10
135.884
20
-81.0143
11
135.812
21
-81.0863
0
LINE
8
BLACK
6
CONTINUOUS
10
135.812
20
-81.0863
11
135.777
21
-81.1548
0
LINE
8
BLACK
6
CONTINUOUS
10
135.777
20
-81.1548
11
135.777
21
-81.3098
0
LINE
8
BLACK
6
CONTINUOUS
10
135.777
20
-81.3098
11
135.812
21
-81.3784
0
LINE
8
BLACK
6
CONTINUOUS
10
135.812
20
-81.3784
11
135.884
21
-81.4503
0
LINE
8
BLACK
6
CONTINUOUS
10
135.884
20
-81.4503
11
136.045
21
-81.4906
0
LINE
8
BLACK
6
CONTINUOUS
10
136.045
20
-81.4906
11
136.36
21
-81.4906
0
LINE
8
BLACK
6
CONTINUOUS
10
136.36
20
-81.4906
11
136.521
21
-81.4503
0
LINE
8
BLACK
6
CONTINUOUS
10
136.521
20
-81.4503
11
136.549
21
-81.4228
0
LINE
8
BLACK
6
CONTINUOUS
10
136.549
20
-81.4228
11
136.459
21
-81.333
0
LINE
8
BLACK
6
CONTINUOUS
10
136.459
20
-81.333
11
136.458
21
-81.3322
0
LINE
8
BLACK
6
CONTINUOUS
10
136.458
20
-81.3322
11
136.456
21
-81.3289
0
LINE
8
BLACK
6
CONTINUOUS
10
136.456
20
-81.3289
11
136.453
21
-81.3259
0
LINE
8
BLACK
6
CONTINUOUS
10
136.453
20
-81.3259
11
136.451
21
-81.3232
0
LINE
8
BLACK
6
CONTINUOUS
10
136.451
20
-81.3232
11
136.449
21
-81.3208
0
LINE
8
BLACK
6
CONTINUOUS
10
136.449
20
-81.3208
11
136.447
21
-81.317
0
LINE
8
BLACK
6
CONTINUOUS
10
136.447
20
-81.317
11
136.445
21
-81.3135
0
LINE
8
BLACK
6
CONTINUOUS
10
136.445
20
-81.3135
11
136.397
21
-81.2182
0
LINE
8
BLACK
6
CONTINUOUS
10
136.397
20
-81.2182
11
136.397
21
-81.2173
0
LINE
8
BLACK
6
CONTINUOUS
10
136.397
20
-81.2173
11
136.396
21
-81.2152
0
LINE
8
BLACK
6
CONTINUOUS
10
136.396
20
-81.2152
11
136.395
21
-81.2133
0
LINE
8
BLACK
6
CONTINUOUS
10
136.395
20
-81.2133
11
136.393
21
-81.2084
0
LINE
8
BLACK
6
CONTINUOUS
10
136.393
20
-81.2084
11
136.392
21
-81.2036
0
LINE
8
BLACK
6
CONTINUOUS
10
136.392
20
-81.2036
11
136.391
21
-81.2014
0
LINE
8
BLACK
6
CONTINUOUS
10
136.391
20
-81.2014
11
136.391
21
-81.1993
0
LINE
8
BLACK
6
CONTINUOUS
10
136.391
20
-81.1993
11
136.39
21
-81.1941
0
LINE
8
BLACK
6
CONTINUOUS
10
136.39
20
-81.1941
11
136.389
21
-81.1891
0
LINE
8
BLACK
6
CONTINUOUS
10
136.389
20
-81.1891
11
136.389
21
-81.1869
0
LINE
8
BLACK
6
CONTINUOUS
10
136.389
20
-81.1869
11
136.389
21
-81.1847
0
LINE
8
BLACK
6
CONTINUOUS
10
136.389
20
-81.1847
11
136.389
21
-81.0895
0
LINE
8
BLACK
6
CONTINUOUS
10
136.389
20
-81.0895
11
136.389
21
-81.0884
0
LINE
8
BLACK
6
CONTINUOUS
10
136.389
20
-81.0884
11
136.391
21
-81.0739
0
LINE
8
BLACK
6
CONTINUOUS
10
136.391
20
-81.0739
11
136.395
21
-81.0599
0
LINE
8
BLACK
6
CONTINUOUS
10
136.395
20
-81.0599
11
136.402
21
-81.0471
0
LINE
8
BLACK
6
CONTINUOUS
10
136.402
20
-81.0471
11
136.412
21
-81.0359
0
LINE
8
BLACK
6
CONTINUOUS
10
136.412
20
-81.0359
11
136.423
21
-81.0267
0
LINE
8
BLACK
6
CONTINUOUS
10
136.423
20
-81.0267
11
136.436
21
-81.0199
0
LINE
8
BLACK
6
CONTINUOUS
10
136.436
20
-81.0199
11
136.45
21
-81.0158
0
LINE
8
BLACK
6
CONTINUOUS
10
136.45
20
-81.0158
11
136.465
21
-81.0145
0
LINE
8
BLACK
6
CONTINUOUS
10
136.465
20
-81.0145
11
136.479
21
-81.016
0
LINE
8
BLACK
6
CONTINUOUS
10
136.479
20
-81.016
11
136.493
21
-81.0203
0
LINE
8
BLACK
6
CONTINUOUS
10
136.493
20
-81.0203
11
136.506
21
-81.0273
0
LINE
8
BLACK
6
CONTINUOUS
10
136.506
20
-81.0273
11
136.518
21
-81.0366
0
LINE
8
BLACK
6
CONTINUOUS
10
136.518
20
-81.0366
11
136.527
21
-81.0479
0
LINE
8
BLACK
6
CONTINUOUS
10
136.527
20
-81.0479
11
136.534
21
-81.0609
0
LINE
8
BLACK
6
CONTINUOUS
10
136.534
20
-81.0609
11
136.538
21
-81.0749
0
LINE
8
BLACK
6
CONTINUOUS
10
136.538
20
-81.0749
11
136.539
21
-81.0895
0
LINE
8
BLACK
6
CONTINUOUS
10
136.539
20
-81.0895
11
136.539
21
-81.167
0
LINE
8
BLACK
6
CONTINUOUS
10
136.539
20
-81.167
11
136.574
21
-81.2355
0
LINE
8
BLACK
6
CONTINUOUS
10
136.574
20
-81.2355
11
136.627
21
-81.2893
0
LINE
8
BLACK
6
CONTINUOUS
10
136.627
20
-81.2893
11
136.627
21
-81.1548
0
LINE
8
BLACK
6
CONTINUOUS
10
136.627
20
-81.1548
11
136.593
21
-81.0863
0
LINE
8
BLACK
6
CONTINUOUS
10
136.593
20
-81.0863
11
136.521
21
-81.0143
0
LINE
8
BLACK
6
CONTINUOUS
10
136.521
20
-81.0143
11
136.36
21
-80.974
0
LINE
8
BLACK
6
CONTINUOUS
10
136.36
20
-80.974
11
136.045
21
-80.974
  0
ENDSEC
  0
EOF
