  0
SECTION
  2
HEADER
  9
$ANGBASE
  50
0.0
  9
$ANGDIR
  70
1
  9
$MEASUREMENT
  70
1
  0
ENDSEC
  0
SECTION
  2
TABLES
  0
TABLE
  2
LTYPE
  70
4
  0
LTYPE
  5
40F
  2
CONTINUOUS
  70
0
  3
Solid line
  72
65
  73
0
  40
0.0
  0
LTYPE
  5
410
  2
DASHDOT
 70
0
  3
Dash Dot ____ _ ____ _
 72
65
 73
4
 40
2.0
 49
1.25
 49
-0.25
 49
0.25
 49
-0.25
  0
LTYPE
  5
411
  2
DASHED
 70
0
  3
Dashed __ __ __ __ __
 72
65
 73
2
 40
0.75
 49
0.5
 49
-0.25
  0
LTYPE
  5
43B
  2
DOTTED
 70
0
  3
Dotted .  .  .  .
 72
65
 73
2
 40
0.2
 49
0.0
 49
-0.2
  0
ENDTAB
  0
TABLE
  2
STYLE
  70
4
  0
STYLE
  2
KICAD
  70
0
  40
0
  41
1
  42
1
  50
0
  71
0
  3
isocp.shx
  0
STYLE
  2
KICADB
  70
0
  40
0
  41
1
  42
1
  50
0
  71
0
  3
isocp.shx
  0
STYLE
  2
KICADI
  70
0
  40
0
  41
1
  42
1
  50
15
  71
0
  3
isocp.shx
  0
STYLE
  2
KICADBI
  70
0
  40
0
  41
1
  42
1
  50
15
  71
0
  3
isocp.shx
  0
ENDTAB
  0
TABLE
  2
LAYER
  70
1
  0
LAYER
  2
BLACK
  70
0
  62
7
  6
CONTINUOUS
  0
ENDTAB
  0
ENDSEC
  0
SECTION
  2
ENTITIES
0
LINE
8
BLACK
6
CONTINUOUS
10
28
20
-140.025
11
27.9951
21
-140.025
0
LINE
8
BLACK
6
CONTINUOUS
10
27.9951
20
-140.025
11
27.9904
21
-140.023
0
LINE
8
BLACK
6
CONTINUOUS
10
27.9904
20
-140.023
11
27.986
21
-140.021
0
LINE
8
BLACK
6
CONTINUOUS
10
27.986
20
-140.021
11
27.9822
21
-140.018
0
LINE
8
BLACK
6
CONTINUOUS
10
27.9822
20
-140.018
11
27.9791
21
-140.014
0
LINE
8
BLACK
6
CONTINUOUS
10
27.9791
20
-140.014
11
27.9768
21
-140.01
0
LINE
8
BLACK
6
CONTINUOUS
10
27.9768
20
-140.01
11
27.9754
21
-140.005
0
LINE
8
BLACK
6
CONTINUOUS
10
27.9754
20
-140.005
11
27.9749
21
-140
0
LINE
8
BLACK
6
CONTINUOUS
10
27.9749
20
-140
11
27.975
21
-139.999
0
LINE
8
BLACK
6
CONTINUOUS
10
27.975
20
-139.999
11
27.975
21
-68.0012
0
LINE
8
BLACK
6
CONTINUOUS
10
27.975
20
-68.0012
11
27.9749
21
-68
0
LINE
8
BLACK
6
CONTINUOUS
10
27.9749
20
-68
11
27.9754
21
-67.9951
0
LINE
8
BLACK
6
CONTINUOUS
10
27.9754
20
-67.9951
11
27.9768
21
-67.9904
0
LINE
8
BLACK
6
CONTINUOUS
10
27.9768
20
-67.9904
11
27.9791
21
-67.986
0
LINE
8
BLACK
6
CONTINUOUS
10
27.9791
20
-67.986
11
27.9822
21
-67.9822
0
LINE
8
BLACK
6
CONTINUOUS
10
27.9822
20
-67.9822
11
27.986
21
-67.9791
0
LINE
8
BLACK
6
CONTINUOUS
10
27.986
20
-67.9791
11
27.9904
21
-67.9768
0
LINE
8
BLACK
6
CONTINUOUS
10
27.9904
20
-67.9768
11
27.9951
21
-67.9754
0
LINE
8
BLACK
6
CONTINUOUS
10
27.9951
20
-67.9754
11
27.9988
21
-67.975
0
LINE
8
BLACK
6
CONTINUOUS
10
27.9988
20
-67.975
11
27.9988
21
-67.975
0
LINE
8
BLACK
6
CONTINUOUS
10
27.9988
20
-67.975
11
28
21
-67.9749
0
LINE
8
BLACK
6
CONTINUOUS
10
28
20
-67.9749
11
28.0012
21
-67.975
0
LINE
8
BLACK
6
CONTINUOUS
10
28.0012
20
-67.975
11
172.999
21
-67.975
0
LINE
8
BLACK
6
CONTINUOUS
10
172.999
20
-67.975
11
173
21
-67.9749
0
LINE
8
BLACK
6
CONTINUOUS
10
173
20
-67.9749
11
173.001
21
-67.975
0
LINE
8
BLACK
6
CONTINUOUS
10
173.001
20
-67.975
11
173.005
21
-67.9754
0
LINE
8
BLACK
6
CONTINUOUS
10
173.005
20
-67.9754
11
173.01
21
-67.9768
0
LINE
8
BLACK
6
CONTINUOUS
10
173.01
20
-67.9768
11
173.014
21
-67.9791
0
LINE
8
BLACK
6
CONTINUOUS
10
173.014
20
-67.9791
11
173.018
21
-67.9822
0
LINE
8
BLACK
6
CONTINUOUS
10
173.018
20
-67.9822
11
173.021
21
-67.986
0
LINE
8
BLACK
6
CONTINUOUS
10
173.021
20
-67.986
11
173.023
21
-67.9904
0
LINE
8
BLACK
6
CONTINUOUS
10
173.023
20
-67.9904
11
173.025
21
-67.9951
0
LINE
8
BLACK
6
CONTINUOUS
10
173.025
20
-67.9951
11
173.025
21
-68
0
LINE
8
BLACK
6
CONTINUOUS
10
173.025
20
-68
11
173.025
21
-68.0012
0
LINE
8
BLACK
6
CONTINUOUS
10
173.025
20
-68.0012
11
173.025
21
-139.999
0
LINE
8
BLACK
6
CONTINUOUS
10
173.025
20
-139.999
11
173.025
21
-140
0
LINE
8
BLACK
6
CONTINUOUS
10
173.025
20
-140
11
173.025
21
-140.005
0
LINE
8
BLACK
6
CONTINUOUS
10
173.025
20
-140.005
11
173.023
21
-140.01
0
LINE
8
BLACK
6
CONTINUOUS
10
173.023
20
-140.01
11
173.021
21
-140.014
0
LINE
8
BLACK
6
CONTINUOUS
10
173.021
20
-140.014
11
173.018
21
-140.018
0
LINE
8
BLACK
6
CONTINUOUS
10
173.018
20
-140.018
11
173.014
21
-140.021
0
LINE
8
BLACK
6
CONTINUOUS
10
173.014
20
-140.021
11
173.01
21
-140.023
0
LINE
8
BLACK
6
CONTINUOUS
10
173.01
20
-140.023
11
173.005
21
-140.025
0
LINE
8
BLACK
6
CONTINUOUS
10
173.005
20
-140.025
11
173.001
21
-140.025
0
LINE
8
BLACK
6
CONTINUOUS
10
173.001
20
-140.025
11
173.001
21
-140.025
0
LINE
8
BLACK
6
CONTINUOUS
10
173.001
20
-140.025
11
173
21
-140.025
0
LINE
8
BLACK
6
CONTINUOUS
10
173
20
-140.025
11
172.999
21
-140.025
0
LINE
8
BLACK
6
CONTINUOUS
10
172.999
20
-140.025
11
28.0012
21
-140.025
0
LINE
8
BLACK
6
CONTINUOUS
10
28.0012
20
-140.025
11
28
21
-140.025
0
LINE
8
BLACK
6
CONTINUOUS
10
28.025
20
-139.975
11
172.975
21
-139.975
0
LINE
8
BLACK
6
CONTINUOUS
10
172.975
20
-139.975
11
172.975
21
-68.025
0
LINE
8
BLACK
6
CONTINUOUS
10
172.975
20
-68.025
11
28.025
21
-68.025
0
LINE
8
BLACK
6
CONTINUOUS
10
28.025
20
-68.025
11
28.025
21
-139.975
  0
ENDSEC
  0
EOF
