  0
SECTION
  2
HEADER
  9
$ANGBASE
  50
0.0
  9
$ANGDIR
  70
1
  9
$MEASUREMENT
  70
1
  0
ENDSEC
  0
SECTION
  2
TABLES
  0
TABLE
  2
LTYPE
  70
4
  0
LTYPE
  5
40F
  2
CONTINUOUS
  70
0
  3
Solid line
  72
65
  73
0
  40
0.0
  0
LTYPE
  5
410
  2
DASHDOT
 70
0
  3
Dash Dot ____ _ ____ _
 72
65
 73
4
 40
2.0
 49
1.25
 49
-0.25
 49
0.25
 49
-0.25
  0
LTYPE
  5
411
  2
DASHED
 70
0
  3
Dashed __ __ __ __ __
 72
65
 73
2
 40
0.75
 49
0.5
 49
-0.25
  0
LTYPE
  5
43B
  2
DOTTED
 70
0
  3
Dotted .  .  .  .
 72
65
 73
2
 40
0.2
 49
0.0
 49
-0.2
  0
ENDTAB
  0
TABLE
  2
STYLE
  70
4
  0
STYLE
  2
KICAD
  70
0
  40
0
  41
1
  42
1
  50
0
  71
0
  3
isocp.shx
  0
STYLE
  2
KICADB
  70
0
  40
0
  41
1
  42
1
  50
0
  71
0
  3
isocp.shx
  0
STYLE
  2
KICADI
  70
0
  40
0
  41
1
  42
1
  50
15
  71
0
  3
isocp.shx
  0
STYLE
  2
KICADBI
  70
0
  40
0
  41
1
  42
1
  50
15
  71
0
  3
isocp.shx
  0
ENDTAB
  0
TABLE
  2
LAYER
  70
1
  0
LAYER
  2
BLACK
  70
0
  62
7
  6
CONTINUOUS
  0
ENDTAB
  0
ENDSEC
  0
SECTION
  2
ENTITIES
0
LINE
8
BLACK
6
CONTINUOUS
10
27.9853
20
-138.074
11
27.9712
21
-138.07
0
LINE
8
BLACK
6
CONTINUOUS
10
27.9712
20
-138.07
11
27.9581
21
-138.063
0
LINE
8
BLACK
6
CONTINUOUS
10
27.9581
20
-138.063
11
27.9467
21
-138.053
0
LINE
8
BLACK
6
CONTINUOUS
10
27.9467
20
-138.053
11
27.9373
21
-138.042
0
LINE
8
BLACK
6
CONTINUOUS
10
27.9373
20
-138.042
11
27.9304
21
-138.029
0
LINE
8
BLACK
6
CONTINUOUS
10
27.9304
20
-138.029
11
27.9261
21
-138.015
0
LINE
8
BLACK
6
CONTINUOUS
10
27.9261
20
-138.015
11
27.9246
21
-138
0
LINE
8
BLACK
6
CONTINUOUS
10
27.9246
20
-138
11
27.9261
21
-137.985
0
LINE
8
BLACK
6
CONTINUOUS
10
27.9261
20
-137.985
11
27.9304
21
-137.971
0
LINE
8
BLACK
6
CONTINUOUS
10
27.9304
20
-137.971
11
27.9373
21
-137.958
0
LINE
8
BLACK
6
CONTINUOUS
10
27.9373
20
-137.958
11
27.9467
21
-137.947
0
LINE
8
BLACK
6
CONTINUOUS
10
27.9467
20
-137.947
11
27.9581
21
-137.937
0
LINE
8
BLACK
6
CONTINUOUS
10
27.9581
20
-137.937
11
27.9712
21
-137.93
0
LINE
8
BLACK
6
CONTINUOUS
10
27.9712
20
-137.93
11
27.9853
21
-137.926
0
LINE
8
BLACK
6
CONTINUOUS
10
27.9853
20
-137.926
11
27.9963
21
-137.925
0
LINE
8
BLACK
6
CONTINUOUS
10
27.9963
20
-137.925
11
173.004
21
-137.925
0
LINE
8
BLACK
6
CONTINUOUS
10
173.004
20
-137.925
11
173.015
21
-137.926
0
LINE
8
BLACK
6
CONTINUOUS
10
173.015
20
-137.926
11
173.029
21
-137.93
0
LINE
8
BLACK
6
CONTINUOUS
10
173.029
20
-137.93
11
173.042
21
-137.937
0
LINE
8
BLACK
6
CONTINUOUS
10
173.042
20
-137.937
11
173.053
21
-137.947
0
LINE
8
BLACK
6
CONTINUOUS
10
173.053
20
-137.947
11
173.063
21
-137.958
0
LINE
8
BLACK
6
CONTINUOUS
10
173.063
20
-137.958
11
173.07
21
-137.971
0
LINE
8
BLACK
6
CONTINUOUS
10
173.07
20
-137.971
11
173.074
21
-137.985
0
LINE
8
BLACK
6
CONTINUOUS
10
173.074
20
-137.985
11
173.075
21
-138
0
LINE
8
BLACK
6
CONTINUOUS
10
173.075
20
-138
11
173.074
21
-138.015
0
LINE
8
BLACK
6
CONTINUOUS
10
173.074
20
-138.015
11
173.07
21
-138.029
0
LINE
8
BLACK
6
CONTINUOUS
10
173.07
20
-138.029
11
173.063
21
-138.042
0
LINE
8
BLACK
6
CONTINUOUS
10
173.063
20
-138.042
11
173.053
21
-138.053
0
LINE
8
BLACK
6
CONTINUOUS
10
173.053
20
-138.053
11
173.042
21
-138.063
0
LINE
8
BLACK
6
CONTINUOUS
10
173.042
20
-138.063
11
173.029
21
-138.07
0
LINE
8
BLACK
6
CONTINUOUS
10
173.029
20
-138.07
11
173.015
21
-138.074
0
LINE
8
BLACK
6
CONTINUOUS
10
173.015
20
-138.074
11
173.004
21
-138.075
0
LINE
8
BLACK
6
CONTINUOUS
10
173.004
20
-138.075
11
27.9963
21
-138.075
0
LINE
8
BLACK
6
CONTINUOUS
10
27.9963
20
-138.075
11
27.9853
21
-138.074
0
LINE
8
BLACK
6
CONTINUOUS
10
126.069
20
-113.745
11
125.169
21
-113.745
0
LINE
8
BLACK
6
CONTINUOUS
10
125.169
20
-113.745
11
125.169
21
-112.945
0
LINE
8
BLACK
6
CONTINUOUS
10
125.169
20
-112.945
11
126.069
21
-112.945
0
LINE
8
BLACK
6
CONTINUOUS
10
126.069
20
-112.945
11
126.069
21
-113.745
0
LINE
8
BLACK
6
CONTINUOUS
10
128.069
20
-112.795
11
127.169
21
-112.795
0
LINE
8
BLACK
6
CONTINUOUS
10
127.169
20
-112.795
11
127.169
21
-111.995
0
LINE
8
BLACK
6
CONTINUOUS
10
127.169
20
-111.995
11
128.069
21
-111.995
0
LINE
8
BLACK
6
CONTINUOUS
10
128.069
20
-111.995
11
128.069
21
-112.795
0
LINE
8
BLACK
6
CONTINUOUS
10
126.069
20
-111.845
11
125.169
21
-111.845
0
LINE
8
BLACK
6
CONTINUOUS
10
125.169
20
-111.845
11
125.169
21
-111.045
0
LINE
8
BLACK
6
CONTINUOUS
10
125.169
20
-111.045
11
126.069
21
-111.045
0
LINE
8
BLACK
6
CONTINUOUS
10
126.069
20
-111.045
11
126.069
21
-111.845
0
LINE
8
BLACK
6
CONTINUOUS
10
173.004
20
-109.925
11
173.015
21
-109.926
0
LINE
8
BLACK
6
CONTINUOUS
10
173.015
20
-109.926
11
173.029
21
-109.93
0
LINE
8
BLACK
6
CONTINUOUS
10
173.029
20
-109.93
11
173.042
21
-109.937
0
LINE
8
BLACK
6
CONTINUOUS
10
173.042
20
-109.937
11
173.053
21
-109.947
0
LINE
8
BLACK
6
CONTINUOUS
10
173.053
20
-109.947
11
173.063
21
-109.958
0
LINE
8
BLACK
6
CONTINUOUS
10
173.063
20
-109.958
11
173.07
21
-109.971
0
LINE
8
BLACK
6
CONTINUOUS
10
173.07
20
-109.971
11
173.074
21
-109.985
0
LINE
8
BLACK
6
CONTINUOUS
10
173.074
20
-109.985
11
173.075
21
-110
0
LINE
8
BLACK
6
CONTINUOUS
10
173.075
20
-110
11
173.074
21
-110.015
0
LINE
8
BLACK
6
CONTINUOUS
10
173.074
20
-110.015
11
173.07
21
-110.029
0
LINE
8
BLACK
6
CONTINUOUS
10
173.07
20
-110.029
11
173.063
21
-110.042
0
LINE
8
BLACK
6
CONTINUOUS
10
173.063
20
-110.042
11
173.053
21
-110.053
0
LINE
8
BLACK
6
CONTINUOUS
10
173.053
20
-110.053
11
173.042
21
-110.063
0
LINE
8
BLACK
6
CONTINUOUS
10
173.042
20
-110.063
11
173.029
21
-110.07
0
LINE
8
BLACK
6
CONTINUOUS
10
173.029
20
-110.07
11
173.015
21
-110.074
0
LINE
8
BLACK
6
CONTINUOUS
10
173.015
20
-110.074
11
173.004
21
-110.075
0
LINE
8
BLACK
6
CONTINUOUS
10
173.004
20
-110.075
11
171.004
21
-110.075
0
LINE
8
BLACK
6
CONTINUOUS
10
171.004
20
-110.075
11
171
21
-110.075
0
LINE
8
BLACK
6
CONTINUOUS
10
171
20
-110.075
11
170.996
21
-110.075
0
LINE
8
BLACK
6
CONTINUOUS
10
170.996
20
-110.075
11
170.985
21
-110.074
0
LINE
8
BLACK
6
CONTINUOUS
10
170.985
20
-110.074
11
170.971
21
-110.07
0
LINE
8
BLACK
6
CONTINUOUS
10
170.971
20
-110.07
11
170.958
21
-110.063
0
LINE
8
BLACK
6
CONTINUOUS
10
170.958
20
-110.063
11
170.947
21
-110.053
0
LINE
8
BLACK
6
CONTINUOUS
10
170.947
20
-110.053
11
170.937
21
-110.042
0
LINE
8
BLACK
6
CONTINUOUS
10
170.937
20
-110.042
11
170.93
21
-110.029
0
LINE
8
BLACK
6
CONTINUOUS
10
170.93
20
-110.029
11
170.926
21
-110.015
0
LINE
8
BLACK
6
CONTINUOUS
10
170.926
20
-110.015
11
170.925
21
-110
0
LINE
8
BLACK
6
CONTINUOUS
10
170.925
20
-110
11
170.925
21
-109.996
0
LINE
8
BLACK
6
CONTINUOUS
10
170.925
20
-109.996
11
170.925
21
-103.996
0
LINE
8
BLACK
6
CONTINUOUS
10
170.925
20
-103.996
11
170.925
21
-103.996
0
LINE
8
BLACK
6
CONTINUOUS
10
170.925
20
-103.996
11
170.925
21
-98.0037
0
LINE
8
BLACK
6
CONTINUOUS
10
170.925
20
-98.0037
11
170.925
21
-98
0
LINE
8
BLACK
6
CONTINUOUS
10
170.925
20
-98
11
170.926
21
-97.9853
0
LINE
8
BLACK
6
CONTINUOUS
10
170.926
20
-97.9853
11
170.93
21
-97.9712
0
LINE
8
BLACK
6
CONTINUOUS
10
170.93
20
-97.9712
11
170.937
21
-97.9581
0
LINE
8
BLACK
6
CONTINUOUS
10
170.937
20
-97.9581
11
170.947
21
-97.9467
0
LINE
8
BLACK
6
CONTINUOUS
10
170.947
20
-97.9467
11
170.958
21
-97.9373
0
LINE
8
BLACK
6
CONTINUOUS
10
170.958
20
-97.9373
11
170.971
21
-97.9304
0
LINE
8
BLACK
6
CONTINUOUS
10
170.971
20
-97.9304
11
170.985
21
-97.9261
0
LINE
8
BLACK
6
CONTINUOUS
10
170.985
20
-97.9261
11
170.996
21
-97.925
0
LINE
8
BLACK
6
CONTINUOUS
10
170.996
20
-97.925
11
171
21
-97.9246
0
LINE
8
BLACK
6
CONTINUOUS
10
171
20
-97.9246
11
171.004
21
-97.925
0
LINE
8
BLACK
6
CONTINUOUS
10
171.004
20
-97.925
11
173.004
21
-97.925
0
LINE
8
BLACK
6
CONTINUOUS
10
173.004
20
-97.925
11
173.015
21
-97.9261
0
LINE
8
BLACK
6
CONTINUOUS
10
173.015
20
-97.9261
11
173.029
21
-97.9304
0
LINE
8
BLACK
6
CONTINUOUS
10
173.029
20
-97.9304
11
173.042
21
-97.9373
0
LINE
8
BLACK
6
CONTINUOUS
10
173.042
20
-97.9373
11
173.053
21
-97.9467
0
LINE
8
BLACK
6
CONTINUOUS
10
173.053
20
-97.9467
11
173.063
21
-97.9581
0
LINE
8
BLACK
6
CONTINUOUS
10
173.063
20
-97.9581
11
173.07
21
-97.9712
0
LINE
8
BLACK
6
CONTINUOUS
10
173.07
20
-97.9712
11
173.074
21
-97.9853
0
LINE
8
BLACK
6
CONTINUOUS
10
173.074
20
-97.9853
11
173.075
21
-98
0
LINE
8
BLACK
6
CONTINUOUS
10
173.075
20
-98
11
173.074
21
-98.0147
0
LINE
8
BLACK
6
CONTINUOUS
10
173.074
20
-98.0147
11
173.07
21
-98.0288
0
LINE
8
BLACK
6
CONTINUOUS
10
173.07
20
-98.0288
11
173.063
21
-98.0419
0
LINE
8
BLACK
6
CONTINUOUS
10
173.063
20
-98.0419
11
173.053
21
-98.0533
0
LINE
8
BLACK
6
CONTINUOUS
10
173.053
20
-98.0533
11
173.042
21
-98.0627
0
LINE
8
BLACK
6
CONTINUOUS
10
173.042
20
-98.0627
11
173.029
21
-98.0696
0
LINE
8
BLACK
6
CONTINUOUS
10
173.029
20
-98.0696
11
173.015
21
-98.0739
0
LINE
8
BLACK
6
CONTINUOUS
10
173.015
20
-98.0739
11
173.004
21
-98.075
0
LINE
8
BLACK
6
CONTINUOUS
10
173.004
20
-98.075
11
171.075
21
-98.075
0
LINE
8
BLACK
6
CONTINUOUS
10
171.075
20
-98.075
11
171.075
21
-109.925
0
LINE
8
BLACK
6
CONTINUOUS
10
171.075
20
-109.925
11
173.004
21
-109.925
0
LINE
8
BLACK
6
CONTINUOUS
10
30.0754
20
-110
11
30.0739
21
-110.015
0
LINE
8
BLACK
6
CONTINUOUS
10
30.0739
20
-110.015
11
30.0696
21
-110.029
0
LINE
8
BLACK
6
CONTINUOUS
10
30.0696
20
-110.029
11
30.0627
21
-110.042
0
LINE
8
BLACK
6
CONTINUOUS
10
30.0627
20
-110.042
11
30.0533
21
-110.053
0
LINE
8
BLACK
6
CONTINUOUS
10
30.0533
20
-110.053
11
30.0419
21
-110.063
0
LINE
8
BLACK
6
CONTINUOUS
10
30.0419
20
-110.063
11
30.0288
21
-110.07
0
LINE
8
BLACK
6
CONTINUOUS
10
30.0288
20
-110.07
11
30.0147
21
-110.074
0
LINE
8
BLACK
6
CONTINUOUS
10
30.0147
20
-110.074
11
30.0037
21
-110.075
0
LINE
8
BLACK
6
CONTINUOUS
10
30.0037
20
-110.075
11
30
21
-110.075
0
LINE
8
BLACK
6
CONTINUOUS
10
30
20
-110.075
11
29.9963
21
-110.075
0
LINE
8
BLACK
6
CONTINUOUS
10
29.9963
20
-110.075
11
27.9963
21
-110.075
0
LINE
8
BLACK
6
CONTINUOUS
10
27.9963
20
-110.075
11
27.9853
21
-110.074
0
LINE
8
BLACK
6
CONTINUOUS
10
27.9853
20
-110.074
11
27.9712
21
-110.07
0
LINE
8
BLACK
6
CONTINUOUS
10
27.9712
20
-110.07
11
27.9581
21
-110.063
0
LINE
8
BLACK
6
CONTINUOUS
10
27.9581
20
-110.063
11
27.9467
21
-110.053
0
LINE
8
BLACK
6
CONTINUOUS
10
27.9467
20
-110.053
11
27.9373
21
-110.042
0
LINE
8
BLACK
6
CONTINUOUS
10
27.9373
20
-110.042
11
27.9304
21
-110.029
0
LINE
8
BLACK
6
CONTINUOUS
10
27.9304
20
-110.029
11
27.9261
21
-110.015
0
LINE
8
BLACK
6
CONTINUOUS
10
27.9261
20
-110.015
11
27.9246
21
-110
0
LINE
8
BLACK
6
CONTINUOUS
10
27.9246
20
-110
11
27.9261
21
-109.985
0
LINE
8
BLACK
6
CONTINUOUS
10
27.9261
20
-109.985
11
27.9304
21
-109.971
0
LINE
8
BLACK
6
CONTINUOUS
10
27.9304
20
-109.971
11
27.9373
21
-109.958
0
LINE
8
BLACK
6
CONTINUOUS
10
27.9373
20
-109.958
11
27.9467
21
-109.947
0
LINE
8
BLACK
6
CONTINUOUS
10
27.9467
20
-109.947
11
27.9581
21
-109.937
0
LINE
8
BLACK
6
CONTINUOUS
10
27.9581
20
-109.937
11
27.9712
21
-109.93
0
LINE
8
BLACK
6
CONTINUOUS
10
27.9712
20
-109.93
11
27.9853
21
-109.926
0
LINE
8
BLACK
6
CONTINUOUS
10
27.9853
20
-109.926
11
27.9963
21
-109.925
0
LINE
8
BLACK
6
CONTINUOUS
10
27.9963
20
-109.925
11
29.925
21
-109.925
0
LINE
8
BLACK
6
CONTINUOUS
10
29.925
20
-109.925
11
29.925
21
-103.996
0
LINE
8
BLACK
6
CONTINUOUS
10
29.925
20
-103.996
11
29.925
21
-103.996
0
LINE
8
BLACK
6
CONTINUOUS
10
29.925
20
-103.996
11
29.925
21
-98.075
0
LINE
8
BLACK
6
CONTINUOUS
10
29.925
20
-98.075
11
27.9963
21
-98.075
0
LINE
8
BLACK
6
CONTINUOUS
10
27.9963
20
-98.075
11
27.9853
21
-98.0739
0
LINE
8
BLACK
6
CONTINUOUS
10
27.9853
20
-98.0739
11
27.9712
21
-98.0696
0
LINE
8
BLACK
6
CONTINUOUS
10
27.9712
20
-98.0696
11
27.9581
21
-98.0627
0
LINE
8
BLACK
6
CONTINUOUS
10
27.9581
20
-98.0627
11
27.9467
21
-98.0533
0
LINE
8
BLACK
6
CONTINUOUS
10
27.9467
20
-98.0533
11
27.9373
21
-98.0419
0
LINE
8
BLACK
6
CONTINUOUS
10
27.9373
20
-98.0419
11
27.9304
21
-98.0288
0
LINE
8
BLACK
6
CONTINUOUS
10
27.9304
20
-98.0288
11
27.9261
21
-98.0147
0
LINE
8
BLACK
6
CONTINUOUS
10
27.9261
20
-98.0147
11
27.9246
21
-98
0
LINE
8
BLACK
6
CONTINUOUS
10
27.9246
20
-98
11
27.9261
21
-97.9853
0
LINE
8
BLACK
6
CONTINUOUS
10
27.9261
20
-97.9853
11
27.9304
21
-97.9712
0
LINE
8
BLACK
6
CONTINUOUS
10
27.9304
20
-97.9712
11
27.9373
21
-97.9581
0
LINE
8
BLACK
6
CONTINUOUS
10
27.9373
20
-97.9581
11
27.9467
21
-97.9467
0
LINE
8
BLACK
6
CONTINUOUS
10
27.9467
20
-97.9467
11
27.9581
21
-97.9373
0
LINE
8
BLACK
6
CONTINUOUS
10
27.9581
20
-97.9373
11
27.9712
21
-97.9304
0
LINE
8
BLACK
6
CONTINUOUS
10
27.9712
20
-97.9304
11
27.9853
21
-97.9261
0
LINE
8
BLACK
6
CONTINUOUS
10
27.9853
20
-97.9261
11
27.9963
21
-97.925
0
LINE
8
BLACK
6
CONTINUOUS
10
27.9963
20
-97.925
11
29.9963
21
-97.925
0
LINE
8
BLACK
6
CONTINUOUS
10
29.9963
20
-97.925
11
30
21
-97.9246
0
LINE
8
BLACK
6
CONTINUOUS
10
30
20
-97.9246
11
30.0037
21
-97.925
0
LINE
8
BLACK
6
CONTINUOUS
10
30.0037
20
-97.925
11
30.0147
21
-97.9261
0
LINE
8
BLACK
6
CONTINUOUS
10
30.0147
20
-97.9261
11
30.0288
21
-97.9304
0
LINE
8
BLACK
6
CONTINUOUS
10
30.0288
20
-97.9304
11
30.0419
21
-97.9373
0
LINE
8
BLACK
6
CONTINUOUS
10
30.0419
20
-97.9373
11
30.0533
21
-97.9467
0
LINE
8
BLACK
6
CONTINUOUS
10
30.0533
20
-97.9467
11
30.0627
21
-97.9581
0
LINE
8
BLACK
6
CONTINUOUS
10
30.0627
20
-97.9581
11
30.0696
21
-97.9712
0
LINE
8
BLACK
6
CONTINUOUS
10
30.0696
20
-97.9712
11
30.0739
21
-97.9853
0
LINE
8
BLACK
6
CONTINUOUS
10
30.0739
20
-97.9853
11
30.0754
21
-98
0
LINE
8
BLACK
6
CONTINUOUS
10
30.0754
20
-98
11
30.075
21
-98.0037
0
LINE
8
BLACK
6
CONTINUOUS
10
30.075
20
-98.0037
11
30.075
21
-109.996
0
LINE
8
BLACK
6
CONTINUOUS
10
30.075
20
-109.996
11
30.0754
21
-110
0
LINE
8
BLACK
6
CONTINUOUS
10
164.399
20
-100.305
11
164.446
21
-100.319
0
LINE
8
BLACK
6
CONTINUOUS
10
164.446
20
-100.319
11
164.489
21
-100.342
0
LINE
8
BLACK
6
CONTINUOUS
10
164.489
20
-100.342
11
164.527
21
-100.373
0
LINE
8
BLACK
6
CONTINUOUS
10
164.527
20
-100.373
11
164.558
21
-100.411
0
LINE
8
BLACK
6
CONTINUOUS
10
164.558
20
-100.411
11
164.581
21
-100.454
0
LINE
8
BLACK
6
CONTINUOUS
10
164.581
20
-100.454
11
164.595
21
-100.501
0
LINE
8
BLACK
6
CONTINUOUS
10
164.595
20
-100.501
11
164.6
21
-100.55
0
LINE
8
BLACK
6
CONTINUOUS
10
164.6
20
-100.55
11
164.6
21
-101.45
0
LINE
8
BLACK
6
CONTINUOUS
10
164.6
20
-101.45
11
164.595
21
-101.499
0
LINE
8
BLACK
6
CONTINUOUS
10
164.595
20
-101.499
11
164.581
21
-101.546
0
LINE
8
BLACK
6
CONTINUOUS
10
164.581
20
-101.546
11
164.558
21
-101.589
0
LINE
8
BLACK
6
CONTINUOUS
10
164.558
20
-101.589
11
164.527
21
-101.627
0
LINE
8
BLACK
6
CONTINUOUS
10
164.527
20
-101.627
11
164.489
21
-101.658
0
LINE
8
BLACK
6
CONTINUOUS
10
164.489
20
-101.658
11
164.446
21
-101.681
0
LINE
8
BLACK
6
CONTINUOUS
10
164.446
20
-101.681
11
164.399
21
-101.695
0
LINE
8
BLACK
6
CONTINUOUS
10
164.399
20
-101.695
11
164.35
21
-101.7
0
LINE
8
BLACK
6
CONTINUOUS
10
164.35
20
-101.7
11
163.7
21
-101.7
0
LINE
8
BLACK
6
CONTINUOUS
10
163.7
20
-101.7
11
163.651
21
-101.695
0
LINE
8
BLACK
6
CONTINUOUS
10
163.651
20
-101.695
11
163.604
21
-101.681
0
LINE
8
BLACK
6
CONTINUOUS
10
163.604
20
-101.681
11
163.561
21
-101.658
0
LINE
8
BLACK
6
CONTINUOUS
10
163.561
20
-101.658
11
163.523
21
-101.627
0
LINE
8
BLACK
6
CONTINUOUS
10
163.523
20
-101.627
11
163.492
21
-101.589
0
LINE
8
BLACK
6
CONTINUOUS
10
163.492
20
-101.589
11
163.469
21
-101.546
0
LINE
8
BLACK
6
CONTINUOUS
10
163.469
20
-101.546
11
163.455
21
-101.499
0
LINE
8
BLACK
6
CONTINUOUS
10
163.455
20
-101.499
11
163.45
21
-101.45
0
LINE
8
BLACK
6
CONTINUOUS
10
163.45
20
-101.45
11
163.45
21
-100.55
0
LINE
8
BLACK
6
CONTINUOUS
10
163.45
20
-100.55
11
163.455
21
-100.501
0
LINE
8
BLACK
6
CONTINUOUS
10
163.455
20
-100.501
11
163.469
21
-100.454
0
LINE
8
BLACK
6
CONTINUOUS
10
163.469
20
-100.454
11
163.492
21
-100.411
0
LINE
8
BLACK
6
CONTINUOUS
10
163.492
20
-100.411
11
163.523
21
-100.373
0
LINE
8
BLACK
6
CONTINUOUS
10
163.523
20
-100.373
11
163.561
21
-100.342
0
LINE
8
BLACK
6
CONTINUOUS
10
163.561
20
-100.342
11
163.604
21
-100.319
0
LINE
8
BLACK
6
CONTINUOUS
10
163.604
20
-100.319
11
163.651
21
-100.305
0
LINE
8
BLACK
6
CONTINUOUS
10
163.651
20
-100.305
11
163.7
21
-100.3
0
LINE
8
BLACK
6
CONTINUOUS
10
163.7
20
-100.3
11
164.35
21
-100.3
0
LINE
8
BLACK
6
CONTINUOUS
10
164.35
20
-100.3
11
164.399
21
-100.305
0
LINE
8
BLACK
6
CONTINUOUS
10
162.349
20
-100.305
11
162.396
21
-100.319
0
LINE
8
BLACK
6
CONTINUOUS
10
162.396
20
-100.319
11
162.439
21
-100.342
0
LINE
8
BLACK
6
CONTINUOUS
10
162.439
20
-100.342
11
162.477
21
-100.373
0
LINE
8
BLACK
6
CONTINUOUS
10
162.477
20
-100.373
11
162.508
21
-100.411
0
LINE
8
BLACK
6
CONTINUOUS
10
162.508
20
-100.411
11
162.531
21
-100.454
0
LINE
8
BLACK
6
CONTINUOUS
10
162.531
20
-100.454
11
162.545
21
-100.501
0
LINE
8
BLACK
6
CONTINUOUS
10
162.545
20
-100.501
11
162.55
21
-100.55
0
LINE
8
BLACK
6
CONTINUOUS
10
162.55
20
-100.55
11
162.55
21
-101.45
0
LINE
8
BLACK
6
CONTINUOUS
10
162.55
20
-101.45
11
162.545
21
-101.499
0
LINE
8
BLACK
6
CONTINUOUS
10
162.545
20
-101.499
11
162.531
21
-101.546
0
LINE
8
BLACK
6
CONTINUOUS
10
162.531
20
-101.546
11
162.508
21
-101.589
0
LINE
8
BLACK
6
CONTINUOUS
10
162.508
20
-101.589
11
162.477
21
-101.627
0
LINE
8
BLACK
6
CONTINUOUS
10
162.477
20
-101.627
11
162.439
21
-101.658
0
LINE
8
BLACK
6
CONTINUOUS
10
162.439
20
-101.658
11
162.396
21
-101.681
0
LINE
8
BLACK
6
CONTINUOUS
10
162.396
20
-101.681
11
162.349
21
-101.695
0
LINE
8
BLACK
6
CONTINUOUS
10
162.349
20
-101.695
11
162.3
21
-101.7
0
LINE
8
BLACK
6
CONTINUOUS
10
162.3
20
-101.7
11
161.65
21
-101.7
0
LINE
8
BLACK
6
CONTINUOUS
10
161.65
20
-101.7
11
161.601
21
-101.695
0
LINE
8
BLACK
6
CONTINUOUS
10
161.601
20
-101.695
11
161.554
21
-101.681
0
LINE
8
BLACK
6
CONTINUOUS
10
161.554
20
-101.681
11
161.511
21
-101.658
0
LINE
8
BLACK
6
CONTINUOUS
10
161.511
20
-101.658
11
161.473
21
-101.627
0
LINE
8
BLACK
6
CONTINUOUS
10
161.473
20
-101.627
11
161.442
21
-101.589
0
LINE
8
BLACK
6
CONTINUOUS
10
161.442
20
-101.589
11
161.419
21
-101.546
0
LINE
8
BLACK
6
CONTINUOUS
10
161.419
20
-101.546
11
161.405
21
-101.499
0
LINE
8
BLACK
6
CONTINUOUS
10
161.405
20
-101.499
11
161.4
21
-101.45
0
LINE
8
BLACK
6
CONTINUOUS
10
161.4
20
-101.45
11
161.4
21
-100.55
0
LINE
8
BLACK
6
CONTINUOUS
10
161.4
20
-100.55
11
161.405
21
-100.501
0
LINE
8
BLACK
6
CONTINUOUS
10
161.405
20
-100.501
11
161.419
21
-100.454
0
LINE
8
BLACK
6
CONTINUOUS
10
161.419
20
-100.454
11
161.442
21
-100.411
0
LINE
8
BLACK
6
CONTINUOUS
10
161.442
20
-100.411
11
161.473
21
-100.373
0
LINE
8
BLACK
6
CONTINUOUS
10
161.473
20
-100.373
11
161.511
21
-100.342
0
LINE
8
BLACK
6
CONTINUOUS
10
161.511
20
-100.342
11
161.554
21
-100.319
0
LINE
8
BLACK
6
CONTINUOUS
10
161.554
20
-100.319
11
161.601
21
-100.305
0
LINE
8
BLACK
6
CONTINUOUS
10
161.601
20
-100.305
11
161.65
21
-100.3
0
LINE
8
BLACK
6
CONTINUOUS
10
161.65
20
-100.3
11
162.3
21
-100.3
0
LINE
8
BLACK
6
CONTINUOUS
10
162.3
20
-100.3
11
162.349
21
-100.305
0
LINE
8
BLACK
6
CONTINUOUS
10
164.399
20
-96.3048
11
164.446
21
-96.319
0
LINE
8
BLACK
6
CONTINUOUS
10
164.446
20
-96.319
11
164.489
21
-96.3421
0
LINE
8
BLACK
6
CONTINUOUS
10
164.489
20
-96.3421
11
164.527
21
-96.3732
0
LINE
8
BLACK
6
CONTINUOUS
10
164.527
20
-96.3732
11
164.558
21
-96.4111
0
LINE
8
BLACK
6
CONTINUOUS
10
164.558
20
-96.4111
11
164.581
21
-96.4543
0
LINE
8
BLACK
6
CONTINUOUS
10
164.581
20
-96.4543
11
164.595
21
-96.5012
0
LINE
8
BLACK
6
CONTINUOUS
10
164.595
20
-96.5012
11
164.6
21
-96.55
0
LINE
8
BLACK
6
CONTINUOUS
10
164.6
20
-96.55
11
164.6
21
-97.45
0
LINE
8
BLACK
6
CONTINUOUS
10
164.6
20
-97.45
11
164.595
21
-97.4988
0
LINE
8
BLACK
6
CONTINUOUS
10
164.595
20
-97.4988
11
164.581
21
-97.5457
0
LINE
8
BLACK
6
CONTINUOUS
10
164.581
20
-97.5457
11
164.558
21
-97.5889
0
LINE
8
BLACK
6
CONTINUOUS
10
164.558
20
-97.5889
11
164.527
21
-97.6268
0
LINE
8
BLACK
6
CONTINUOUS
10
164.527
20
-97.6268
11
164.489
21
-97.6579
0
LINE
8
BLACK
6
CONTINUOUS
10
164.489
20
-97.6579
11
164.446
21
-97.681
0
LINE
8
BLACK
6
CONTINUOUS
10
164.446
20
-97.681
11
164.399
21
-97.6952
0
LINE
8
BLACK
6
CONTINUOUS
10
164.399
20
-97.6952
11
164.35
21
-97.7
0
LINE
8
BLACK
6
CONTINUOUS
10
164.35
20
-97.7
11
163.7
21
-97.7
0
LINE
8
BLACK
6
CONTINUOUS
10
163.7
20
-97.7
11
163.651
21
-97.6952
0
LINE
8
BLACK
6
CONTINUOUS
10
163.651
20
-97.6952
11
163.604
21
-97.681
0
LINE
8
BLACK
6
CONTINUOUS
10
163.604
20
-97.681
11
163.561
21
-97.6579
0
LINE
8
BLACK
6
CONTINUOUS
10
163.561
20
-97.6579
11
163.523
21
-97.6268
0
LINE
8
BLACK
6
CONTINUOUS
10
163.523
20
-97.6268
11
163.492
21
-97.5889
0
LINE
8
BLACK
6
CONTINUOUS
10
163.492
20
-97.5889
11
163.469
21
-97.5457
0
LINE
8
BLACK
6
CONTINUOUS
10
163.469
20
-97.5457
11
163.455
21
-97.4988
0
LINE
8
BLACK
6
CONTINUOUS
10
163.455
20
-97.4988
11
163.45
21
-97.45
0
LINE
8
BLACK
6
CONTINUOUS
10
163.45
20
-97.45
11
163.45
21
-96.55
0
LINE
8
BLACK
6
CONTINUOUS
10
163.45
20
-96.55
11
163.455
21
-96.5012
0
LINE
8
BLACK
6
CONTINUOUS
10
163.455
20
-96.5012
11
163.469
21
-96.4543
0
LINE
8
BLACK
6
CONTINUOUS
10
163.469
20
-96.4543
11
163.492
21
-96.4111
0
LINE
8
BLACK
6
CONTINUOUS
10
163.492
20
-96.4111
11
163.523
21
-96.3732
0
LINE
8
BLACK
6
CONTINUOUS
10
163.523
20
-96.3732
11
163.561
21
-96.3421
0
LINE
8
BLACK
6
CONTINUOUS
10
163.561
20
-96.3421
11
163.604
21
-96.319
0
LINE
8
BLACK
6
CONTINUOUS
10
163.604
20
-96.319
11
163.651
21
-96.3048
0
LINE
8
BLACK
6
CONTINUOUS
10
163.651
20
-96.3048
11
163.7
21
-96.3
0
LINE
8
BLACK
6
CONTINUOUS
10
163.7
20
-96.3
11
164.35
21
-96.3
0
LINE
8
BLACK
6
CONTINUOUS
10
164.35
20
-96.3
11
164.399
21
-96.3048
0
LINE
8
BLACK
6
CONTINUOUS
10
162.349
20
-96.3048
11
162.396
21
-96.319
0
LINE
8
BLACK
6
CONTINUOUS
10
162.396
20
-96.319
11
162.439
21
-96.3421
0
LINE
8
BLACK
6
CONTINUOUS
10
162.439
20
-96.3421
11
162.477
21
-96.3732
0
LINE
8
BLACK
6
CONTINUOUS
10
162.477
20
-96.3732
11
162.508
21
-96.4111
0
LINE
8
BLACK
6
CONTINUOUS
10
162.508
20
-96.4111
11
162.531
21
-96.4543
0
LINE
8
BLACK
6
CONTINUOUS
10
162.531
20
-96.4543
11
162.545
21
-96.5012
0
LINE
8
BLACK
6
CONTINUOUS
10
162.545
20
-96.5012
11
162.55
21
-96.55
0
LINE
8
BLACK
6
CONTINUOUS
10
162.55
20
-96.55
11
162.55
21
-97.45
0
LINE
8
BLACK
6
CONTINUOUS
10
162.55
20
-97.45
11
162.545
21
-97.4988
0
LINE
8
BLACK
6
CONTINUOUS
10
162.545
20
-97.4988
11
162.531
21
-97.5457
0
LINE
8
BLACK
6
CONTINUOUS
10
162.531
20
-97.5457
11
162.508
21
-97.5889
0
LINE
8
BLACK
6
CONTINUOUS
10
162.508
20
-97.5889
11
162.477
21
-97.6268
0
LINE
8
BLACK
6
CONTINUOUS
10
162.477
20
-97.6268
11
162.439
21
-97.6579
0
LINE
8
BLACK
6
CONTINUOUS
10
162.439
20
-97.6579
11
162.396
21
-97.681
0
LINE
8
BLACK
6
CONTINUOUS
10
162.396
20
-97.681
11
162.349
21
-97.6952
0
LINE
8
BLACK
6
CONTINUOUS
10
162.349
20
-97.6952
11
162.3
21
-97.7
0
LINE
8
BLACK
6
CONTINUOUS
10
162.3
20
-97.7
11
161.65
21
-97.7
0
LINE
8
BLACK
6
CONTINUOUS
10
161.65
20
-97.7
11
161.601
21
-97.6952
0
LINE
8
BLACK
6
CONTINUOUS
10
161.601
20
-97.6952
11
161.554
21
-97.681
0
LINE
8
BLACK
6
CONTINUOUS
10
161.554
20
-97.681
11
161.511
21
-97.6579
0
LINE
8
BLACK
6
CONTINUOUS
10
161.511
20
-97.6579
11
161.473
21
-97.6268
0
LINE
8
BLACK
6
CONTINUOUS
10
161.473
20
-97.6268
11
161.442
21
-97.5889
0
LINE
8
BLACK
6
CONTINUOUS
10
161.442
20
-97.5889
11
161.419
21
-97.5457
0
LINE
8
BLACK
6
CONTINUOUS
10
161.419
20
-97.5457
11
161.405
21
-97.4988
0
LINE
8
BLACK
6
CONTINUOUS
10
161.405
20
-97.4988
11
161.4
21
-97.45
0
LINE
8
BLACK
6
CONTINUOUS
10
161.4
20
-97.45
11
161.4
21
-96.55
0
LINE
8
BLACK
6
CONTINUOUS
10
161.4
20
-96.55
11
161.405
21
-96.5012
0
LINE
8
BLACK
6
CONTINUOUS
10
161.405
20
-96.5012
11
161.419
21
-96.4543
0
LINE
8
BLACK
6
CONTINUOUS
10
161.419
20
-96.4543
11
161.442
21
-96.4111
0
LINE
8
BLACK
6
CONTINUOUS
10
161.442
20
-96.4111
11
161.473
21
-96.3732
0
LINE
8
BLACK
6
CONTINUOUS
10
161.473
20
-96.3732
11
161.511
21
-96.3421
0
LINE
8
BLACK
6
CONTINUOUS
10
161.511
20
-96.3421
11
161.554
21
-96.319
0
LINE
8
BLACK
6
CONTINUOUS
10
161.554
20
-96.319
11
161.601
21
-96.3048
0
LINE
8
BLACK
6
CONTINUOUS
10
161.601
20
-96.3048
11
161.65
21
-96.3
0
LINE
8
BLACK
6
CONTINUOUS
10
161.65
20
-96.3
11
162.3
21
-96.3
0
LINE
8
BLACK
6
CONTINUOUS
10
162.3
20
-96.3
11
162.349
21
-96.3048
0
LINE
8
BLACK
6
CONTINUOUS
10
139.15
20
-83.1585
11
138.35
21
-83.1585
0
LINE
8
BLACK
6
CONTINUOUS
10
138.35
20
-83.1585
11
138.35
21
-82.2585
0
LINE
8
BLACK
6
CONTINUOUS
10
138.35
20
-82.2585
11
139.15
21
-82.2585
0
LINE
8
BLACK
6
CONTINUOUS
10
139.15
20
-82.2585
11
139.15
21
-83.1585
0
LINE
8
BLACK
6
CONTINUOUS
10
140.1
20
-81.1585
11
139.3
21
-81.1585
0
LINE
8
BLACK
6
CONTINUOUS
10
139.3
20
-81.1585
11
139.3
21
-80.2585
0
LINE
8
BLACK
6
CONTINUOUS
10
139.3
20
-80.2585
11
140.1
21
-80.2585
0
LINE
8
BLACK
6
CONTINUOUS
10
140.1
20
-80.2585
11
140.1
21
-81.1585
0
LINE
8
BLACK
6
CONTINUOUS
10
138.2
20
-81.1585
11
137.4
21
-81.1585
0
LINE
8
BLACK
6
CONTINUOUS
10
137.4
20
-81.1585
11
137.4
21
-80.2585
0
LINE
8
BLACK
6
CONTINUOUS
10
137.4
20
-80.2585
11
138.2
21
-80.2585
0
LINE
8
BLACK
6
CONTINUOUS
10
138.2
20
-80.2585
11
138.2
21
-81.1585
0
LINE
8
BLACK
6
CONTINUOUS
10
27.9853
20
-70.0739
11
27.9712
21
-70.0696
0
LINE
8
BLACK
6
CONTINUOUS
10
27.9712
20
-70.0696
11
27.9581
21
-70.0627
0
LINE
8
BLACK
6
CONTINUOUS
10
27.9581
20
-70.0627
11
27.9467
21
-70.0533
0
LINE
8
BLACK
6
CONTINUOUS
10
27.9467
20
-70.0533
11
27.9373
21
-70.0419
0
LINE
8
BLACK
6
CONTINUOUS
10
27.9373
20
-70.0419
11
27.9304
21
-70.0288
0
LINE
8
BLACK
6
CONTINUOUS
10
27.9304
20
-70.0288
11
27.9261
21
-70.0147
0
LINE
8
BLACK
6
CONTINUOUS
10
27.9261
20
-70.0147
11
27.9246
21
-70
0
LINE
8
BLACK
6
CONTINUOUS
10
27.9246
20
-70
11
27.9261
21
-69.9853
0
LINE
8
BLACK
6
CONTINUOUS
10
27.9261
20
-69.9853
11
27.9304
21
-69.9712
0
LINE
8
BLACK
6
CONTINUOUS
10
27.9304
20
-69.9712
11
27.9373
21
-69.9581
0
LINE
8
BLACK
6
CONTINUOUS
10
27.9373
20
-69.9581
11
27.9467
21
-69.9467
0
LINE
8
BLACK
6
CONTINUOUS
10
27.9467
20
-69.9467
11
27.9581
21
-69.9373
0
LINE
8
BLACK
6
CONTINUOUS
10
27.9581
20
-69.9373
11
27.9712
21
-69.9304
0
LINE
8
BLACK
6
CONTINUOUS
10
27.9712
20
-69.9304
11
27.9853
21
-69.9261
0
LINE
8
BLACK
6
CONTINUOUS
10
27.9853
20
-69.9261
11
27.9963
21
-69.925
0
LINE
8
BLACK
6
CONTINUOUS
10
27.9963
20
-69.925
11
173.004
21
-69.925
0
LINE
8
BLACK
6
CONTINUOUS
10
173.004
20
-69.925
11
173.015
21
-69.9261
0
LINE
8
BLACK
6
CONTINUOUS
10
173.015
20
-69.9261
11
173.029
21
-69.9304
0
LINE
8
BLACK
6
CONTINUOUS
10
173.029
20
-69.9304
11
173.042
21
-69.9373
0
LINE
8
BLACK
6
CONTINUOUS
10
173.042
20
-69.9373
11
173.053
21
-69.9467
0
LINE
8
BLACK
6
CONTINUOUS
10
173.053
20
-69.9467
11
173.063
21
-69.9581
0
LINE
8
BLACK
6
CONTINUOUS
10
173.063
20
-69.9581
11
173.07
21
-69.9712
0
LINE
8
BLACK
6
CONTINUOUS
10
173.07
20
-69.9712
11
173.074
21
-69.9853
0
LINE
8
BLACK
6
CONTINUOUS
10
173.074
20
-69.9853
11
173.075
21
-70
0
LINE
8
BLACK
6
CONTINUOUS
10
173.075
20
-70
11
173.074
21
-70.0147
0
LINE
8
BLACK
6
CONTINUOUS
10
173.074
20
-70.0147
11
173.07
21
-70.0288
0
LINE
8
BLACK
6
CONTINUOUS
10
173.07
20
-70.0288
11
173.063
21
-70.0419
0
LINE
8
BLACK
6
CONTINUOUS
10
173.063
20
-70.0419
11
173.053
21
-70.0533
0
LINE
8
BLACK
6
CONTINUOUS
10
173.053
20
-70.0533
11
173.042
21
-70.0627
0
LINE
8
BLACK
6
CONTINUOUS
10
173.042
20
-70.0627
11
173.029
21
-70.0696
0
LINE
8
BLACK
6
CONTINUOUS
10
173.029
20
-70.0696
11
173.015
21
-70.0739
0
LINE
8
BLACK
6
CONTINUOUS
10
173.015
20
-70.0739
11
173.004
21
-70.075
0
LINE
8
BLACK
6
CONTINUOUS
10
173.004
20
-70.075
11
27.9963
21
-70.075
0
LINE
8
BLACK
6
CONTINUOUS
10
27.9963
20
-70.075
11
27.9853
21
-70.0739
  0
ENDSEC
  0
EOF
