  0
SECTION
  2
HEADER
  9
$ANGBASE
  50
0.0
  9
$ANGDIR
  70
1
  9
$MEASUREMENT
  70
1
  0
ENDSEC
  0
SECTION
  2
TABLES
  0
TABLE
  2
LTYPE
  70
4
  0
LTYPE
  5
40F
  2
CONTINUOUS
  70
0
  3
Solid line
  72
65
  73
0
  40
0.0
  0
LTYPE
  5
410
  2
DASHDOT
 70
0
  3
Dash Dot ____ _ ____ _
 72
65
 73
4
 40
2.0
 49
1.25
 49
-0.25
 49
0.25
 49
-0.25
  0
LTYPE
  5
411
  2
DASHED
 70
0
  3
Dashed __ __ __ __ __
 72
65
 73
2
 40
0.75
 49
0.5
 49
-0.25
  0
LTYPE
  5
43B
  2
DOTTED
 70
0
  3
Dotted .  .  .  .
 72
65
 73
2
 40
0.2
 49
0.0
 49
-0.2
  0
ENDTAB
  0
TABLE
  2
STYLE
  70
4
  0
STYLE
  2
KICAD
  70
0
  40
0
  41
1
  42
1
  50
0
  71
0
  3
isocp.shx
  0
STYLE
  2
KICADB
  70
0
  40
0
  41
1
  42
1
  50
0
  71
0
  3
isocp.shx
  0
STYLE
  2
KICADI
  70
0
  40
0
  41
1
  42
1
  50
15
  71
0
  3
isocp.shx
  0
STYLE
  2
KICADBI
  70
0
  40
0
  41
1
  42
1
  50
15
  71
0
  3
isocp.shx
  0
ENDTAB
  0
TABLE
  2
LAYER
  70
1
  0
LAYER
  2
BLACK
  70
0
  62
7
  6
CONTINUOUS
  0
ENDTAB
  0
ENDSEC
  0
SECTION
  2
ENTITIES
0
LINE
8
BLACK
6
CONTINUOUS
10
173
20
-68
11
158
21
-68
0
LINE
8
BLACK
6
CONTINUOUS
10
173
20
-140
11
173
21
-68
0
LINE
8
BLACK
6
CONTINUOUS
10
158
20
-140
11
173
21
-140
0
LINE
8
BLACK
6
CONTINUOUS
10
158
20
-140
11
28
21
-140
0
LINE
8
BLACK
6
CONTINUOUS
10
28
20
-68
11
158
21
-68
0
LINE
8
BLACK
6
CONTINUOUS
10
28
20
-140
11
28
21
-68
0
LINE
8
BLACK
6
CONTINUOUS
10
30.8393
20
-144.682
11
30.8393
21
-141.682
0
LINE
8
BLACK
6
CONTINUOUS
10
30.8393
20
-141.682
11
31.5536
21
-141.682
0
LINE
8
BLACK
6
CONTINUOUS
10
31.5536
20
-141.682
11
31.9821
21
-141.825
0
LINE
8
BLACK
6
CONTINUOUS
10
31.9821
20
-141.825
11
32.2679
21
-142.111
0
LINE
8
BLACK
6
CONTINUOUS
10
32.2679
20
-142.111
11
32.4107
21
-142.396
0
LINE
8
BLACK
6
CONTINUOUS
10
32.4107
20
-142.396
11
32.5536
21
-142.968
0
LINE
8
BLACK
6
CONTINUOUS
10
32.5536
20
-142.968
11
32.5536
21
-143.396
0
LINE
8
BLACK
6
CONTINUOUS
10
32.5536
20
-143.396
11
32.4107
21
-143.968
0
LINE
8
BLACK
6
CONTINUOUS
10
32.4107
20
-143.968
11
32.2679
21
-144.254
0
LINE
8
BLACK
6
CONTINUOUS
10
32.2679
20
-144.254
11
31.9821
21
-144.539
0
LINE
8
BLACK
6
CONTINUOUS
10
31.9821
20
-144.539
11
31.5536
21
-144.682
0
LINE
8
BLACK
6
CONTINUOUS
10
31.5536
20
-144.682
11
30.8393
21
-144.682
0
LINE
8
BLACK
6
CONTINUOUS
10
33.8393
20
-144.682
11
33.8393
21
-142.682
0
LINE
8
BLACK
6
CONTINUOUS
10
33.8393
20
-143.254
11
33.9821
21
-142.968
0
LINE
8
BLACK
6
CONTINUOUS
10
33.9821
20
-142.968
11
34.125
21
-142.825
0
LINE
8
BLACK
6
CONTINUOUS
10
34.125
20
-142.825
11
34.4107
21
-142.682
0
LINE
8
BLACK
6
CONTINUOUS
10
34.4107
20
-142.682
11
34.6964
21
-142.682
0
LINE
8
BLACK
6
CONTINUOUS
10
35.6964
20
-144.682
11
35.6964
21
-142.682
0
LINE
8
BLACK
6
CONTINUOUS
10
35.6964
20
-141.682
11
35.5536
21
-141.825
0
LINE
8
BLACK
6
CONTINUOUS
10
35.5536
20
-141.825
11
35.6964
21
-141.968
0
LINE
8
BLACK
6
CONTINUOUS
10
35.6964
20
-141.968
11
35.8393
21
-141.825
0
LINE
8
BLACK
6
CONTINUOUS
10
35.8393
20
-141.825
11
35.6964
21
-141.682
0
LINE
8
BLACK
6
CONTINUOUS
10
35.6964
20
-141.682
11
35.6964
21
-141.968
0
LINE
8
BLACK
6
CONTINUOUS
10
37.5536
20
-144.682
11
37.2679
21
-144.539
0
LINE
8
BLACK
6
CONTINUOUS
10
37.2679
20
-144.539
11
37.125
21
-144.254
0
LINE
8
BLACK
6
CONTINUOUS
10
37.125
20
-144.254
11
37.125
21
-141.682
0
LINE
8
BLACK
6
CONTINUOUS
10
39.125
20
-144.682
11
38.8393
21
-144.539
0
LINE
8
BLACK
6
CONTINUOUS
10
38.8393
20
-144.539
11
38.6964
21
-144.254
0
LINE
8
BLACK
6
CONTINUOUS
10
38.6964
20
-144.254
11
38.6964
21
-141.682
0
LINE
8
BLACK
6
CONTINUOUS
10
42.5536
20
-144.682
11
42.5536
21
-141.682
0
LINE
8
BLACK
6
CONTINUOUS
10
42.5536
20
-141.682
11
43.5536
21
-143.825
0
LINE
8
BLACK
6
CONTINUOUS
10
43.5536
20
-143.825
11
44.5536
21
-141.682
0
LINE
8
BLACK
6
CONTINUOUS
10
44.5536
20
-141.682
11
44.5536
21
-144.682
0
LINE
8
BLACK
6
CONTINUOUS
10
47.2679
20
-144.682
11
47.2679
21
-143.111
0
LINE
8
BLACK
6
CONTINUOUS
10
47.2679
20
-143.111
11
47.125
21
-142.825
0
LINE
8
BLACK
6
CONTINUOUS
10
47.125
20
-142.825
11
46.8393
21
-142.682
0
LINE
8
BLACK
6
CONTINUOUS
10
46.8393
20
-142.682
11
46.2679
21
-142.682
0
LINE
8
BLACK
6
CONTINUOUS
10
46.2679
20
-142.682
11
45.9821
21
-142.825
0
LINE
8
BLACK
6
CONTINUOUS
10
47.2679
20
-144.539
11
46.9821
21
-144.682
0
LINE
8
BLACK
6
CONTINUOUS
10
46.9821
20
-144.682
11
46.2679
21
-144.682
0
LINE
8
BLACK
6
CONTINUOUS
10
46.2679
20
-144.682
11
45.9821
21
-144.539
0
LINE
8
BLACK
6
CONTINUOUS
10
45.9821
20
-144.539
11
45.8393
21
-144.254
0
LINE
8
BLACK
6
CONTINUOUS
10
45.8393
20
-144.254
11
45.8393
21
-143.968
0
LINE
8
BLACK
6
CONTINUOUS
10
45.8393
20
-143.968
11
45.9821
21
-143.682
0
LINE
8
BLACK
6
CONTINUOUS
10
45.9821
20
-143.682
11
46.2679
21
-143.539
0
LINE
8
BLACK
6
CONTINUOUS
10
46.2679
20
-143.539
11
46.9821
21
-143.539
0
LINE
8
BLACK
6
CONTINUOUS
10
46.9821
20
-143.539
11
47.2679
21
-143.396
0
LINE
8
BLACK
6
CONTINUOUS
10
48.6964
20
-142.682
11
48.6964
21
-145.682
0
LINE
8
BLACK
6
CONTINUOUS
10
48.6964
20
-142.825
11
48.9821
21
-142.682
0
LINE
8
BLACK
6
CONTINUOUS
10
48.9821
20
-142.682
11
49.5536
21
-142.682
0
LINE
8
BLACK
6
CONTINUOUS
10
49.5536
20
-142.682
11
49.8393
21
-142.825
0
LINE
8
BLACK
6
CONTINUOUS
10
49.8393
20
-142.825
11
49.9821
21
-142.968
0
LINE
8
BLACK
6
CONTINUOUS
10
49.9821
20
-142.968
11
50.125
21
-143.254
0
LINE
8
BLACK
6
CONTINUOUS
10
50.125
20
-143.254
11
50.125
21
-144.111
0
LINE
8
BLACK
6
CONTINUOUS
10
50.125
20
-144.111
11
49.9821
21
-144.396
0
LINE
8
BLACK
6
CONTINUOUS
10
49.9821
20
-144.396
11
49.8393
21
-144.539
0
LINE
8
BLACK
6
CONTINUOUS
10
49.8393
20
-144.539
11
49.5536
21
-144.682
0
LINE
8
BLACK
6
CONTINUOUS
10
49.5536
20
-144.682
11
48.9821
21
-144.682
0
LINE
8
BLACK
6
CONTINUOUS
10
48.9821
20
-144.682
11
48.6964
21
-144.539
0
LINE
8
BLACK
6
CONTINUOUS
10
51.4107
20
-144.396
11
51.5536
21
-144.539
0
LINE
8
BLACK
6
CONTINUOUS
10
51.5536
20
-144.539
11
51.4107
21
-144.682
0
LINE
8
BLACK
6
CONTINUOUS
10
51.4107
20
-144.682
11
51.2679
21
-144.539
0
LINE
8
BLACK
6
CONTINUOUS
10
51.2679
20
-144.539
11
51.4107
21
-144.396
0
LINE
8
BLACK
6
CONTINUOUS
10
51.4107
20
-144.396
11
51.4107
21
-144.682
0
LINE
8
BLACK
6
CONTINUOUS
10
51.4107
20
-142.825
11
51.5536
21
-142.968
0
LINE
8
BLACK
6
CONTINUOUS
10
51.5536
20
-142.968
11
51.4107
21
-143.111
0
LINE
8
BLACK
6
CONTINUOUS
10
51.4107
20
-143.111
11
51.2679
21
-142.968
0
LINE
8
BLACK
6
CONTINUOUS
10
51.2679
20
-142.968
11
51.4107
21
-142.825
0
LINE
8
BLACK
6
CONTINUOUS
10
51.4107
20
-142.825
11
51.4107
21
-143.111
  0
ENDSEC
  0
EOF
